SplineFontDB: 3.0
FontName: DTCVanDijk-Italic
FullName: DTCVanDijk Italic
FamilyName: DTCVanDijk
Weight: Book
Copyright: (cc)
Version: 001.005
ItalicAngle: 235
UnderlinePosition: -136
UnderlineWidth: 132
Ascent: 1475
Descent: 573
sfntRevision: 0x00010147
LayerCount: 2
Layer: 0 1 "Back"  1
Layer: 1 1 "Fore"  0
XUID: [1021 588 1133928653 12016676]
FSType: 6
OS2Version: 4
OS2_WeightWidthSlopeOnly: 0
OS2_UseTypoMetrics: 1
CreationTime: 855093987
ModificationTime: 1360585219
PfmFamily: 81
TTFWeight: 400
TTFWidth: 5
LineGap: 0
VLineGap: 0
Panose: 0 0 0 0 0 0 0 0 0 0
OS2TypoAscent: 0
OS2TypoAOffset: 1
OS2TypoDescent: 0
OS2TypoDOffset: 1
OS2TypoLinegap: 0
OS2WinAscent: 0
OS2WinAOffset: 1
OS2WinDescent: 0
OS2WinDOffset: 1
HheadAscent: -51
HheadAOffset: 1
HheadDescent: 65
HheadDOffset: 1
OS2SubXSize: 819
OS2SubYSize: 839
OS2SubXOff: 0
OS2SubYOff: 0
OS2SupXSize: 819
OS2SupYSize: 839
OS2SupXOff: 0
OS2SupYOff: 560
OS2StrikeYSize: 132
OS2StrikeYPos: 429
OS2Vendor: 'URW '
OS2CodePages: a0000011.00000000
OS2UnicodeRanges: 00000000.00000000.00000000.00000000
Lookup: 258 0 0 "'kern' Horizontal Kerning in Latin lookup 0"  {"'kern' Horizontal Kerning in Latin lookup 0 subtable"  } ['kern' ('DFLT' <'dflt' > 'latn' <'dflt' > ) ]
DEI: 91125
TtTable: prep
PUSHB_2
 48
 1
PUSHW_1
 329
RTG
SCANCTRL
SCANTYPE
SCVTCI
EndTTInstrs
TtTable: fpgm
NPUSHB
 15
 14
 13
 12
 11
 10
 9
 8
 7
 6
 5
 4
 3
 2
 1
 0
FDEF
SLOOP
MDAP[rnd]
ALIGNRP
ENDF
FDEF
MDAP[rnd]
ALIGNRP
ENDF
FDEF
SRP1
SRP2
IP
ENDF
FDEF
SRP1
SRP2
SLOOP
IP
ENDF
FDEF
SRP0
SLOOP
MIRP[rp0,min,rnd,black]
ALIGNRP
ENDF
FDEF
SRP0
SLOOP
MIRP[rp0,rnd,grey]
ALIGNRP
ENDF
FDEF
SRP0
SLOOP
MDRP[rp0,min,rnd,black]
ALIGNRP
ENDF
FDEF
SRP0
SLOOP
MDRP[rp0,rnd,grey]
ALIGNRP
ENDF
FDEF
SRP0
MIRP[rp0,min,rnd,black]
ENDF
FDEF
SRP0
MIRP[rp0,rnd,grey]
ENDF
FDEF
SRP0
MDRP[rp0,min,rnd,black]
ENDF
FDEF
SRP0
MDRP[rp0,rnd,grey]
ENDF
FDEF
MDRP[rnd,grey]
ENDF
FDEF
MDRP[grey]
ENDF
FDEF
SVTCA[y-axis]
NPUSHB
 10
 1
 0
 0
 1
 1
 2
 2
 3
 3
 0
SZPS
MIAP[rnd]
MIAP[rnd]
MIAP[rnd]

StartChar: .notdef
Encoding: 65536 -1 0
Width: 512
VWidth: 2457
Flags: W
LayerCount: 2
Fore
SplineSet
51 0 m 1,0,-1
 51 1365 l 1,1,-1
 461 1365 l 1,2,-1
 461 0 l 1,3,-1
 51 0 l 1,0,-1
410 51 m 1,4,-1
 410 1314 l 1,5,-1
 102 1314 l 1,6,-1
 102 51 l 1,7,-1
 410 51 l 1,4,-1
EndSplineSet
EndChar

StartChar: exclam
Encoding: 33 33 4
Width: 506
VWidth: 2457
Flags: W
LayerCount: 2
Fore
SplineSet
196 175 m 1,0,1
 169 117 169 117 94 -114 c 1,2,3
 71 -93 71 -93 31 -66 c 0,4,5
 4 -48 4 -48 -26 -28 c 1,6,7
 -9 9 -9 9 36 129 c 0,8,9
 73 227 73 227 80 249 c 1,10,11
 113 224 113 224 138 209 c 0,12,13
 179 186 179 186 196 175 c 1,0,1
216 251 m 1,14,15
 200 259 200 259 162 281 c 1,16,17
 117 304 117 304 102 313 c 1,18,19
 145 404 145 404 218 573 c 0,20,21
 329 829 329 829 487 1164 c 0,22,23
 563 1326 563 1326 603 1399 c 1,24,-1
 622 1383 l 2,25,26
 692 1324 692 1324 710 1310 c 1,27,-1
 689 1268 l 1,28,29
 536 967 536 967 465 818 c 0,30,31
 371 618 371 618 244 316 c 1,32,-1
 216 251 l 1,14,15
EndSplineSet
EndChar

StartChar: quotedbl
Encoding: 34 34 5
Width: 834
VWidth: 2457
Flags: W
LayerCount: 2
Fore
SplineSet
378 691 m 1,0,1
 353 700 353 700 323 710 c 0,2,3
 286 723 286 723 262 729 c 1,4,5
 325 885 325 885 411 1066 c 0,6,7
 546 1347 546 1347 579 1401 c 1,8,9
 594 1389 594 1389 633 1358 c 0,10,11
 669 1329 669 1329 681 1320 c 1,12,13
 481 952 481 952 378 691 c 1,0,1
706 691 m 1,14,15
 681 700 681 700 651 710 c 0,16,17
 614 723 614 723 590 729 c 1,18,19
 653 885 653 885 739 1066 c 0,20,21
 874 1347 874 1347 907 1401 c 1,22,23
 922 1389 922 1389 961 1358 c 0,24,25
 997 1329 997 1329 1009 1320 c 1,26,27
 809 952 809 952 706 691 c 1,14,15
EndSplineSet
EndChar

StartChar: numbersign
Encoding: 35 35 6
Width: 1365
VWidth: 2457
Flags: W
LayerCount: 2
Fore
SplineSet
1123 1018 m 1,0,-1
 1144 1057 l 1,1,2
 1261 1272 1261 1272 1321 1384 c 1,3,4
 1340 1351 1340 1351 1392 1296 c 1,5,6
 1368 1251 1368 1251 1303 1136 c 1,7,-1
 1242 1026 l 1,8,-1
 1300 1030 l 1,9,-1
 1358 1034 l 1,10,11
 1493 1041 1493 1041 1524 1043 c 1,12,13
 1526 1028 1526 1028 1530 986 c 0,14,15
 1532 962 1532 962 1539 919 c 1,16,17
 1496 920 1496 920 1476 920 c 0,18,19
 1426 920 1426 920 1255 910 c 1,20,-1
 1175 906 l 1,21,-1
 1164 884 l 1,22,-1
 1080 733 l 1,23,-1
 985 560 l 1,24,-1
 956 508 l 1,25,-1
 1016 512 l 1,26,-1
 1076 516 l 1,27,28
 1211 523 1211 523 1242 525 c 1,29,30
 1244 510 1244 510 1248 468 c 0,31,32
 1250 446 1250 446 1257 401 c 1,33,34
 1214 402 1214 402 1193 402 c 0,35,36
 1144 402 1144 402 971 392 c 1,37,-1
 890 388 l 1,38,-1
 866 344 l 1,39,-1
 794 213 l 1,40,-1
 656 -41 l 1,41,-1
 639 -72 l 1,42,43
 604 -46 604 -46 595 -40 c 0,44,45
 565 -18 565 -18 556 -11 c 1,46,47
 585 38 585 38 706 258 c 1,48,-1
 756 350 l 1,49,-1
 773 380 l 1,50,-1
 728 377 l 1,51,-1
 595 367 l 1,52,-1
 490 360 l 1,53,-1
 454 358 l 1,54,-1
 434 322 l 1,55,-1
 375 213 l 1,56,-1
 237 -41 l 1,57,-1
 220 -72 l 1,58,59
 211 -66 211 -66 203 -60 c 0,60,61
 181 -43 181 -43 158 -27 c 0,62,63
 146 -18 146 -18 137 -11 c 1,64,65
 182 68 182 68 337 350 c 1,66,-1
 224 344 l 2,67,68
 107 338 107 338 64 336 c 1,69,70
 62 408 62 408 54 462 c 1,71,72
 269 465 269 465 405 473 c 1,73,-1
 427 513 l 1,74,-1
 535 711 l 1,75,-1
 600 829 l 1,76,-1
 622 868 l 1,77,-1
 508 862 l 2,78,79
 389 856 389 856 346 854 c 1,80,81
 343 936 343 936 336 980 c 1,82,83
 544 983 544 983 689 991 c 1,84,-1
 714 1037 l 2,85,86
 858 1301 858 1301 902 1384 c 1,87,88
 921 1351 921 1351 973 1296 c 1,89,90
 940 1237 940 1237 808 998 c 1,91,92
 864 1001 864 1001 1063 1014 c 2,93,-1
 1123 1018 l 1,0,-1
1057 898 m 1,94,-1
 1012 895 l 1,95,-1
 888 886 l 1,96,-1
 774 879 l 1,97,-1
 740 876 l 1,98,-1
 653 718 l 1,99,-1
 543 520 l 1,100,-1
 521 480 l 1,101,102
 603 485 603 485 809 498 c 2,103,-1
 839 500 l 1,104,-1
 868 553 l 1,105,-1
 954 711 l 1,106,-1
 1041 868 l 1,107,-1
 1057 898 l 1,94,-1
EndSplineSet
EndChar

StartChar: dollar
Encoding: 36 36 7
Width: 1365
VWidth: 2457
Flags: W
LayerCount: 2
Fore
SplineSet
389 -351 m 1,0,1
 362 -338 362 -338 324 -318 c 1,2,3
 291 -302 291 -302 267 -290 c 1,4,5
 321 -184 321 -184 392 -36 c 1,6,7
 318 -43 318 -43 247 -43 c 0,8,9
 62 -43 62 -43 -40 15 c 0,10,11
 -138 71 -138 71 -138 168 c 0,12,13
 -138 331 -138 331 121 443 c 0,14,15
 278 511 278 511 500 548 c 1,16,17
 505 533 505 533 512 497 c 0,18,19
 518 468 518 468 527 436 c 1,20,21
 302 395 302 395 199 354 c 0,22,23
 -7 274 -7 274 -7 172 c 0,24,25
 -7 128 -7 128 46 105 c 0,26,27
 121 71 121 71 253 71 c 0,28,29
 352 71 352 71 448 88 c 1,30,-1
 716 720 l 1,31,32
 667 729 667 729 511 757 c 0,33,34
 282 798 282 798 282 946 c 0,35,36
 282 1120 282 1120 585 1246 c 0,37,38
 730 1306 730 1306 989 1350 c 1,39,40
 1073 1538 1073 1538 1109 1650 c 1,41,42
 1171 1617 1171 1617 1222 1594 c 1,43,44
 1146 1445 1146 1445 1113 1361 c 1,45,46
 1173 1366 1173 1366 1203 1366 c 0,47,48
 1339 1366 1339 1366 1436 1332 c 0,49,50
 1475 1318 1475 1318 1504 1284 c 256,51,52
 1533 1250 1533 1250 1533 1206 c 0,53,54
 1533 1096 1533 1096 1347 1005 c 0,55,56
 1251 958 1251 958 1109 909 c 1,57,58
 1076 947 1076 947 1065 958 c 0,59,60
 1034 991 1034 991 1021 1006 c 1,61,62
 1033 1008 1033 1008 1070 1023 c 1,63,64
 1171 1058 1171 1058 1297 1111 c 0,65,66
 1397 1153 1397 1153 1397 1195 c 0,67,68
 1397 1253 1397 1253 1206 1253 c 0,69,70
 1142 1253 1142 1253 1059 1242 c 1,71,-1
 878 812 l 1,72,73
 1115 762 1115 762 1185 731 c 0,74,75
 1369 649 1369 649 1369 486 c 0,76,77
 1369 371 1369 371 1268 272 c 0,78,79
 1150 156 1150 156 855 58 c 0,80,81
 722 13 722 13 524 -21 c 1,82,83
 474 -118 474 -118 389 -351 c 1,0,1
579 106 m 1,84,85
 831 151 831 151 1029 251 c 0,86,87
 1238 357 1238 357 1238 489 c 0,88,89
 1238 588 1238 588 1074 644 c 0,90,91
 1039 655 1039 655 830 701 c 1,92,-1
 579 106 l 1,84,85
766 831 m 1,93,-1
 933 1222 l 1,94,95
 742 1192 742 1192 607 1130 c 0,96,97
 521 1090 521 1090 471 1043 c 0,98,99
 417 992 417 992 417 950 c 0,100,101
 417 913 417 913 476 891 c 256,102,103
 535 869 535 869 766 831 c 1,93,-1
EndSplineSet
EndChar

StartChar: percent
Encoding: 37 37 8
Width: 1568
VWidth: 2457
Flags: W
LayerCount: 2
Fore
SplineSet
1255 697 m 0,0,1
 1344 697 1344 697 1396 634 c 0,2,3
 1447 571 1447 571 1447 477 c 0,4,5
 1447 344 1447 344 1368 194 c 1,6,7
 1288 45 1288 45 1175 -30 c 0,8,9
 1093 -84 1093 -84 1006 -84 c 0,10,11
 914 -84 914 -84 858 -17 c 0,12,13
 805 46 805 46 805 142 c 0,14,15
 805 321 805 321 917 482 c 0,16,17
 1007 611 1007 611 1129 668 c 0,18,19
 1190 697 1190 697 1255 697 c 0,0,1
1231 586 m 0,20,21
 1189 586 1189 586 1128 547 c 0,22,23
 1049 495 1049 495 989 395 c 1,24,25
 919 275 919 275 919 154 c 0,26,27
 919 95 919 95 950 55 c 0,28,29
 975 24 975 24 1014 24 c 0,30,31
 1075 24 1075 24 1149 83 c 1,32,33
 1227 147 1227 147 1285 267 c 0,34,35
 1336 373 1336 373 1336 463 c 0,36,37
 1336 586 1336 586 1231 586 c 0,20,21
1388 1281 m 1,38,39
 1273 1135 1273 1135 1130 937 c 0,40,41
 734 388 734 388 629 234 c 0,42,43
 531 91 531 91 444 -77 c 1,44,45
 371 -10 371 -10 340 7 c 1,46,47
 400 90 400 90 533 279 c 1,48,49
 626 407 626 407 717 539 c 1,50,51
 940 851 940 851 1136 1144 c 0,52,53
 1232 1287 1232 1287 1279 1373 c 1,54,55
 1350 1307 1350 1307 1388 1281 c 1,38,39
729 1387 m 0,56,57
 828 1387 828 1387 885 1309 c 0,58,59
 926 1252 926 1252 926 1168 c 0,60,61
 926 1017 926 1017 831 856 c 0,62,63
 751 721 751 721 644 652 c 0,64,65
 567 602 567 602 486 602 c 0,66,67
 380 602 380 602 324 691 c 0,68,69
 284 753 284 753 284 832 c 0,70,71
 284 985 284 985 373 1135 c 0,72,73
 451 1268 451 1268 572 1340 c 1,74,75
 653 1387 653 1387 729 1387 c 0,56,57
703 1274 m 0,76,77
 618 1274 618 1274 525 1161 c 1,78,79
 398 1009 398 1009 398 841 c 0,80,81
 398 782 398 782 428 745 c 0,82,83
 453 713 453 713 495 713 c 0,84,85
 563 713 563 713 640 781 c 0,86,87
 714 847 714 847 769 977 c 0,88,89
 812 1077 812 1077 812 1154 c 0,90,91
 812 1274 812 1274 703 1274 c 0,76,77
EndSplineSet
EndChar

StartChar: ampersand
Encoding: 38 38 9
Width: 1356
VWidth: 2457
Flags: W
LayerCount: 2
Fore
SplineSet
1406 -324 m 1,0,1
 1334 -351 1334 -351 1271 -388 c 1,2,3
 1152 -307 1152 -307 999 -144 c 1,4,5
 915 -53 915 -53 842 46 c 0,6,7
 787 119 787 119 785 122 c 1,8,9
 685 42 685 42 598 -11 c 0,10,11
 429 -114 429 -114 300 -114 c 0,12,13
 156 -114 156 -114 79 -7 c 0,14,15
 23 70 23 70 23 185 c 0,16,17
 23 415 23 415 240 639 c 0,18,19
 304 706 304 706 486 852 c 1,20,21
 460 962 460 962 460 1050 c 0,22,23
 460 1214 460 1214 533 1308 c 0,24,25
 595 1387 595 1387 698 1387 c 0,26,27
 781 1387 781 1387 830 1332 c 1,28,29
 881 1273 881 1273 881 1186 c 0,30,31
 881 1072 881 1072 779 962 c 0,32,33
 720 898 720 898 620 816 c 1,34,35
 653 666 653 666 711 525 c 0,36,37
 771 379 771 379 812 310 c 1,38,39
 1003 480 1003 480 1217 804 c 1,40,41
 1231 782 1231 782 1255 745 c 0,42,43
 1282 703 1282 703 1296 685 c 1,44,45
 1060 372 1060 372 879 204 c 1,46,47
 1076 -88 1076 -88 1406 -324 c 1,0,1
596 940 m 1,48,49
 665 1001 665 1001 698 1042 c 0,50,51
 758 1115 758 1115 758 1189 c 0,52,53
 758 1223 758 1223 740 1245 c 0,54,55
 723 1266 723 1266 694 1266 c 0,56,57
 647 1266 647 1266 616 1222 c 0,58,59
 582 1172 582 1172 582 1069 c 0,60,61
 582 1015 582 1015 596 940 c 1,48,49
717 226 m 1,62,63
 662 318 662 318 595 487 c 1,64,65
 546 615 546 615 514 730 c 1,66,67
 155 448 155 448 155 190 c 0,68,69
 155 111 155 111 210 60 c 0,70,71
 253 19 253 19 310 19 c 0,72,73
 458 19 458 19 717 226 c 1,62,63
EndSplineSet
EndChar

StartChar: quotesingle
Encoding: 39 39 10
Width: 506
VWidth: 2457
Flags: W
LayerCount: 2
Fore
SplineSet
378 691 m 1,0,1
 353 700 353 700 323 710 c 0,2,3
 286 723 286 723 262 729 c 1,4,5
 325 885 325 885 411 1066 c 0,6,7
 546 1347 546 1347 579 1401 c 1,8,9
 594 1389 594 1389 633 1358 c 0,10,11
 669 1329 669 1329 681 1320 c 1,12,13
 481 952 481 952 378 691 c 1,0,1
EndSplineSet
EndChar

StartChar: parenleft
Encoding: 40 40 11
Width: 652
VWidth: 2457
Flags: W
LayerCount: 2
Fore
SplineSet
962 1605 m 1,0,1
 996 1568 996 1568 1071 1496 c 1,2,3
 937 1399 937 1399 852 1328 c 0,4,5
 548 1074 548 1074 337 703 c 0,6,7
 227 508 227 508 176 339 c 0,8,9
 126 173 126 173 126 1 c 0,10,11
 126 -261 126 -261 235 -455 c 1,12,13
 159 -513 159 -513 112 -561 c 1,14,15
 -7 -297 -7 -297 -7 -22 c 0,16,17
 -7 380 -7 380 233 797 c 0,18,19
 409 1102 409 1102 682 1362 c 0,20,21
 799 1474 799 1474 962 1605 c 1,0,1
EndSplineSet
EndChar

StartChar: parenright
Encoding: 41 41 12
Width: 652
VWidth: 2457
Flags: W
LayerCount: 2
Fore
SplineSet
-245 -561 m 1,0,1
 -280 -525 -280 -525 -355 -453 c 1,2,3
 -221 -356 -221 -356 -135 -285 c 0,4,5
 168 -31 168 -31 379 340 c 0,6,7
 490 535 490 535 541 704 c 0,8,9
 591 870 591 870 591 1042 c 0,10,11
 591 1303 591 1303 482 1498 c 1,12,13
 491 1506 491 1506 501 1513 c 0,14,15
 559 1558 559 1558 605 1605 c 1,16,17
 724 1339 724 1339 724 1065 c 0,18,19
 724 725 724 725 560 390 c 0,20,21
 382 26 382 26 88 -267 c 0,22,23
 -45 -400 -45 -400 -245 -561 c 1,0,1
EndSplineSet
EndChar

StartChar: asterisk
Encoding: 42 42 13
Width: 920
VWidth: 2457
Flags: W
LayerCount: 2
Fore
SplineSet
588 1030 m 1,0,1
 460 1142 460 1142 332 1216 c 1,2,3
 403 1275 403 1275 428 1300 c 1,4,5
 507 1213 507 1213 646 1101 c 1,6,7
 712 1263 712 1263 743 1401 c 1,8,9
 822 1352 822 1352 853 1336 c 1,10,11
 800 1245 800 1245 730 1068 c 1,12,13
 806 1061 806 1061 896 1061 c 0,14,15
 971 1061 971 1061 1046 1068 c 1,16,17
 1040 1044 1040 1044 1031 1006 c 0,18,19
 1023 970 1023 970 1018 943 c 1,20,21
 917 964 917 964 734 976 c 1,22,-1
 725 977 l 1,23,24
 764 814 764 814 823 677 c 1,25,26
 730 670 730 670 696 665 c 1,27,28
 685 774 685 774 637 954 c 1,29,30
 489 867 489 867 382 768 c 1,31,32
 348 851 348 851 331 885 c 1,33,34
 440 937 440 937 580 1026 c 1,35,-1
 588 1030 l 1,0,1
EndSplineSet
EndChar

StartChar: plus
Encoding: 43 43 14
Width: 1365
VWidth: 2457
Flags: W
LayerCount: 2
Fore
SplineSet
272 745 m 1,0,-1
 744 745 l 1,1,-1
 936 1185 l 1,2,-1
 1079 1185 l 1,3,-1
 888 745 l 1,4,-1
 1360 745 l 1,5,-1
 1305 620 l 1,6,-1
 833 620 l 1,7,-1
 642 180 l 1,8,-1
 499 180 l 1,9,-1
 690 620 l 1,10,-1
 218 620 l 1,11,-1
 272 745 l 1,0,-1
EndSplineSet
EndChar

StartChar: comma
Encoding: 44 44 15
Width: 445
VWidth: 2457
Flags: W
LayerCount: 2
Fore
SplineSet
-94 -320 m 1,0,1
 -136 -277 -136 -277 -182 -245 c 1,2,3
 -42 -65 -42 -65 -12 4 c 1,4,5
 -35 24 -35 24 -68 67 c 1,6,7
 -37 104 -37 104 5 164 c 0,8,9
 36 210 36 210 54 241 c 1,10,11
 102 199 102 199 184 150 c 1,12,13
 168 76 168 76 80 -85 c 0,14,15
 12 -210 12 -210 -94 -320 c 1,0,1
EndSplineSet
EndChar

StartChar: hyphen
Encoding: 45 45 16
Width: 500
VWidth: 2457
Flags: W
LayerCount: 2
Fore
SplineSet
472 408 m 1,0,-1
 420 408 l 1,1,-1
 224 405 l 2,2,3
 199 405 199 405 -23 408 c 1,4,5
 0 443 0 443 35 551 c 1,6,7
 153 541 153 541 323 541 c 0,8,9
 427 541 427 541 519 551 c 1,10,11
 512 531 512 531 494 481 c 0,12,13
 486 459 486 459 472 408 c 1,0,-1
EndSplineSet
EndChar

StartChar: period
Encoding: 46 46 17
Width: 445
VWidth: 2457
Flags: W
LayerCount: 2
Fore
SplineSet
170 175 m 1,0,1
 147 127 147 127 68 -114 c 1,2,3
 27 -80 27 -80 5 -66 c 0,4,5
 -36 -39 -36 -39 -52 -28 c 1,6,7
 -34 10 -34 10 10 129 c 0,8,9
 47 227 47 227 54 249 c 1,10,11
 96 219 96 219 170 175 c 1,0,1
EndSplineSet
EndChar

StartChar: slash
Encoding: 47 47 18
Width: 715
VWidth: 2457
Flags: W
LayerCount: 2
Fore
SplineSet
1041 1563 m 1,0,1
 980 1476 980 1476 907 1357 c 0,2,3
 872 1300 872 1300 591 820 c 0,4,5
 247 233 247 233 144 50 c 0,6,7
 -6 -215 -6 -215 -43 -278 c 1,8,9
 -73 -252 -73 -252 -88 -240 c 0,10,11
 -126 -211 -126 -211 -139 -201 c 1,12,13
 -86 -125 -86 -125 267 463 c 1,14,15
 673 1155 673 1155 772 1331 c 0,16,17
 901 1561 901 1561 942 1642 c 1,18,19
 982 1604 982 1604 1041 1563 c 1,0,1
EndSplineSet
EndChar

StartChar: zero
Encoding: 48 48 19
Width: 1365
VWidth: 2457
Flags: W
LayerCount: 2
Fore
SplineSet
1003 1382 m 0,0,1
 1182 1382 1182 1382 1298 1264 c 0,2,3
 1411 1149 1411 1149 1411 948 c 0,4,5
 1411 701 1411 701 1269 438 c 1,6,7
 1113 146 1113 146 866 8 c 0,8,9
 712 -78 712 -78 554 -78 c 0,10,11
 351 -78 351 -78 231 65 c 0,12,13
 174 133 174 133 144 229 c 0,14,15
 121 302 121 302 121 377 c 0,16,17
 121 579 121 579 218 790 c 0,18,19
 365 1111 365 1111 648 1276 c 0,20,21
 828 1382 828 1382 1003 1382 c 0,0,1
977 1250 m 0,22,23
 844 1250 844 1250 701 1163 c 0,24,25
 512 1047 512 1047 377 810 c 0,26,27
 253 591 253 591 253 392 c 0,28,29
 253 296 253 296 298 209 c 0,30,31
 380 53 380 53 564 53 c 0,32,33
 725 53 725 53 885 174 c 0,34,35
 1068 312 1068 312 1180 560 c 0,36,37
 1272 764 1272 764 1272 948 c 0,38,39
 1272 1112 1272 1112 1176 1189 c 1,40,41
 1102 1250 1102 1250 977 1250 c 0,22,23
EndSplineSet
EndChar

StartChar: one
Encoding: 49 49 20
Width: 1365
VWidth: 2457
Flags: W
LayerCount: 2
Fore
SplineSet
519 93 m 1,0,1
 731 592 731 592 982 1120 c 1,2,3
 814 967 814 967 661 865 c 1,4,5
 637 933 637 933 612 988 c 1,6,7
 935 1178 935 1178 1125 1437 c 1,8,9
 1138 1426 1138 1426 1175 1392 c 0,10,11
 1186 1382 1186 1382 1230 1349 c 1,12,13
 1166 1236 1166 1236 974 817 c 0,14,15
 823 489 823 489 658 91 c 1,16,17
 705 91 705 91 848 91 c 1,18,-1
 966 89 l 2,19,20
 979 89 979 89 997 89 c 1,21,-1
 998 68 l 2,22,23
 1001 -7 1001 -7 1004 -38 c 1,24,25
 669 -26 669 -26 301 -26 c 0,26,27
 242 -26 242 -26 159 -29 c 1,28,29
 164 5 164 5 164 73 c 0,30,31
 164 78 164 78 164 93 c 1,32,33
 226 95 226 95 247 95 c 2,34,-1
 328 94 l 1,35,-1
 466 94 l 1,36,-1
 519 93 l 1,0,1
EndSplineSet
EndChar

StartChar: two
Encoding: 50 50 21
Width: 1365
VWidth: 2457
Flags: W
LayerCount: 2
Fore
SplineSet
1093 -28 m 1,0,1
 853 -3 853 -3 695 -3 c 0,2,3
 421 -3 421 -3 276 -24 c 0,4,5
 161 -41 161 -41 41 -79 c 1,6,7
 5 -4 5 -4 -32 32 c 1,8,9
 110 92 110 92 287 221 c 0,10,11
 493 371 493 371 758 600 c 0,12,13
 1046 850 1046 850 1143 985 c 0,14,15
 1229 1105 1229 1105 1229 1187 c 0,16,17
 1229 1221 1229 1221 1205 1245 c 0,18,19
 1183 1268 1183 1268 1150 1268 c 0,20,21
 1077 1268 1077 1268 982 1192 c 0,22,23
 849 1084 849 1084 688 816 c 1,24,25
 665 843 665 843 636 876 c 0,26,27
 605 910 605 910 586 932 c 1,28,29
 725 1118 725 1118 824 1216 c 0,30,31
 1001 1390 1001 1390 1169 1390 c 0,32,33
 1260 1390 1260 1390 1313 1331 c 0,34,35
 1359 1279 1359 1279 1359 1208 c 0,36,37
 1359 1044 1359 1044 1160 815 c 0,38,39
 999 630 999 630 610 315 c 0,40,41
 442 179 442 179 320 95 c 1,42,43
 366 99 366 99 505 112 c 0,44,45
 663 127 663 127 852 127 c 0,46,47
 919 127 919 127 1069 120 c 1,48,49
 1072 104 1072 104 1081 51 c 0,50,51
 1090 -6 1090 -6 1093 -28 c 1,0,1
EndSplineSet
EndChar

StartChar: three
Encoding: 51 51 22
Width: 1365
VWidth: 2457
Flags: W
LayerCount: 2
Fore
SplineSet
59 35 m 1,0,1
 59 47 59 47 59 54 c 0,2,3
 59 115 59 115 44 184 c 1,4,5
 206 100 206 100 408 100 c 0,6,7
 722 100 722 100 940 251 c 0,8,9
 1040 321 1040 321 1097 432 c 0,10,11
 1135 506 1135 506 1135 583 c 0,12,13
 1135 671 1135 671 1071 743 c 0,14,15
 970 856 970 856 750 856 c 0,16,17
 601 856 601 856 467 799 c 1,18,-1
 459 816 l 2,19,20
 443 852 443 852 415 902 c 1,21,22
 538 962 538 962 622 1011 c 2,23,-1
 1020 1244 l 1,24,25
 776 1218 776 1218 555 1218 c 0,26,27
 533 1218 533 1218 488 1219 c 1,28,-1
 486 1235 l 1,29,30
 475 1309 475 1309 467 1344 c 1,31,32
 552 1337 552 1337 651 1337 c 0,33,34
 1010 1337 1010 1337 1234 1398 c 1,35,36
 1239 1331 1239 1331 1270 1244 c 1,37,38
 1246 1231 1246 1231 1180 1194 c 1,39,-1
 1099 1152 l 1,40,-1
 770 961 l 1,41,42
 794 961 794 961 806 961 c 0,43,44
 954 961 954 961 1067 905 c 0,45,46
 1166 856 1166 856 1220 772 c 0,47,48
 1275 686 1275 686 1275 594 c 0,49,50
 1275 430 1275 430 1153 276 c 0,51,52
 1027 118 1027 118 792 36 c 0,53,54
 617 -25 617 -25 422 -25 c 0,55,56
 224 -25 224 -25 59 35 c 1,0,1
EndSplineSet
EndChar

StartChar: four
Encoding: 52 52 23
Width: 1365
VWidth: 2457
Flags: W
LayerCount: 2
Fore
SplineSet
712 -87 m 1,0,1
 692 -77 692 -77 642 -52 c 2,2,-1
 597 -30 l 1,3,-1
 579 -21 l 1,4,5
 645 105 645 105 688 205 c 0,6,7
 760 371 760 371 776 404 c 1,8,9
 729 405 729 405 705 405 c 0,10,11
 463 405 463 405 197 379 c 1,12,13
 180 401 180 401 150 443 c 0,14,15
 129 472 129 472 105 501 c 1,16,17
 269 604 269 604 407 709 c 0,18,19
 569 831 569 831 800 1023 c 0,20,21
 1038 1222 1038 1222 1175 1368 c 0,22,23
 1223 1419 1223 1419 1287 1489 c 1,24,25
 1299 1471 1299 1471 1323 1430 c 1,26,27
 1356 1379 1356 1379 1369 1358 c 1,28,29
 1318 1283 1318 1283 1218 1065 c 1,30,-1
 979 532 l 1,31,32
 1163 533 1163 533 1329 519 c 1,33,34
 1332 483 1332 483 1349 379 c 1,35,36
 1202 398 1202 398 918 404 c 1,37,38
 784 108 784 108 712 -87 c 1,0,1
834 531 m 1,39,40
 858 584 858 584 947 773 c 1,41,42
 1080 1060 1080 1060 1138 1173 c 1,43,44
 993 1035 993 1035 959 1004 c 0,45,46
 589 677 589 677 320 508 c 1,47,48
 618 527 618 527 834 531 c 1,39,40
EndSplineSet
EndChar

StartChar: five
Encoding: 53 53 24
Width: 1365
VWidth: 2457
Flags: W
LayerCount: 2
Fore
SplineSet
-18 19 m 1,0,1
 -19 37 -19 37 -27 89 c 0,2,3
 -34 141 -34 141 -39 163 c 1,4,5
 173 106 173 106 340 106 c 0,6,7
 645 106 645 106 885 255 c 0,8,9
 1014 336 1014 336 1082 461 c 0,10,11
 1129 547 1129 547 1129 651 c 0,12,13
 1129 788 1129 788 1045 851 c 0,14,15
 975 904 975 904 876 904 c 0,16,17
 716 904 716 904 460 789 c 1,18,19
 449 806 449 806 422 843 c 0,20,21
 401 872 401 872 378 895 c 1,22,23
 622 1112 622 1112 792 1378 c 1,24,25
 954 1358 954 1358 1090 1358 c 0,26,27
 1231 1358 1231 1358 1310 1367 c 1,28,29
 1316 1291 1316 1291 1335 1234 c 1,30,31
 1266 1230 1266 1230 1189 1230 c 0,32,33
 1067 1230 1067 1230 946 1239 c 0,34,35
 890 1244 890 1244 851 1245 c 1,36,37
 783 1139 783 1139 644 980 c 1,38,39
 733 1002 733 1002 764 1009 c 0,40,41
 833 1025 833 1025 903 1025 c 0,42,43
 1071 1025 1071 1025 1164 938 c 0,44,45
 1269 841 1269 841 1269 672 c 0,46,47
 1269 465 1269 465 1127 295 c 0,48,49
 986 127 986 127 746 40 c 0,50,51
 554 -29 554 -29 325 -29 c 0,52,53
 180 -29 180 -29 -18 19 c 1,0,1
EndSplineSet
EndChar

StartChar: six
Encoding: 54 54 25
Width: 1365
VWidth: 2457
Flags: W
LayerCount: 2
Fore
SplineSet
1388 1312 m 1,0,1
 1213 1250 1213 1250 983 1114 c 0,2,3
 603 888 603 888 390 627 c 0,4,5
 298 515 298 515 239 388 c 0,6,7
 199 301 199 301 199 220 c 0,8,9
 199 147 199 147 247 109 c 0,10,11
 289 75 289 75 362 75 c 0,12,13
 507 75 507 75 695 155 c 0,14,15
 911 247 911 247 1047 390 c 0,16,17
 1177 526 1177 526 1177 643 c 0,18,19
 1177 702 1177 702 1134 734 c 0,20,21
 1092 766 1092 766 1022 766 c 0,22,23
 862 766 862 766 691 666 c 0,24,25
 601 613 601 613 509 524 c 1,26,27
 506 553 506 553 497 609 c 0,28,29
 490 653 490 653 485 673 c 1,30,31
 590 755 590 755 696 806 c 0,32,33
 884 898 884 898 1046 898 c 0,34,35
 1182 898 1182 898 1253 821 c 0,36,37
 1314 756 1314 756 1314 662 c 0,38,39
 1314 498 1314 498 1165 333 c 0,40,41
 1007 159 1007 159 754 47 c 1,42,43
 525 -53 525 -53 325 -53 c 0,44,45
 182 -53 182 -53 110 29 c 0,46,47
 52 94 52 94 52 185 c 0,48,49
 52 450 52 450 365 786 c 0,50,51
 606 1046 606 1046 977 1261 c 0,52,53
 1139 1355 1139 1355 1281 1417 c 1,54,55
 1291 1407 1291 1407 1322 1376 c 0,56,57
 1367 1331 1367 1331 1388 1312 c 1,0,1
EndSplineSet
EndChar

StartChar: seven
Encoding: 55 55 26
Width: 1365
VWidth: 2457
Flags: W
LayerCount: 2
Fore
SplineSet
1466 828 m 1,0,1
 1326 835 1326 835 1155 835 c 0,2,3
 1058 835 1058 835 912 828 c 1,4,5
 741 666 741 666 471 319 c 1,6,7
 277 66 277 66 145 -166 c 1,8,9
 111 -134 111 -134 20 -79 c 1,10,11
 191 177 191 177 382 415 c 0,12,13
 594 680 594 680 743 827 c 1,14,15
 619 818 619 818 530 804 c 1,16,17
 509 906 509 906 493 949 c 1,18,19
 640 943 640 943 691 943 c 0,20,21
 726 943 726 943 868 947 c 1,22,23
 923 1004 923 1004 1062 1118 c 1,24,25
 1170 1205 1170 1205 1233 1248 c 1,26,27
 1053 1228 1053 1228 454 1214 c 1,28,29
 444 1294 444 1294 427 1367 c 1,30,31
 554 1356 554 1356 737 1356 c 0,32,33
 1069 1356 1069 1356 1272 1372 c 0,34,35
 1337 1378 1337 1378 1444 1402 c 1,36,37
 1451 1387 1451 1387 1464 1347 c 0,38,39
 1473 1321 1473 1321 1488 1288 c 1,40,41
 1410 1246 1410 1246 1278 1143 c 0,42,43
 1116 1016 1116 1016 1046 949 c 1,44,45
 1087 948 1087 948 1100 948 c 0,46,47
 1332 948 1332 948 1443 966 c 1,48,49
 1446 913 1446 913 1466 828 c 1,0,1
EndSplineSet
EndChar

StartChar: eight
Encoding: 56 56 27
Width: 1365
VWidth: 2457
Flags: W
LayerCount: 2
Fore
SplineSet
976 822 m 1,0,1
 1358 754 1358 754 1358 477 c 0,2,3
 1358 309 1358 309 1236 170 c 0,4,5
 1125 43 1125 43 903 -25 c 1,6,7
 727 -80 727 -80 538 -80 c 0,8,9
 376 -80 376 -80 238 -23 c 0,10,11
 134 21 134 21 75 108 c 0,12,13
 18 192 18 192 18 312 c 0,14,15
 18 582 18 582 289 729 c 0,16,17
 388 782 388 782 532 810 c 1,18,19
 474 839 474 839 448 866 c 0,20,21
 400 916 400 916 400 984 c 0,22,23
 400 1132 400 1132 558 1245 c 0,24,25
 717 1358 717 1358 919 1358 c 0,26,27
 1102 1358 1102 1358 1196 1263 c 0,28,29
 1262 1196 1262 1196 1262 1114 c 0,30,31
 1262 981 1262 981 1121 888 c 0,32,33
 1076 859 1076 859 976 822 c 1,0,1
914 1237 m 0,34,35
 763 1237 763 1237 634 1145 c 0,36,37
 528 1070 528 1070 528 981 c 0,38,39
 528 919 528 919 588 887 c 0,40,41
 643 857 643 857 719 857 c 0,42,43
 879 857 879 857 1025 942 c 0,44,45
 1130 1004 1130 1004 1130 1090 c 0,46,47
 1130 1154 1130 1154 1071 1198 c 1,48,49
 1017 1237 1017 1237 914 1237 c 0,34,35
776 740 m 0,50,51
 476 740 476 740 296 602 c 0,52,53
 155 493 155 493 155 332 c 0,54,55
 155 216 155 216 235 144 c 0,56,57
 286 99 286 99 383 73 c 0,58,59
 460 53 460 53 544 53 c 0,60,61
 831 53 831 53 1037 177 c 0,62,63
 1121 228 1121 228 1173 313 c 0,64,65
 1217 384 1217 384 1217 466 c 0,66,67
 1217 595 1217 595 1114 664 c 0,68,69
 1002 740 1002 740 776 740 c 0,50,51
EndSplineSet
EndChar

StartChar: nine
Encoding: 57 57 28
Width: 1365
VWidth: 2457
Flags: W
LayerCount: 2
Fore
SplineSet
267 -63 m 1,0,1
 253 -50 253 -50 209 -9 c 0,2,3
 170 26 170 26 156 40 c 1,4,5
 400 140 400 140 565 240 c 0,6,7
 943 470 943 470 1153 726 c 0,8,9
 1343 958 1343 958 1343 1140 c 0,10,11
 1343 1209 1343 1209 1291 1244 c 0,12,13
 1242 1277 1242 1277 1172 1277 c 0,14,15
 1033 1277 1033 1277 854 1201 c 0,16,17
 607 1096 607 1096 470 936 c 0,18,19
 365 813 365 813 365 709 c 0,20,21
 365 648 365 648 413 615 c 1,22,23
 456 587 456 587 517 587 c 0,24,25
 686 587 686 587 856 689 c 0,26,27
 927 731 927 731 1039 831 c 1,28,-1
 1042 808 l 1,29,-1
 1050 755 l 2,30,31
 1057 704 1057 704 1060 684 c 1,32,33
 981 615 981 615 883 564 c 0,34,35
 673 457 673 457 488 457 c 0,36,37
 356 457 356 457 286 536 c 1,38,39
 228 603 228 603 228 691 c 0,40,41
 228 860 228 860 394 1033 c 0,42,43
 557 1204 557 1204 810 1313 c 0,44,45
 1028 1406 1028 1406 1209 1406 c 0,46,47
 1337 1406 1337 1406 1416 1336 c 0,48,49
 1493 1268 1493 1268 1493 1166 c 0,50,51
 1493 990 1493 990 1344 768 c 0,52,53
 1205 560 1205 560 946 350 c 1,54,55
 743 184 743 184 477 43 c 0,56,57
 404 4 404 4 267 -63 c 1,0,1
EndSplineSet
EndChar

StartChar: colon
Encoding: 58 58 29
Width: 445
VWidth: 2457
Flags: W
LayerCount: 2
Fore
SplineSet
169 175 m 1,0,1
 140 108 140 108 67 -114 c 1,2,3
 34 -87 34 -87 -53 -28 c 1,4,5
 -11 71 -11 71 53 249 c 1,6,7
 80 228 80 228 169 175 c 1,0,1
476 869 m 1,8,9
 466 849 466 849 429 763 c 1,10,11
 371 633 371 633 308 547 c 1,12,13
 254 606 254 606 191 636 c 1,14,15
 314 821 314 821 352 963 c 1,16,17
 372 947 372 947 415 914 c 1,18,19
 448 887 448 887 476 869 c 1,8,9
EndSplineSet
EndChar

StartChar: semicolon
Encoding: 59 59 30
Width: 445
VWidth: 2457
Flags: W
LayerCount: 2
Fore
SplineSet
-94 -320 m 1,0,1
 -122 -294 -122 -294 -182 -245 c 1,2,3
 -42 -63 -42 -63 -12 4 c 1,4,5
 -35 24 -35 24 -68 67 c 1,6,7
 -1 145 -1 145 54 241 c 1,8,9
 111 191 111 191 184 150 c 1,10,11
 168 77 168 77 80 -85 c 0,12,13
 12 -209 12 -209 -94 -320 c 1,0,1
463 869 m 1,14,15
 399 724 399 724 369.5 667 c 128,-1,16
 340 610 340 610 294 547 c 1,17,18
 241 606 241 606 178 636 c 1,19,20
 301 822 301 822 339 963 c 1,21,22
 410 903 410 903 463 869 c 1,14,15
EndSplineSet
EndChar

StartChar: less
Encoding: 60 60 31
Width: 1024
VWidth: 2457
Flags: W
LayerCount: 2
Fore
SplineSet
1264 1165 m 1,0,-1
 1202 1022 l 1,1,-1
 324 689 l 1,2,-1
 913 356 l 1,3,-1
 851 213 l 1,4,-1
 143 627 l 1,5,-1
 197 752 l 1,6,-1
 1264 1165 l 1,0,-1
EndSplineSet
EndChar

StartChar: equal
Encoding: 61 61 32
Width: 1365
VWidth: 2457
Flags: W
LayerCount: 2
Fore
SplineSet
350 924 m 1,0,-1
 1437 924 l 1,1,-1
 1383 799 l 1,2,-1
 296 799 l 1,3,-1
 350 924 l 1,0,-1
194 566 m 1,4,-1
 1282 566 l 1,5,-1
 1227 441 l 1,6,-1
 140 441 l 1,7,-1
 194 566 l 1,4,-1
EndSplineSet
EndChar

StartChar: greater
Encoding: 62 62 33
Width: 1024
VWidth: 2457
Flags: W
LayerCount: 2
Fore
SplineSet
-37 213 m 1,0,-1
 25 356 l 1,1,-1
 903 689 l 1,2,-1
 315 1022 l 1,3,-1
 377 1165 l 1,4,-1
 1084 751 l 1,5,-1
 1030 626 l 1,6,-1
 -37 213 l 1,0,-1
EndSplineSet
EndChar

StartChar: question
Encoding: 63 63 34
Width: 700
VWidth: 2457
Flags: W
LayerCount: 2
Fore
SplineSet
297 154 m 1,0,1
 275 112 275 112 245 54 c 1,2,3
 206 -17 206 -17 184 -71 c 1,4,5
 168 -45 168 -45 132 10 c 0,6,7
 102 55 102 55 90 71 c 1,8,9
 150 164 150 164 211 281 c 1,10,11
 222 265 222 265 251 224 c 0,12,13
 282 179 282 179 297 154 c 1,0,1
257 298 m 1,14,15
 237 338 237 338 188 400 c 1,16,17
 278 491 278 491 360 575 c 0,18,19
 440 656 440 656 579 829 c 0,20,21
 820 1129 820 1129 820 1255 c 0,22,23
 820 1276 820 1276 808 1290 c 0,24,25
 793 1308 793 1308 767 1308 c 0,26,27
 701 1308 701 1308 567 1204 c 0,28,29
 504 1155 504 1155 338 985 c 1,30,-1
 308 955 l 1,31,-1
 301 975 l 2,32,33
 282 1032 282 1032 260 1084 c 1,34,35
 373 1203 373 1203 499 1298 c 0,36,37
 676 1433 676 1433 800 1433 c 0,38,39
 864 1433 864 1433 904 1390 c 0,40,41
 937 1354 937 1354 937 1288 c 0,42,43
 937 1153 937 1153 832 983 c 0,44,45
 625 646 625 646 257 298 c 1,14,15
EndSplineSet
EndChar

StartChar: at
Encoding: 64 64 35
Width: 1365
VWidth: 2457
Flags: W
LayerCount: 2
Fore
SplineSet
931 431 m 1,0,1
 1032 489 1032 489 1116 559 c 0,2,3
 1241 662 1241 662 1312 775 c 0,4,5
 1367 861 1367 861 1367 973 c 0,6,7
 1367 1123 1367 1123 1249 1213 c 0,8,9
 1158 1282 1158 1282 1015 1282 c 0,10,11
 705 1282 705 1282 461 974 c 0,12,13
 345 827 345 827 281 650 c 0,14,15
 227 499 227 499 227 361 c 0,16,17
 227 188 227 188 336 95 c 0,18,19
 423 21 423 21 554 21 c 0,20,21
 657 21 657 21 744 61 c 0,22,23
 836 104 836 104 955 196 c 1,24,25
 987 127 987 127 1013 93 c 1,26,27
 793 -80 793 -80 557 -80 c 0,28,29
 338 -80 338 -80 218 66 c 0,30,31
 121 184 121 184 121 371 c 0,32,33
 121 630 121 630 262 878 c 0,34,35
 412 1142 412 1142 658 1281 c 0,36,37
 835 1381 835 1381 1019 1381 c 0,38,39
 1208 1381 1208 1381 1340 1270 c 1,40,41
 1413 1210 1413 1210 1451 1124 c 0,42,43
 1481 1057 1481 1057 1481 986 c 0,44,45
 1481 716 1481 716 1184 471 c 0,46,47
 1085 389 1085 389 961 322 c 1,48,-1
 922 404 l 1,49,-1
 907 362 l 1,50,-1
 893 321 l 1,51,-1
 882 288 l 1,52,53
 853 291 853 291 813 296 c 1,54,55
 778 299 778 299 766 301 c 1,56,-1
 779 332 l 2,57,58
 843 485 843 485 881 580 c 1,59,60
 748 408 748 408 671 350 c 0,61,62
 596 293 596 293 535 293 c 0,63,64
 478 293 478 293 438 332 c 0,65,66
 410 360 410 360 410 406 c 0,67,68
 410 534 410 534 530 700 c 0,69,70
 693 926 693 926 1030 1093 c 1,71,72
 1035 1081 1035 1081 1050 1046 c 0,73,74
 1063 1016 1063 1016 1070 1006 c 1,75,76
 817 868 817 868 687 723 c 0,77,78
 595 621 595 621 549 511 c 0,79,80
 529 465 529 465 529 432 c 0,81,82
 529 392 529 392 563 392 c 0,83,84
 634 392 634 392 816 627 c 0,85,86
 944 791 944 791 1050 983 c 1,87,88
 1073 978 1073 978 1112 972 c 0,89,90
 1135 968 1135 968 1167 962 c 1,91,92
 1118 886 1118 886 1064 773 c 1,93,94
 1028 694 1028 694 960 510 c 2,95,-1
 931 431 l 1,0,1
EndSplineSet
EndChar

StartChar: A
Encoding: 65 65 36
Width: 1388
VWidth: 2457
Flags: W
LayerCount: 2
Fore
SplineSet
1203 -26 m 1,0,1
 1141 -39 1141 -39 1055 -73 c 1,2,3
 1052 -13 1052 -13 1052 43 c 0,4,5
 1052 181 1052 181 1063 543 c 1,6,-1
 1065 599 l 1,7,8
 995 594 995 594 883 587 c 0,9,10
 747 579 747 579 578 566 c 1,11,12
 544 528 544 528 388 350 c 0,13,14
 216 154 216 154 -20 -73 c 1,15,16
 -61 -10 -61 -10 -106 32 c 1,17,18
 -58 81 -58 81 86 216 c 1,19,20
 112 237 112 237 317 459 c 0,21,22
 357 502 357 502 403 554 c 1,23,24
 355 552 355 552 222 545 c 0,25,26
 90 539 90 539 44 536 c 1,27,28
 30 616 30 616 15 668 c 1,29,-1
 53 669 l 1,30,31
 269 670 269 670 521 687 c 1,32,-1
 584 762 l 1,33,34
 972 1218 972 1218 1128 1448 c 1,35,-1
 1147 1437 l 2,36,37
 1216 1396 1216 1396 1243 1386 c 1,38,39
 1211 1168 1211 1168 1199 791 c 1,40,-1
 1196 727 l 1,41,42
 1259 729 1259 729 1308 734 c 1,43,44
 1313 718 1313 718 1323 674 c 0,45,46
 1328 651 1328 651 1343 604 c 1,47,48
 1306 606 1306 606 1286 606 c 0,49,50
 1271 606 1271 606 1193 603 c 1,51,-1
 1193 530 l 1,52,-1
 1191 271 l 1,53,54
 1191 133 1191 133 1203 -26 c 1,0,1
1068 718 m 1,55,56
 1072 770 1072 770 1083 977 c 0,57,58
 1088 1060 1088 1060 1104 1216 c 1,59,60
 1064 1166 1064 1166 971 1047 c 1,61,62
 758 785 758 785 686 696 c 1,63,64
 729 697 729 697 875 706 c 1,65,66
 1023 714 1023 714 1068 718 c 1,55,56
EndSplineSet
EndChar

StartChar: B
Encoding: 66 66 37
Width: 1289
VWidth: 2457
Flags: W
LayerCount: 2
Fore
SplineSet
88 -49 m 1,0,1
 80 -43 80 -43 72 -37 c 0,2,3
 41 -14 41 -14 12 4 c 0,4,5
 -5 15 -5 15 -17 23 c 1,6,-1
 530 1252 l 1,7,8
 420 1244 420 1244 271 1208 c 1,9,10
 260 1256 260 1256 234 1319 c 1,11,12
 593 1381 593 1381 817 1381 c 0,13,14
 971 1381 971 1381 1057 1324 c 0,15,16
 1159 1257 1159 1257 1159 1142 c 0,17,18
 1159 1017 1159 1017 1042 940 c 0,19,20
 978 898 978 898 855 855 c 1,21,22
 985 836 985 836 1063 797 c 0,23,24
 1145 757 1145 757 1192 686 c 0,25,26
 1242 610 1242 610 1242 516 c 0,27,28
 1242 318 1242 318 1031 184 c 0,29,30
 891 94 891 94 682 49 c 1,31,32
 443 -4 443 -4 187 -15 c 1,33,34
 182 0 182 0 171 37 c 0,35,36
 163 67 163 67 149 97 c 1,37,38
 138 72 138 72 116 15 c 0,39,40
 114 9 114 9 88 -49 c 1,0,1
486 858 m 1,41,42
 678 890 678 890 825 946 c 1,43,44
 1029 1026 1029 1026 1029 1141 c 0,45,46
 1029 1274 1029 1274 782 1274 c 0,47,48
 735 1274 735 1274 666 1266 c 1,49,-1
 486 858 l 1,41,42
156 111 m 1,50,51
 191 110 191 110 208 110 c 0,52,53
 388 110 388 110 584 146 c 0,54,55
 836 192 836 192 968 286 c 1,56,57
 1111 386 1111 386 1111 520 c 0,58,59
 1111 648 1111 648 975 714 c 0,60,61
 880 760 880 760 742 760 c 0,62,63
 635 760 635 760 500 731 c 1,64,-1
 461 803 l 1,65,-1
 156 111 l 1,50,51
EndSplineSet
EndChar

StartChar: C
Encoding: 67 67 38
Width: 1086
VWidth: 2457
Flags: W
LayerCount: 2
Fore
SplineSet
1056 463 m 1,0,1
 923 263 923 263 763 117 c 0,2,3
 548 -79 548 -79 357 -79 c 0,4,5
 203 -79 203 -79 126 39 c 0,6,7
 71 123 71 123 71 242 c 0,8,9
 71 491 71 491 230 768 c 0,10,11
 422 1102 422 1102 744 1262 c 0,12,13
 938 1358 938 1358 1198 1389 c 1,14,-1
 1203 1371 l 1,15,16
 1225 1288 1225 1288 1242 1249 c 1,17,18
 1050 1249 1050 1249 866 1178 c 0,19,20
 656 1098 656 1098 516 949 c 1,21,22
 363 788 363 788 276 578 c 0,23,24
 206 409 206 409 206 263 c 0,25,26
 206 165 206 165 251 112 c 0,27,28
 294 61 294 61 365 61 c 0,29,30
 531 61 531 61 741 279 c 0,31,32
 844 385 844 385 955 549 c 1,33,34
 966 540 966 540 999 509 c 1,35,36
 1042 475 1042 475 1056 463 c 1,0,1
EndSplineSet
EndChar

StartChar: D
Encoding: 68 68 39
Width: 1258
VWidth: 2457
Flags: W
LayerCount: 2
Fore
SplineSet
-123 -82 m 1,0,1
 -155 19 -155 19 -169 49 c 1,2,-1
 -143 50 l 1,3,4
 -16 52 -16 52 14 55 c 1,5,-1
 520 1235 l 1,6,7
 430 1227 430 1227 307 1198 c 1,8,9
 303 1212 303 1212 294 1255 c 0,10,11
 292 1264 292 1264 275 1324 c 1,12,13
 366 1340 366 1340 409 1347 c 0,14,15
 537 1368 537 1368 661 1368 c 0,16,17
 912 1368 912 1368 1060 1267 c 0,18,19
 1160 1199 1160 1199 1215 1095 c 0,20,21
 1275 981 1275 981 1275 842 c 0,22,23
 1275 547 1275 547 1075 314 c 0,24,25
 929 143 929 143 697 61 c 0,26,27
 318 -73 318 -73 -123 -82 c 1,0,1
163 71 m 1,28,29
 478 104 478 104 721 214 c 0,30,31
 925 306 925 306 1035 489 c 1,32,33
 1136 655 1136 655 1136 830 c 0,34,35
 1136 975 1136 975 1052 1088 c 0,36,37
 974 1193 974 1193 815 1224 c 0,38,39
 754 1236 754 1236 655 1236 c 1,40,-1
 163 71 l 1,28,29
EndSplineSet
EndChar

StartChar: E
Encoding: 69 69 40
Width: 1209
VWidth: 2457
Flags: W
LayerCount: 2
Fore
SplineSet
1145 11 m 1,0,1
 1039 14 1039 14 988 14 c 0,2,3
 738 14 738 14 330 -6 c 0,4,5
 65 -19 65 -19 -114 -42 c 1,6,7
 -126 20 -126 20 -148 85 c 1,8,-1
 -120 88 l 2,9,10
 5 101 5 101 44 103 c 1,11,-1
 353 821 l 1,12,13
 335 819 335 819 292 818 c 0,14,15
 286 818 286 818 250 816 c 2,16,-1
 227 815 l 1,17,18
 220 863 220 863 190 941 c 1,19,20
 239 940 239 940 275 940 c 0,21,22
 305 940 305 940 406 944 c 1,23,-1
 533 1239 l 1,24,25
 511 1239 511 1239 504 1239 c 0,26,27
 454 1239 454 1239 425 1234 c 1,28,29
 417 1280 417 1280 392 1373 c 1,30,31
 627 1367 627 1367 710 1367 c 0,32,33
 943 1367 943 1367 1113 1373 c 1,34,35
 1131 1306 1131 1306 1161 1238 c 1,36,37
 992 1246 992 1246 890 1246 c 0,38,39
 746 1246 746 1246 662 1243 c 1,40,-1
 533 944 l 1,41,42
 824 951 824 951 1089 972 c 1,43,44
 1099 913 1099 913 1124 847 c 1,45,-1
 1063 845 l 1,46,-1
 886 839 l 1,47,-1
 685 832 l 2,48,49
 525 827 525 827 485 825 c 1,50,-1
 179 109 l 1,51,-1
 259 114 l 1,52,53
 748 141 748 141 993 141 c 0,54,55
 1027 141 1027 141 1100 140 c 1,56,57
 1132 39 1132 39 1145 11 c 1,0,1
EndSplineSet
EndChar

StartChar: F
Encoding: 70 70 41
Width: 894
VWidth: 2457
Flags: W
LayerCount: 2
Fore
SplineSet
145 -54 m 1,0,1
 96 -20 96 -20 25 20 c 1,2,-1
 352 796 l 1,3,4
 234 790 234 790 189 783 c 1,5,6
 185 796 185 796 169 851 c 0,7,8
 164 871 164 871 145 915 c 1,9,10
 207 914 207 914 241 914 c 0,11,12
 307 914 307 914 400 917 c 1,13,-1
 531 1232 l 1,14,15
 472 1232 472 1232 428 1229 c 1,16,17
 424 1249 424 1249 412 1299 c 0,18,19
 408 1316 408 1316 398 1365 c 1,20,21
 537 1358 537 1358 816 1358 c 0,22,23
 1048 1358 1048 1358 1200 1361 c 1,24,-1
 1205 1348 l 2,25,26
 1228 1286 1228 1286 1257 1220 c 1,27,28
 1197 1222 1197 1222 1021 1226 c 2,29,-1
 864 1229 l 1,30,-1
 736 1232 l 1,31,-1
 671 1233 l 1,32,-1
 541 919 l 1,33,34
 705 916 705 916 961 937 c 1,35,36
 974 891 974 891 1004 807 c 1,37,38
 931 811 931 811 870 811 c 0,39,40
 758 811 758 811 489 796 c 1,41,-1
 191 83 l 1,42,43
 166 8 166 8 145 -54 c 1,0,1
EndSplineSet
EndChar

StartChar: G
Encoding: 71 71 42
Width: 1329
VWidth: 2457
Flags: W
LayerCount: 2
Fore
SplineSet
757 -518 m 1,0,-1
 738 -500 l 2,1,2
 704 -468 704 -468 677 -445 c 0,3,4
 661 -431 661 -431 649 -419 c 1,5,-1
 960 262 l 1,6,7
 872 162 872 162 777 94 c 1,8,9
 588 -38 588 -38 430 -38 c 0,10,11
 287 -38 287 -38 195 80 c 0,12,13
 112 185 112 185 112 349 c 0,14,15
 112 599 112 599 280 854 c 0,16,17
 518 1215 518 1215 894 1336 c 0,18,19
 1100 1402 1100 1402 1328 1411 c 1,20,21
 1335 1395 1335 1395 1357 1337 c 0,22,23
 1362 1324 1362 1324 1392 1259 c 1,24,25
 1317 1266 1317 1266 1265 1266 c 0,26,27
 927 1266 927 1266 641 1053 c 0,28,29
 423 890 423 890 315 658 c 0,30,31
 245 509 245 509 245 365 c 0,32,33
 245 229 245 229 312 155 c 0,34,35
 369 93 369 93 451 93 c 0,36,37
 602 93 602 93 792 255 c 0,38,39
 1040 467 1040 467 1149 742 c 1,40,41
 785 666 785 666 559 660 c 1,42,43
 550 756 550 756 536 789 c 1,44,45
 749 798 749 798 920 822 c 1,46,47
 1165 859 1165 859 1281 900 c 1,48,49
 1303 871 1303 871 1363 814 c 1,50,51
 1286 734 1286 734 1123 359 c 0,52,53
 962 -11 962 -11 757 -518 c 1,0,-1
EndSplineSet
EndChar

StartChar: H
Encoding: 72 72 43
Width: 1374
VWidth: 2457
Flags: W
LayerCount: 2
Fore
SplineSet
964 -64 m 1,0,1
 935 -43 935 -43 908 -25 c 0,2,3
 869 1 869 1 851 14 c 1,4,-1
 883 89 l 1,5,-1
 982 320 l 1,6,7
 1133 688 1133 688 1168 779 c 1,8,-1
 1092 778 l 1,9,10
 764 771 764 771 562 765 c 1,11,-1
 485 762 l 1,12,-1
 456 696 l 2,13,14
 307 355 307 355 128 -64 c 1,15,16
 107 -50 107 -50 71 -23 c 1,17,18
 42 -3 42 -3 16 14 c 1,19,-1
 49 88 l 2,20,21
 168 355 168 355 229 498 c 1,22,23
 311 695 311 695 340 759 c 1,24,25
 277 759 277 759 198 749 c 1,26,27
 203 800 203 800 203 836 c 0,28,29
 203 851 203 851 202 888 c 1,30,31
 236 885 236 885 267 885 c 0,32,33
 335 885 335 885 394 888 c 1,34,35
 532 1192 532 1192 615 1399 c 1,36,37
 630 1388 630 1388 672 1359 c 0,38,39
 702 1339 702 1339 728 1322 c 1,40,41
 671 1197 671 1197 565 945 c 2,42,-1
 541 888 l 1,43,44
 706 889 706 889 1157 906 c 1,45,-1
 1222 908 l 1,46,-1
 1253 983 l 1,47,48
 1400 1335 1400 1335 1423 1399 c 1,49,50
 1469 1362 1469 1362 1541 1322 c 1,51,52
 1325 835 1325 835 964 -64 c 1,0,1
EndSplineSet
EndChar

StartChar: I
Encoding: 73 73 44
Width: 527
VWidth: 2457
Flags: W
LayerCount: 2
Fore
SplineSet
119 -58 m 1,0,1
 74 -24 74 -24 60 -14 c 0,2,3
 19 14 19 14 7 24 c 1,4,5
 29 73 29 73 120 289 c 0,6,7
 510 1220 510 1220 582 1401 c 1,8,9
 615 1366 615 1366 694 1310 c 1,10,-1
 678 1272 l 1,11,-1
 551 976 l 1,12,-1
 384 580 l 1,13,-1
 237 230 l 1,14,-1
 132 -27 l 1,15,-1
 119 -58 l 1,0,1
EndSplineSet
EndChar

StartChar: J
Encoding: 74 74 45
Width: 650
VWidth: 2457
Flags: W
LayerCount: 2
Fore
SplineSet
1120 1285 m 1,0,1
 1054 1278 1054 1278 956 1273 c 0,2,3
 865 1269 865 1269 780 1263 c 1,4,-1
 370 295 l 2,5,6
 279 81 279 81 187 -9 c 0,7,8
 40 -152 40 -152 -169 -152 c 0,9,10
 -260 -152 -260 -152 -354 -125 c 1,11,12
 -338 -78 -338 -78 -315 9 c 1,13,14
 -205 -21 -205 -21 -149 -21 c 0,15,16
 91 -21 91 -21 233 316 c 2,17,-1
 628 1256 l 1,18,19
 576 1254 576 1254 437 1245 c 1,20,21
 329 1240 329 1240 288 1238 c 1,22,23
 278 1334 278 1334 273 1364 c 1,24,25
 789 1376 789 1376 1117 1407 c 1,26,27
 1116 1387 1116 1387 1116 1380 c 0,28,29
 1116 1324 1116 1324 1120 1285 c 1,0,1
EndSplineSet
EndChar

StartChar: K
Encoding: 75 75 46
Width: 1168
VWidth: 2457
Flags: W
LayerCount: 2
Fore
SplineSet
1123 -214 m 1,0,1
 1079 -227 1079 -227 982 -264 c 1,2,3
 866 -84 866 -84 738 196 c 0,4,5
 629 435 629 435 523 724 c 1,6,7
 505 709 505 709 469 683 c 1,8,-1
 430 653 l 1,9,-1
 411 638 l 1,10,-1
 164 91 l 2,11,12
 125 3 125 3 98 -57 c 1,13,-1
 85 -46 l 1,14,15
 53 -17 53 -17 21 4 c 0,16,17
 2 17 2 17 -10 27 c 1,18,-1
 607 1399 l 1,19,20
 642 1372 642 1372 721 1332 c 1,21,-1
 706 1298 l 1,22,23
 667 1217 667 1217 630 1135 c 2,24,-1
 503 854 l 1,25,26
 658 959 658 959 940 1143 c 1,27,28
 1221 1325 1221 1325 1362 1410 c 1,29,30
 1377 1320 1377 1320 1399 1264 c 1,31,32
 1288 1209 1288 1209 1004 1036 c 0,33,34
 742 877 742 877 630 799 c 1,35,36
 832 196 832 196 1123 -214 c 1,0,1
EndSplineSet
EndChar

StartChar: L
Encoding: 76 76 47
Width: 876
VWidth: 2457
Flags: W
LayerCount: 2
Fore
SplineSet
770 -22 m 1,0,1
 640 -13 640 -13 492 -13 c 0,2,3
 222 -13 222 -13 -51 -32 c 1,4,5
 -48 -7 -48 -7 -48 17 c 0,6,7
 -48 52 -48 52 -51 87 c 1,8,9
 -45 87 -45 87 -44 87 c 0,10,11
 -39 87 -39 87 -16 89 c 0,12,13
 -10 89 -10 89 -5 89 c 0,14,15
 3 89 3 89 17 87 c 1,16,17
 53 173 53 173 142 369 c 0,18,19
 223 547 223 547 360 859 c 0,20,21
 406 962 406 962 451 1063 c 0,22,23
 531 1241 531 1241 591 1383 c 1,24,-1
 609 1427 l 1,25,26
 624 1417 624 1417 665 1389 c 0,27,28
 693 1371 693 1371 722 1357 c 1,29,30
 696 1295 696 1295 620 1133 c 0,31,32
 573 1035 573 1035 403 656 c 1,33,34
 211 225 211 225 157 100 c 1,35,36
 368 114 368 114 627 114 c 0,37,38
 682 114 682 114 759 110 c 1,39,40
 760 26 760 26 770 -22 c 1,0,1
EndSplineSet
EndChar

StartChar: M
Encoding: 77 77 48
Width: 1841
VWidth: 2457
Flags: W
LayerCount: 2
Fore
SplineSet
1706 -76 m 1,0,1
 1681 -81 1681 -81 1648 -95 c 1,2,3
 1605 -115 1605 -115 1577 -133 c 1,4,5
 1575 -64 1575 -64 1575 -36 c 0,6,7
 1575 102 1575 102 1597 586 c 0,8,9
 1610 869 1610 869 1623 1020 c 1,10,11
 1580 957 1580 957 1436 760 c 1,12,13
 1047 213 1047 213 797 -103 c 1,14,-1
 653 -116 l 1,15,16
 695 -24 695 -24 695 61 c 0,17,18
 695 121 695 121 688 254 c 0,19,20
 677 464 677 464 677 703 c 0,21,22
 677 852 677 852 688 1020 c 1,23,24
 494 610 494 610 23 -60 c 1,25,-1
 -26 -130 l 1,26,27
 -75 -83 -75 -83 -139 -37 c 1,28,29
 11 145 11 145 196 419 c 0,30,31
 421 752 421 752 592 1084 c 0,32,33
 673 1243 673 1243 714 1368 c 1,34,35
 789 1324 789 1324 831 1303 c 1,36,37
 801 1115 801 1115 801 798 c 0,38,39
 801 743 801 743 808 450 c 0,40,41
 813 214 813 214 820 134 c 1,42,43
 939 270 939 270 1332 828 c 1,44,45
 1639 1267 1639 1267 1690 1368 c 1,46,47
 1745 1325 1745 1325 1782 1303 c 1,48,49
 1745 1188 1745 1188 1732 947 c 0,50,51
 1703 384 1703 384 1703 79 c 0,52,53
 1703 12 1703 12 1706 -76 c 1,0,1
EndSplineSet
EndChar

StartChar: N
Encoding: 78 78 49
Width: 1371
VWidth: 2457
Flags: W
LayerCount: 2
Fore
SplineSet
954 -63 m 1,0,1
 941 -56 941 -56 905 -31 c 0,2,3
 887 -19 887 -19 858 -6 c 1,4,5
 860 13 860 13 860 23 c 0,6,7
 860 65 860 65 826 164 c 1,8,9
 666 613 666 613 597 1084 c 1,10,-1
 203 196 l 1,11,-1
 163 107 l 1,12,-1
 137 40 l 1,13,14
 105 -36 105 -36 96 -63 c 1,15,16
 49 -22 49 -22 -15 11 c 1,17,-1
 467 1106 l 1,18,19
 529 1257 529 1257 540 1288 c 1,20,21
 550 1322 550 1322 555 1384 c 1,22,23
 583 1390 583 1390 696 1434 c 1,24,25
 700 1136 700 1136 787 763 c 1,26,27
 878 380 878 380 939 238 c 1,28,-1
 1147 701 l 2,29,30
 1291 1020 1291 1020 1346 1149 c 0,31,32
 1441 1368 1441 1368 1460 1411 c 1,33,34
 1477 1397 1477 1397 1520 1360 c 0,35,36
 1544 1340 1544 1340 1569 1324 c 1,37,38
 1465 1108 1465 1108 1310 762 c 0,39,40
 972 10 972 10 954 -63 c 1,0,1
EndSplineSet
EndChar

StartChar: O
Encoding: 79 79 50
Width: 1373
VWidth: 2457
Flags: W
LayerCount: 2
Fore
SplineSet
1010 1381 m 0,0,1
 1184 1381 1184 1381 1297 1270 c 0,2,3
 1415 1154 1415 1154 1415 948 c 0,4,5
 1415 704 1415 704 1275 444 c 1,6,7
 1133 178 1133 178 917 34 c 1,8,9
 744 -80 744 -80 554 -80 c 0,10,11
 434 -80 434 -80 332 -25 c 0,12,13
 222 35 222 35 171 147 c 0,14,15
 124 249 124 249 124 369 c 0,16,17
 124 630 124 630 264 878 c 0,18,19
 410 1136 410 1136 662 1280 c 0,20,21
 837 1381 837 1381 1010 1381 c 0,0,1
985 1252 m 0,22,23
 836 1252 836 1252 677 1145 c 1,24,25
 477 1012 477 1012 354 761 c 0,26,27
 255 559 255 559 255 375 c 0,28,29
 255 210 255 210 359 122 c 0,30,31
 442 51 442 51 567 51 c 0,32,33
 726 51 726 51 882 167 c 0,34,35
 1073 308 1073 308 1192 576 c 0,36,37
 1275 762 1275 762 1275 938 c 0,38,39
 1275 1102 1275 1102 1186 1185 c 0,40,41
 1115 1252 1115 1252 985 1252 c 0,22,23
EndSplineSet
EndChar

StartChar: P
Encoding: 80 80 51
Width: 991
VWidth: 2457
Flags: W
LayerCount: 2
Fore
SplineSet
116 -55 m 1,0,1
 37 2 37 2 0 19 c 1,2,3
 30 71 30 71 94 224 c 1,4,-1
 507 1245 l 1,5,6
 414 1236 414 1236 236 1200 c 1,7,8
 222 1255 222 1255 191 1319 c 1,9,10
 334 1340 334 1340 404 1350 c 0,11,12
 630 1382 630 1382 777 1382 c 0,13,14
 952 1382 952 1382 1060 1320 c 0,15,16
 1113 1289 1113 1289 1144 1235 c 0,17,18
 1176 1180 1176 1180 1176 1112 c 0,19,20
 1176 899 1176 899 896 761 c 0,21,22
 754 691 754 691 468 608 c 1,23,-1
 425 706 l 1,24,-1
 116 -55 l 1,0,1
436 729 m 1,25,26
 631 771 631 771 807 850 c 0,27,28
 918 900 918 900 986 970 c 0,29,30
 1046 1032 1046 1032 1046 1103 c 0,31,32
 1046 1194 1046 1194 954 1238 c 0,33,34
 886 1270 886 1270 776 1270 c 0,35,36
 723 1270 723 1270 652 1261 c 1,37,-1
 436 729 l 1,25,26
EndSplineSet
EndChar

StartChar: Q
Encoding: 81 81 52
Width: 1372
VWidth: 2457
Flags: W
LayerCount: 2
Fore
SplineSet
1344 -388 m 1,0,1
 1329 -395 1329 -395 1244 -430 c 1,2,-1
 1221 -440 l 1,3,4
 1065 -252 1065 -252 915 37 c 1,5,6
 741 -77 741 -77 559 -77 c 0,7,8
 351 -77 351 -77 230 68 c 0,9,10
 122 197 122 197 122 379 c 0,11,12
 122 641 122 641 283 905 c 0,13,14
 437 1158 437 1158 666 1287 c 0,15,16
 836 1383 836 1383 1010 1383 c 0,17,18
 1209 1383 1209 1383 1322 1248 c 0,19,20
 1419 1132 1419 1132 1419 965 c 0,21,22
 1419 708 1419 708 1267 432 c 0,23,24
 1168 252 1168 252 1019 117 c 1,25,26
 1182 -193 1182 -193 1344 -388 c 1,0,1
857 153 m 1,27,28
 767 333 767 333 673 638 c 1,29,30
 689 649 689 649 734 683 c 1,31,32
 773 710 773 710 788 722 c 1,33,34
 866 442 866 442 963 237 c 1,35,36
 1075 357 1075 357 1135 462 c 1,37,38
 1279 708 1279 708 1279 952 c 0,39,40
 1279 1042 1279 1042 1238 1121 c 0,41,42
 1170 1252 1170 1252 1005 1252 c 0,43,44
 723 1252 723 1252 493 978 c 0,45,46
 390 856 390 856 325 702 c 1,47,48
 253 536 253 536 253 388 c 0,49,50
 253 297 253 297 297 212 c 0,51,52
 338 133 338 133 410 91 c 0,53,54
 478 52 478 52 559 52 c 0,55,56
 711 52 711 52 857 153 c 1,27,28
EndSplineSet
EndChar

StartChar: R
Encoding: 82 82 53
Width: 1270
VWidth: 2457
Flags: W
LayerCount: 2
Fore
SplineSet
1335 -212 m 1,0,1
 1285 -246 1285 -246 1205 -287 c 1,2,3
 889 31 889 31 452 749 c 1,4,-1
 174 118 l 2,5,6
 151 65 151 65 129 11 c 0,7,8
 113 -28 113 -28 96 -66 c 1,9,10
 79 -55 79 -55 38 -24 c 1,11,12
 2 0 2 0 -12 11 c 1,13,-1
 531 1238 l 1,14,15
 394 1229 394 1229 227 1177 c 1,16,17
 216 1220 216 1220 188 1300 c 1,18,19
 505 1366 505 1366 803 1366 c 0,20,21
 991 1366 991 1366 1091 1314 c 0,22,23
 1217 1248 1217 1248 1217 1127 c 0,24,25
 1217 1010 1217 1010 1107 919 c 0,26,27
 998 828 998 828 616 719 c 1,28,29
 948 143 948 143 1335 -212 c 1,0,1
480 815 m 1,30,31
 685 846 685 846 858 918 c 0,32,33
 1083 1011 1083 1011 1083 1124 c 0,34,35
 1083 1195 1083 1195 987 1229 c 0,36,37
 900 1260 900 1260 793 1260 c 0,38,39
 745 1260 745 1260 671 1253 c 1,40,-1
 480 815 l 1,30,31
EndSplineSet
EndChar

StartChar: S
Encoding: 83 83 54
Width: 1483
VWidth: 2457
Flags: W
LayerCount: 2
Fore
SplineSet
1029 866 m 1,0,1
 1010 888 1010 888 988 913 c 0,2,3
 960 946 960 946 940 966 c 1,4,5
 962 973 962 973 989 981 c 0,6,7
 1174 1034 1174 1034 1304 1084 c 0,8,9
 1452 1141 1452 1141 1452 1192 c 0,10,11
 1452 1254 1452 1254 1257 1254 c 0,12,13
 1109 1254 1109 1254 913 1210 c 0,14,15
 710 1164 710 1164 586 1092 c 0,16,17
 530 1059 530 1059 492 1009 c 0,18,19
 472 982 472 982 472 957 c 0,20,21
 472 911 472 911 545 885 c 0,22,23
 575 875 575 875 722 849 c 0,24,25
 1086 786 1086 786 1194 746 c 256,26,27
 1302 706 1302 706 1355 652 c 0,28,29
 1420 585 1420 585 1420 485 c 0,30,31
 1420 342 1420 342 1280 234 c 0,32,33
 1124 113 1124 113 814 31 c 0,34,35
 525 -45 525 -45 278 -45 c 0,36,37
 96 -45 96 -45 0 20 c 1,38,39
 -88 78 -88 78 -88 167 c 0,40,41
 -88 315 -88 315 120 421 c 0,42,43
 303 515 303 515 596 552 c 0,44,45
 706 566 706 566 862 580 c 1,46,47
 867 564 867 564 885 520 c 1,48,49
 907 471 907 471 916 454 c 1,50,51
 687 451 687 451 571 433 c 0,52,53
 319 396 319 396 191 330 c 0,54,55
 120 293 120 293 75 247 c 0,56,57
 41 211 41 211 41 179 c 0,58,59
 41 127 41 127 116 95 c 0,60,61
 174 70 174 70 291 70 c 0,62,63
 501 70 501 70 734 129 c 0,64,65
 919 175 919 175 1062 242 c 0,66,67
 1290 349 1290 349 1290 482 c 0,68,69
 1290 585 1290 585 1114 644 c 0,70,71
 1029 673 1029 673 683 736 c 0,72,73
 482 772 482 772 419 808 c 0,74,75
 334 857 334 857 334 941 c 0,76,77
 334 1059 334 1059 472 1161 c 0,78,79
 611 1263 611 1263 871 1320 c 0,80,81
 1075 1364 1075 1364 1249 1364 c 0,82,83
 1415 1364 1415 1364 1506 1319 c 0,84,85
 1587 1279 1587 1279 1587 1204 c 0,86,87
 1587 1116 1587 1116 1477 1042 c 0,88,89
 1347 955 1347 955 1029 866 c 1,0,1
EndSplineSet
EndChar

StartChar: T
Encoding: 84 84 55
Width: 900
VWidth: 2457
Flags: W
LayerCount: 2
Fore
SplineSet
273 -94 m 1,0,1
 227 -56 227 -56 214 -46 c 0,2,3
 175 -16 175 -16 158 -2 c 1,4,-1
 730 1255 l 1,5,6
 663 1251 663 1251 510 1240 c 0,7,8
 389 1232 389 1232 302 1230 c 1,9,10
 296 1318 296 1318 290 1356 c 1,11,12
 983 1390 983 1390 1262 1423 c 1,13,14
 1260 1380 1260 1380 1260 1357 c 0,15,16
 1260 1325 1260 1325 1266 1292 c 1,17,18
 1091 1286 1091 1286 875 1267 c 1,19,-1
 354 102 l 2,20,21
 348 90 348 90 327 37 c 0,22,23
 315 8 315 8 301 -25 c 0,24,25
 283 -66 283 -66 273 -94 c 1,0,1
EndSplineSet
EndChar

StartChar: U
Encoding: 85 85 56
Width: 1260
VWidth: 2457
Flags: W
LayerCount: 2
Fore
SplineSet
831 -74 m 1,0,1
 767 -21 767 -21 722 11 c 1,2,3
 762 103 762 103 846 289 c 0,4,5
 932 480 932 480 1067 799 c 1,6,7
 876 564 876 564 570 292 c 1,8,9
 436 169 436 169 102 -74 c 1,10,11
 92 -64 92 -64 51 -14 c 1,12,13
 16 20 16 20 2 34 c 1,14,15
 44 125 44 125 231 578 c 1,16,-1
 348 865 l 1,17,18
 509 1250 509 1250 572 1410 c 1,19,20
 589 1393 589 1393 630 1359 c 0,21,22
 666 1328 666 1328 683 1315 c 1,23,24
 522 974 522 974 192 154 c 1,25,26
 310 232 310 232 565 456 c 1,27,28
 792 653 792 653 990 882 c 1,29,30
 1147 1062 1147 1062 1325 1394 c 1,31,32
 1369 1347 1369 1347 1430 1294 c 1,33,-1
 1407 1243 l 2,34,35
 1291 986 1291 986 1187 747 c 1,36,37
 1084 513 1084 513 932 171 c 0,38,39
 888 74 888 74 831 -74 c 1,0,1
EndSplineSet
EndChar

StartChar: V
Encoding: 86 86 57
Width: 1106
VWidth: 2457
Flags: W
LayerCount: 2
Fore
SplineSet
1441 1326 m 1,0,1
 1177 1065 1177 1065 883 630 c 0,2,3
 671 318 671 318 586 143 c 0,4,5
 547 63 547 63 493 -77 c 1,6,-1
 386 -24 l 1,7,8
 392 34 392 34 392 88 c 0,9,10
 392 363 392 363 331 777 c 0,11,12
 270 1194 270 1194 225 1382 c 1,13,14
 300 1407 300 1407 364 1439 c 1,15,16
 394 1298 394 1298 460 817 c 1,17,18
 505 474 505 474 516 253 c 1,19,20
 654 526 654 526 951 941 c 0,21,22
 1102 1153 1102 1153 1348 1439 c 1,23,24
 1374 1404 1374 1404 1427 1342 c 2,25,-1
 1441 1326 l 1,0,1
EndSplineSet
EndChar

StartChar: W
Encoding: 87 87 58
Width: 1861
VWidth: 2457
Flags: W
LayerCount: 2
Fore
SplineSet
2203 1347 m 1,0,1
 1911 1083 1911 1083 1557 546 c 1,2,3
 1332 200 1332 200 1216 -107 c 1,4,-1
 1096 -59 l 1,5,6
 1098 -18 1098 -18 1098 -10 c 0,7,8
 1098 3 1098 3 1093 192 c 0,9,10
 1092 227 1092 227 1092 271 c 0,11,12
 1092 705 1092 705 1141 1063 c 1,13,14
 987 847 987 847 754 430 c 1,15,16
 624 193 624 193 573 71 c 0,17,18
 537 -14 537 -14 509 -107 c 1,19,-1
 408 -45 l 1,20,21
 412 24 412 24 412 91 c 0,22,23
 412 345 412 345 372 764 c 0,24,25
 333 1165 333 1165 293 1359 c 1,26,27
 373 1380 373 1380 419 1405 c 1,28,29
 464 1151 464 1151 496 814 c 0,30,31
 512 643 512 643 525 418 c 0,32,33
 530 326 530 326 534 264 c 1,34,35
 679 544 679 544 880 876 c 0,36,37
 1005 1083 1005 1083 1216 1389 c 1,38,39
 1257 1349 1257 1349 1321 1307 c 1,40,41
 1278 1193 1278 1193 1256 1011 c 0,42,43
 1212 654 1212 654 1212 323 c 0,44,45
 1212 258 1212 258 1219 191 c 1,46,47
 1301 348 1301 348 1459 597 c 1,48,49
 1681 942 1681 942 1885 1185 c 1,50,51
 2040 1372 2040 1372 2121 1461 c 1,52,53
 2146 1426 2146 1426 2189 1366 c 2,54,-1
 2203 1347 l 1,0,1
EndSplineSet
EndChar

StartChar: X
Encoding: 88 88 59
Width: 1272
VWidth: 2457
Flags: W
LayerCount: 2
Fore
SplineSet
1297 -372 m 1,0,1
 1143 -209 1143 -209 970 45 c 1,2,3
 816 273 816 273 666 557 c 1,4,5
 625 515 625 515 500 384 c 0,6,7
 149 17 149 17 -28 -144 c 1,8,9
 -34 -128 -34 -128 -51 -72 c 0,10,11
 -57 -53 -57 -53 -78 8 c 1,12,13
 157 211 157 211 297 352 c 1,14,15
 551 615 551 615 605 681 c 1,16,17
 520 839 520 839 338 1360 c 1,18,19
 352 1373 352 1373 407 1420 c 1,20,21
 430 1442 430 1442 454 1465 c 0,22,23
 464 1474 464 1474 473 1483 c 1,24,25
 489 1359 489 1359 535 1217 c 0,26,27
 616 972 616 972 702 788 c 1,28,29
 835 938 835 938 1011 1147 c 0,30,31
 1067 1215 1067 1215 1187 1361 c 0,32,33
 1214 1394 1214 1394 1254 1442 c 1,34,35
 1286 1364 1286 1364 1325 1308 c 1,36,37
 1218 1188 1218 1188 959 888 c 1,38,-1
 802 711 l 2,39,40
 781 687 781 687 761 662 c 1,41,42
 923 355 923 355 1056 149 c 1,43,44
 1206 -79 1206 -79 1379 -255 c 1,45,46
 1365 -280 1365 -280 1342 -310 c 0,47,48
 1315 -347 1315 -347 1297 -372 c 1,0,1
EndSplineSet
EndChar

StartChar: Y
Encoding: 89 89 60
Width: 1040
VWidth: 2457
Flags: W
LayerCount: 2
Fore
SplineSet
1308 1354 m 1,0,1
 1299 1341 1299 1341 1290 1329 c 0,2,3
 1159 1153 1159 1153 874 585 c 0,4,5
 639 115 639 115 466 -354 c 1,6,7
 451 -346 451 -346 405 -317 c 1,8,9
 359 -291 359 -291 342 -281 c 1,10,11
 439 -16 439 -16 651 428 c 0,12,13
 782 701 782 701 966 1022 c 1,14,-1
 240 468 l 1,15,16
 227 483 227 483 191 529 c 1,17,18
 157 569 157 569 147 581 c 1,19,20
 227 736 227 736 398 1109 c 1,21,22
 561 1454 561 1454 600 1547 c 1,23,24
 656 1481 656 1481 705 1442 c 1,25,-1
 683 1395 l 1,26,27
 517 1048 517 1048 366 745 c 2,28,-1
 342 697 l 1,29,-1
 802 1044 l 1,30,31
 1005 1206 1005 1206 1070 1281 c 1,32,33
 1148 1368 1148 1368 1200 1442 c 1,34,35
 1235 1411 1235 1411 1256 1395 c 0,36,37
 1297 1364 1297 1364 1308 1354 c 1,0,1
EndSplineSet
EndChar

StartChar: Z
Encoding: 90 90 61
Width: 1303
VWidth: 2457
Flags: W
LayerCount: 2
Fore
SplineSet
1252 -55 m 1,0,1
 1142 -47 1142 -47 957 -41 c 0,2,3
 533 -26 533 -26 343 -26 c 0,4,5
 34 -26 34 -26 -166 -55 c 1,6,-1
 -209 52 l 1,7,8
 -102 101 -102 101 -5 170 c 0,9,10
 59 215 59 215 243 364 c 0,11,12
 375 472 375 472 454 541 c 2,13,-1
 1260 1250 l 1,14,15
 1141 1235 1141 1235 994 1226 c 0,16,17
 743 1211 743 1211 588 1211 c 0,18,19
 547 1211 547 1211 484 1213 c 1,20,21
 478 1254 478 1254 454 1343 c 1,22,23
 622 1340 622 1340 665 1340 c 0,24,25
 1028 1340 1028 1340 1443 1396 c 1,26,27
 1452 1351 1452 1351 1477 1266 c 1,28,29
 1387 1194 1387 1194 1192 1025 c 1,30,31
 685 581 685 581 492 420 c 0,32,33
 263 228 263 228 81 90 c 1,34,35
 257 100 257 100 425 100 c 0,36,37
 468 100 468 100 733 95 c 0,38,39
 765 95 765 95 927 94 c 0,40,41
 1100 93 1100 93 1225 90 c 1,42,43
 1230 62 1230 62 1236 24 c 0,44,45
 1245 -26 1245 -26 1252 -55 c 1,0,1
EndSplineSet
EndChar

StartChar: bracketleft
Encoding: 91 91 62
Width: 650
VWidth: 2457
Flags: W
LayerCount: 2
Fore
SplineSet
1037 1442 m 1,0,1
 971 1435 971 1435 873 1430 c 0,2,3
 782 1426 782 1426 697 1420 c 1,4,-1
 -84 -375 l 1,5,6
 -2 -381 -2 -381 83 -385 c 0,7,8
 176 -390 176 -390 237 -397 c 1,9,10
 166 -473 166 -473 128 -519 c 1,11,12
 22 -506 22 -506 -283 -491 c 1,13,-1
 598 1536 l 1,14,15
 916 1551 916 1551 1034 1564 c 1,16,17
 1032 1543 1032 1543 1032 1535 c 0,18,19
 1032 1484 1032 1484 1037 1442 c 1,0,1
EndSplineSet
EndChar

StartChar: backslash
Encoding: 92 92 63
Width: 715
VWidth: 2457
Flags: W
LayerCount: 2
Fore
SplineSet
381 1626 m 1,0,1
 445 1630 445 1630 506 1642 c 1,2,3
 501 1561 501 1561 495 1152 c 1,4,-1
 497 834 l 1,5,-1
 501 432 l 1,6,7
 506 167 506 167 510 -83 c 0,8,9
 512 -177 512 -177 520 -261 c 1,10,11
 504 -264 504 -264 457 -269 c 0,12,13
 441 -270 441 -270 399 -278 c 1,14,15
 398 -218 398 -218 398 -203 c 0,16,17
 398 -170 398 -170 401 58 c 0,18,19
 402 131 402 131 402 224 c 0,20,21
 402 341 402 341 398 852 c 0,22,23
 395 1319 395 1319 393 1407 c 0,24,25
 390 1530 390 1530 381 1626 c 1,0,1
EndSplineSet
EndChar

StartChar: bracketright
Encoding: 93 93 64
Width: 650
VWidth: 2457
Flags: W
LayerCount: 2
Fore
SplineSet
578 1564 m 1,0,1
 684 1551 684 1551 990 1536 c 1,2,-1
 108 -491 l 1,3,4
 -210 -506 -210 -506 -327 -519 c 1,5,6
 -326 -499 -326 -499 -326 -491 c 0,7,8
 -326 -441 -326 -441 -330 -397 c 1,9,10
 -264 -390 -264 -390 -166 -385 c 0,11,12
 -76 -381 -76 -381 10 -375 c 1,13,-1
 790 1420 l 1,14,15
 708 1426 708 1426 623 1430 c 0,16,17
 530 1435 530 1435 470 1442 c 1,18,19
 541 1518 541 1518 578 1564 c 1,0,1
EndSplineSet
EndChar

StartChar: asciicircum
Encoding: 94 94 65
Width: 1024
VWidth: 2457
Flags: W
LayerCount: 2
Fore
SplineSet
338 751 m 1,0,-1
 182 751 l 1,1,-1
 815 1369 l 1,2,-1
 1004 1369 l 1,3,-1
 1099 751 l 1,4,-1
 942 751 l 1,5,-1
 858 1255 l 1,6,-1
 338 751 l 1,0,-1
EndSplineSet
EndChar

StartChar: underscore
Encoding: 95 95 66
Width: 1024
VWidth: 2457
Flags: W
LayerCount: 2
Fore
SplineSet
-257 -136 m 1,0,-1
 767 -136 l 1,1,-1
 710 -268 l 1,2,-1
 -314 -268 l 1,3,-1
 -257 -136 l 1,0,-1
EndSplineSet
EndChar

StartChar: grave
Encoding: 96 96 67
Width: 1024
VWidth: 2457
Flags: W
LayerCount: 2
Fore
SplineSet
723 1533 m 1,0,1
 767 1468 767 1468 861 1366 c 1,2,3
 944 1278 944 1278 1006 1228 c 1,4,5
 933 1181 933 1181 902 1157 c 1,6,7
 784 1247 784 1247 608 1462 c 1,8,9
 620 1469 620 1469 662 1494 c 1,10,11
 709 1524 709 1524 723 1533 c 1,0,1
EndSplineSet
EndChar

StartChar: a
Encoding: 97 97 68
Width: 868
VWidth: 2457
Flags: W
LayerCount: 2
Fore
SplineSet
529 -75 m 1,0,1
 488 -66 488 -66 460 -63 c 1,2,3
 412 -60 412 -60 394 -57 c 1,4,-1
 410 -18 l 1,5,-1
 483 155 l 1,6,7
 552 328 552 328 571 374 c 1,8,9
 425 189 425 189 346 108 c 0,10,11
 178 -63 178 -63 68 -63 c 0,12,13
 10 -63 10 -63 -29 -12 c 0,14,15
 -59 28 -59 28 -59 90 c 0,16,17
 -59 269 -59 269 108 503 c 0,18,19
 328 812 328 812 795 1049 c 1,20,21
 797 1039 797 1039 811 996 c 0,22,23
 826 949 826 949 832 936 c 1,24,25
 672 849 672 849 612 810 c 0,26,27
 480 723 480 723 344 594 c 0,28,29
 196 454 196 454 110 270 c 0,30,31
 69 182 69 182 69 126 c 0,32,33
 69 75 69 75 107 75 c 0,34,35
 156 75 156 75 330 254 c 0,36,37
 487 415 487 415 654 671 c 0,38,39
 724 778 724 778 795 904 c 1,40,41
 814 901 814 901 868 888 c 1,42,43
 918 878 918 878 930 875 c 1,44,45
 820 691 820 691 754 538 c 1,46,47
 648 276 648 276 545 -29 c 1,48,-1
 529 -75 l 1,0,1
EndSplineSet
EndChar

StartChar: b
Encoding: 98 98 69
Width: 889
VWidth: 2457
Flags: W
LayerCount: 2
Fore
SplineSet
143 -23 m 1,0,1
 117 43 117 43 89 85 c 1,2,3
 73 55 73 55 53 6 c 0,4,5
 33 -41 33 -41 14 -85 c 1,6,7
 -16 -52 -16 -52 -93 15 c 1,8,-1
 -69 67 l 1,9,-1
 36 290 l 1,10,11
 260 773 260 773 487 1231 c 1,12,13
 582 1425 582 1425 602 1462 c 1,14,15
 615 1451 615 1451 651 1420 c 0,16,17
 662 1410 662 1410 699 1383 c 1,18,19
 444 924 444 924 278 566 c 1,20,21
 441 740 441 740 529 811 c 1,22,23
 625 887 625 887 701 926 c 0,24,25
 775 964 775 964 843 964 c 0,26,27
 909 964 909 964 942 921 c 0,28,29
 971 884 971 884 971 840 c 0,30,31
 971 701 971 701 803 505 c 0,32,33
 669 348 669 348 423 172 c 0,34,35
 277 67 277 67 143 -23 c 1,0,1
96 102 m 1,36,37
 339 233 339 233 575 440 c 0,38,39
 712 561 712 561 789 675 c 0,40,41
 848 762 848 762 848 809 c 0,42,43
 848 843 848 843 813 843 c 0,44,45
 736 843 736 843 580 717 c 0,46,47
 389 563 389 563 259 375 c 0,48,49
 191 277 191 277 96 102 c 1,36,37
EndSplineSet
EndChar

StartChar: c
Encoding: 99 99 70
Width: 744
VWidth: 2457
Flags: W
LayerCount: 2
Fore
SplineSet
620 203 m 1,0,1
 366 -79 366 -79 168 -79 c 0,2,3
 75 -79 75 -79 24 -6 c 0,4,5
 -18 54 -18 54 -18 138 c 0,6,7
 -18 313 -18 313 92 515 c 0,8,9
 206 726 206 726 388 870 c 1,10,11
 538 990 538 990 678 990 c 0,12,13
 751 990 751 990 794 946 c 0,14,15
 838 901 838 901 838 835 c 0,16,17
 838 780 838 780 804 708 c 0,18,19
 794 687 794 687 771 645 c 1,20,21
 717 669 717 669 637 683 c 1,22,23
 709 772 709 772 709 814 c 0,24,25
 709 836 709 836 693 851 c 0,26,27
 674 869 674 869 647 869 c 0,28,29
 521 869 521 869 335 647 c 0,30,31
 222 511 222 511 166 377 c 1,32,33
 113 253 113 253 113 156 c 0,34,35
 113 105 113 105 137 73 c 0,36,37
 159 43 159 43 199 43 c 0,38,39
 297 43 297 43 424 168 c 0,40,41
 476 219 476 219 526 293 c 1,42,43
 543 278 543 278 572 250 c 1,44,45
 590 231 590 231 620 203 c 1,0,1
EndSplineSet
EndChar

StartChar: d
Encoding: 100 100 71
Width: 838
VWidth: 2457
Flags: W
LayerCount: 2
Fore
SplineSet
529 -96 m 1,0,1
 512 -87 512 -87 474 -69 c 1,2,3
 445 -54 445 -54 421 -43 c 1,4,5
 443 19 443 19 470 109 c 0,6,7
 509 239 509 239 532 309 c 1,8,9
 400 142 400 142 339 85 c 0,10,11
 200 -45 200 -45 94 -45 c 0,12,13
 28 -45 28 -45 -16 8 c 0,14,15
 -50 50 -50 50 -50 110 c 0,16,17
 -50 270 -50 270 79 469 c 0,18,19
 207 665 207 665 409 828 c 0,20,21
 499 901 499 901 689 1022 c 1,22,23
 696 1007 696 1007 712 969 c 0,24,25
 724 941 724 941 741 905 c 1,26,27
 565 794 565 794 494 737 c 0,28,29
 271 561 271 561 165 382 c 0,30,31
 76 230 76 230 76 132 c 0,32,33
 76 111 76 111 86 95 c 0,34,35
 99 75 99 75 122 75 c 0,36,37
 198 75 198 75 357 258 c 1,38,39
 528 457 528 457 645 688 c 0,40,41
 738 871 738 871 868 1199 c 0,42,43
 886 1243 886 1243 925 1354 c 0,44,45
 934 1378 934 1378 945 1409 c 1,46,47
 963 1398 963 1398 1003 1371 c 0,48,49
 1049 1340 1049 1340 1067 1329 c 1,50,51
 995 1211 995 1211 783 678 c 1,52,53
 635 297 635 297 543 -47 c 1,54,-1
 529 -96 l 1,0,1
EndSplineSet
EndChar

StartChar: e
Encoding: 101 101 72
Width: 743
VWidth: 2457
Flags: W
LayerCount: 2
Fore
SplineSet
638 282 m 1,0,1
 399 -90 399 -90 187 -90 c 0,2,3
 99 -90 99 -90 40 -9 c 0,4,5
 -8 57 -8 57 -8 161 c 0,6,7
 -8 361 -8 361 127 577 c 1,8,9
 273 808 273 808 472 927 c 0,10,11
 600 1003 600 1003 705 1003 c 0,12,13
 755 1003 755 1003 788 979 c 0,14,15
 832 946 832 946 832 886 c 0,16,17
 832 801 832 801 756 704 c 0,18,19
 678 605 678 605 456 467 c 0,20,21
 341 395 341 395 210 339 c 1,22,-1
 185 434 l 1,23,24
 121 274 121 274 121 174 c 0,25,26
 121 107 121 107 150 71 c 0,27,28
 174 40 174 40 208 40 c 0,29,30
 307 40 307 40 436 204 c 0,31,32
 472 250 472 250 544 365 c 1,33,34
 558 349 558 349 589 324 c 0,35,36
 603 313 603 313 638 282 c 1,0,1
202 469 m 1,37,38
 380 543 380 543 522 650 c 0,39,40
 692 779 692 779 692 847 c 0,41,42
 692 874 692 874 662 874 c 0,43,44
 613 874 613 874 527 816 c 0,45,46
 441 757 441 757 334 643 c 0,47,48
 265 569 265 569 202 469 c 1,37,38
EndSplineSet
EndChar

StartChar: f
Encoding: 102 102 73
Width: 709
VWidth: 2457
Flags: W
LayerCount: 2
Fore
SplineSet
850 757 m 1,0,1
 615 758 615 758 485 745 c 1,2,3
 357 501 357 501 177 61 c 0,4,5
 15 -335 15 -335 -56 -566 c 1,6,7
 -68 -558 -68 -558 -80 -551 c 0,8,9
 -144 -510 -144 -510 -181 -490 c 1,10,11
 -117 -302 -117 -302 70 138 c 1,12,13
 202 444 202 444 333 725 c 1,14,15
 276 720 276 720 93 682 c 1,16,17
 72 776 72 776 58 809 c 1,18,19
 225 838 225 838 399 857 c 1,20,21
 492 1035 492 1035 591 1167 c 0,22,23
 732 1355 732 1355 873 1355 c 0,24,25
 977 1355 977 1355 1023 1220 c 0,26,27
 1044 1157 1044 1157 1050 1014 c 1,28,-1
 914 974 l 1,29,30
 920 1036 920 1036 920 1076 c 0,31,32
 920 1147 920 1147 897 1185 c 0,33,34
 878 1217 878 1217 846 1217 c 0,35,36
 786 1217 786 1217 692 1099 c 0,37,38
 645 1041 645 1041 549 870 c 1,39,40
 592 872 592 872 704 880 c 0,41,42
 779 885 779 885 833 886 c 1,43,44
 834 859 834 859 846 784 c 2,45,-1
 850 757 l 1,0,1
EndSplineSet
EndChar

StartChar: g
Encoding: 103 103 74
Width: 822
VWidth: 2457
Flags: W
LayerCount: 2
Fore
SplineSet
891 908 m 1,0,1
 810 762 810 762 752 631 c 0,2,3
 692 496 692 496 646 366 c 0,4,5
 592 213 592 213 540 56 c 1,6,7
 459 -181 459 -181 390 -293 c 0,8,9
 242 -533 242 -533 47 -533 c 0,10,11
 -65 -533 -65 -533 -133 -457 c 0,12,13
 -192 -391 -192 -391 -192 -277 c 0,14,15
 -192 -212 -192 -212 -165 -145 c 1,16,-1
 -30 -129 l 1,17,18
 -68 -232 -68 -232 -68 -279 c 0,19,20
 -68 -339 -68 -339 -26 -382 c 0,21,22
 5 -414 5 -414 57 -414 c 0,23,24
 165 -414 165 -414 256 -296 c 0,25,26
 341 -186 341 -186 420 39 c 0,27,28
 449 124 449 124 505 297 c 1,29,30
 272 -47 272 -47 91 -47 c 0,31,32
 22 -47 22 -47 -18 17 c 0,33,34
 -46 62 -46 62 -46 121 c 0,35,36
 -46 281 -46 281 101 500 c 0,37,38
 223 681 223 681 391 820 c 1,39,40
 575 970 575 970 748 1074 c 1,41,42
 790 1018 790 1018 833 970 c 1,43,-1
 775 938 l 1,44,45
 811 926 811 926 829 922 c 0,46,47
 876 912 876 912 891 908 c 1,0,1
748 925 m 1,48,49
 457 761 457 761 286 550 c 0,50,51
 178 416 178 416 127 305 c 0,52,53
 81 205 81 205 81 140 c 0,54,55
 81 85 81 85 123 85 c 0,56,57
 233 85 233 85 471 427 c 0,58,59
 625 647 625 647 748 925 c 1,48,49
EndSplineSet
EndChar

StartChar: h
Encoding: 104 104 75
Width: 872
VWidth: 2457
Flags: W
LayerCount: 2
Fore
SplineSet
548 -79 m 1,0,1
 485 -46 485 -46 420 -23 c 1,2,3
 481 174 481 174 572 401 c 1,4,5
 676 657 676 657 738 780 c 1,6,7
 586 665 586 665 299 352 c 0,8,9
 156 195 156 195 101 98 c 0,10,11
 75 54 75 54 31 -23 c 1,12,13
 17 -16 17 -16 -22 3 c 0,14,15
 -65 23 -65 23 -79 28 c 1,16,17
 -30 126 -30 126 52 315 c 0,18,19
 287 855 287 855 399 1075 c 0,20,21
 501 1275 501 1275 604 1455 c 1,22,23
 614 1449 614 1449 623 1443 c 0,24,25
 657 1421 657 1421 686 1405 c 0,26,27
 704 1394 704 1394 719 1385 c 1,28,-1
 695 1342 l 1,29,30
 581 1141 581 1141 532 1046 c 0,31,32
 328 650 328 650 243 458 c 1,33,34
 429 658 429 658 592 806 c 0,35,36
 685 891 685 891 873 1051 c 1,37,38
 909 1013 909 1013 968 954 c 1,39,40
 879 808 879 808 783 577 c 1,41,42
 669 306 669 306 621 161 c 0,43,44
 597 88 597 88 548 -79 c 1,0,1
EndSplineSet
EndChar

StartChar: i
Encoding: 105 105 76
Width: 410
VWidth: 2457
Flags: W
LayerCount: 2
Fore
SplineSet
471 895 m 1,0,1
 411 791 411 791 249 425 c 0,2,3
 66 11 66 11 42 -53 c 1,4,5
 -31 5 -31 5 -70 27 c 1,6,7
 -25 111 -25 111 46 272 c 1,8,9
 117 443 117 443 264 769 c 0,10,11
 327 910 327 910 355 977 c 1,12,13
 369 967 369 967 412 935 c 0,14,15
 443 912 443 912 471 895 c 1,0,1
623 1227 m 1,16,17
 599 1185 599 1185 568 1122 c 1,18,19
 530 1041 530 1041 504 990 c 1,20,21
 489 1000 489 1000 452 1027 c 0,22,23
 433 1040 433 1040 397 1067 c 1,24,25
 447 1160 447 1160 501 1283 c 1,26,-1
 513 1311 l 1,27,28
 530 1299 530 1299 570 1267 c 0,29,30
 595 1248 595 1248 623 1227 c 1,16,17
EndSplineSet
EndChar

StartChar: j
Encoding: 106 106 77
Width: 391
VWidth: 2457
Flags: W
LayerCount: 2
Fore
SplineSet
465 896 m 1,0,1
 426 821 426 821 368 688 c 2,2,-1
 51 -45 l 2,3,4
 -73 -332 -73 -332 -157 -420 c 0,5,6
 -280 -549 -280 -549 -441 -549 c 0,7,8
 -589 -549 -589 -549 -707 -426 c 0,9,10
 -764 -366 -764 -366 -826 -273 c 1,11,12
 -764 -204 -764 -204 -736 -162 c 1,13,14
 -684 -249 -684 -249 -639 -304 c 0,15,16
 -544 -419 -544 -419 -433 -419 c 0,17,18
 -328 -419 -328 -419 -254 -338 c 0,19,20
 -179 -257 -179 -257 -137 -162 c 2,21,-1
 249 725 l 1,22,-1
 300 848 l 1,23,24
 345 950 345 950 355 977 c 1,25,26
 363 971 363 971 370 966 c 0,27,28
 405 940 405 940 433 920 c 0,29,30
 452 907 452 907 465 896 c 1,0,1
614 1223 m 1,31,32
 553 1102 553 1102 502 979 c 1,33,34
 487 990 487 990 445 1023 c 1,35,36
 401 1052 401 1052 388 1060 c 1,37,38
 441 1159 441 1159 502 1312 c 1,39,40
 517 1300 517 1300 556 1267 c 0,41,42
 576 1251 576 1251 614 1223 c 1,31,32
EndSplineSet
EndChar

StartChar: k
Encoding: 107 107 78
Width: 811
VWidth: 2457
Flags: W
LayerCount: 2
Fore
SplineSet
747 -226 m 1,0,1
 729 -231 729 -231 677 -248 c 1,2,3
 627 -266 627 -266 610 -272 c 1,4,5
 534 -123 534 -123 433 132 c 1,6,7
 409 196 409 196 329 437 c 0,8,9
 311 493 311 493 289 553 c 1,10,11
 273 513 273 513 200 351 c 0,12,13
 179 304 179 304 42 -18 c 1,14,-1
 22 -64 l 1,15,16
 12 -58 12 -58 2 -51 c 0,17,18
 -50 -17 -50 -17 -100 10 c 1,19,20
 17 211 17 211 539 1414 c 1,21,-1
 556 1454 l 1,22,23
 597 1424 597 1424 672 1385 c 1,24,-1
 653 1343 l 1,25,-1
 579 1188 l 1,26,-1
 485 983 l 2,27,28
 398 795 398 795 367 726 c 1,29,30
 469 796 469 796 669 911 c 0,31,32
 796 983 796 983 924 1037 c 1,33,34
 949 1003 949 1003 1010 931 c 1,35,36
 684 816 684 816 407 609 c 1,37,38
 448 437 448 437 566 151 c 0,39,40
 672 -105 672 -105 747 -226 c 1,0,1
EndSplineSet
EndChar

StartChar: l
Encoding: 108 108 79
Width: 391
VWidth: 2457
Flags: W
LayerCount: 2
Fore
SplineSet
654 1342 m 1,0,1
 528 1108 528 1108 355 696 c 0,2,3
 162 234 162 234 57 -94 c 1,4,5
 37 -84 37 -84 -53 -41 c 1,6,-1
 -73 -32 l 1,7,8
 -51 23 -51 23 39 264 c 0,9,10
 147 555 147 555 371 1057 c 0,11,12
 455 1243 455 1243 541 1414 c 1,13,14
 559 1401 559 1401 593 1381 c 0,15,16
 622 1363 622 1363 654 1342 c 1,0,1
EndSplineSet
EndChar

StartChar: m
Encoding: 109 109 80
Width: 1382
VWidth: 2457
Flags: W
LayerCount: 2
Fore
SplineSet
991 -113 m 1,0,1
 916 -70 916 -70 867 -53 c 1,2,-1
 895 14 l 1,3,4
 1008 281 1008 281 1076 426 c 0,5,6
 1119 516 1119 516 1218 711 c 1,7,8
 959 480 959 480 796 309 c 1,9,10
 688 193 688 193 627 99 c 0,11,12
 594 47 594 47 554 -29 c 1,13,-1
 451 26 l 1,14,-1
 744 729 l 1,15,16
 647 658 647 658 489 516 c 0,17,18
 310 355 310 355 247 282 c 0,19,20
 164 185 164 185 53 -5 c 1,21,22
 -23 35 -23 35 -61 51 c 1,23,24
 -29 114 -29 114 165 537 c 1,25,26
 374 1001 374 1001 403 1072 c 1,27,28
 444 1045 444 1045 528 1007 c 1,29,30
 511 966 511 966 447 834 c 0,31,32
 358 649 358 649 254 438 c 1,33,34
 373 557 373 557 475 648 c 0,35,36
 541 707 541 707 756 889 c 1,37,38
 837 959 837 959 879 1007 c 1,39,40
 905 987 905 987 977 941 c 1,41,42
 909 832 909 832 834 664 c 0,43,44
 746 465 746 465 708 374 c 1,45,46
 845 520 845 520 910 584 c 0,47,48
 1024 695 1024 695 1203 848 c 0,49,50
 1318 946 1318 946 1359 982 c 1,51,52
 1415 942 1415 942 1464 909 c 1,53,54
 1226 486 1226 486 991 -113 c 1,0,1
EndSplineSet
EndChar

StartChar: n
Encoding: 110 110 81
Width: 874
VWidth: 2457
Flags: W
LayerCount: 2
Fore
SplineSet
511 -120 m 1,0,1
 439 -82 439 -82 391 -68 c 1,2,3
 537 392 537 392 722 760 c 1,4,5
 616 673 616 673 478 541 c 0,6,7
 268 339 268 339 168 185 c 0,8,9
 99 78 99 78 47 -41 c 1,10,11
 5 -24 5 -24 -67 5 c 1,12,13
 0 143 0 143 158 518 c 0,14,15
 321 905 321 905 359 1020 c 1,16,17
 388 1006 388 1006 470 974 c 2,18,-1
 491 966 l 1,19,20
 476 928 476 928 422 803 c 0,21,22
 350 639 350 639 291 513 c 1,23,24
 492 731 492 731 864 1031 c 1,25,26
 899 995 899 995 955 942 c 1,27,28
 935 903 935 903 873 786 c 1,29,30
 819 692 819 692 646 254 c 1,31,32
 570 45 570 45 511 -120 c 1,0,1
EndSplineSet
EndChar

StartChar: o
Encoding: 111 111 82
Width: 767
VWidth: 2457
Flags: W
LayerCount: 2
Fore
SplineSet
579 1006 m 0,0,1
 662 1006 662 1006 718 946 c 0,2,3
 769 892 769 892 769 786 c 0,4,5
 769 628 769 628 670 409 c 0,6,7
 550 143 550 143 406 10 c 0,8,9
 281 -106 281 -106 161 -106 c 0,10,11
 75 -106 75 -106 22 -33 c 0,12,13
 -23 28 -23 28 -23 113 c 0,14,15
 -23 287 -23 287 94 528 c 0,16,17
 208 763 208 763 360 902 c 0,18,19
 430 967 430 967 486 989 c 0,20,21
 527 1006 527 1006 579 1006 c 0,0,1
554 873 m 0,22,23
 494 873 494 873 414 788 c 0,24,25
 300 666 300 666 209 470 c 0,26,27
 111 258 111 258 111 130 c 0,28,29
 111 82 111 82 134 52 c 0,30,31
 153 28 153 28 185 28 c 0,32,33
 298 28 298 28 447 261 c 0,34,35
 522 379 522 379 578 524 c 0,36,37
 635 669 635 669 635 773 c 0,38,39
 635 873 635 873 554 873 c 0,22,23
EndSplineSet
EndChar

StartChar: p
Encoding: 112 112 83
Width: 832
VWidth: 2457
Flags: W
LayerCount: 2
Fore
SplineSet
135 -37 m 1,0,1
 120 -8 120 -8 68 59 c 1,2,3
 -54 -194 -54 -194 -199 -540 c 1,4,5
 -243 -509 -243 -509 -320 -465 c 1,6,7
 -270 -367 -270 -367 -26 145 c 0,8,9
 179 574 179 574 390 1013 c 1,10,-1
 408 1050 l 1,11,12
 435 1031 435 1031 522 985 c 1,13,14
 506 954 506 954 413 778 c 1,15,-1
 375 705 l 1,16,17
 634 968 634 968 789 968 c 0,18,19
 847 968 847 968 881 928 c 0,20,21
 910 894 910 894 910 841 c 0,22,23
 910 674 910 674 695 418 c 0,24,25
 530 222 530 222 320 77 c 0,26,27
 246 27 246 27 135 -37 c 1,0,1
84 86 m 1,28,29
 306 190 306 190 503 390 c 0,30,31
 632 520 632 520 722 661 c 0,32,33
 784 759 784 759 784 806 c 0,34,35
 784 819 784 819 775 830 c 0,36,37
 764 844 764 844 746 844 c 0,38,39
 691 844 691 844 556 736 c 0,40,41
 368 586 368 586 235 369 c 0,42,43
 168 260 168 260 84 86 c 1,28,29
EndSplineSet
EndChar

StartChar: q
Encoding: 113 113 84
Width: 876
VWidth: 2457
Flags: W
LayerCount: 2
Fore
SplineSet
1131 -165 m 1,0,1
 991 -204 991 -204 812 -276 c 0,2,3
 556 -380 556 -380 406 -491 c 0,4,5
 325 -551 325 -551 290 -600 c 1,6,7
 230 -517 230 -517 203 -499 c 1,8,9
 242 -424 242 -424 357 -147 c 0,10,11
 490 173 490 173 571 341 c 1,12,13
 225 -41 225 -41 52 -41 c 0,14,15
 -2 -41 -2 -41 -34 -3 c 0,16,17
 -64 34 -64 34 -64 89 c 0,18,19
 -64 252 -64 252 103 473 c 0,20,21
 342 788 342 788 892 1070 c 1,22,23
 896 1053 896 1053 907 1002 c 0,24,25
 911 985 911 985 922 935 c 1,26,-1
 849 899 l 1,27,28
 920 846 920 846 960 824 c 1,29,30
 866 699 866 699 698 339 c 0,31,32
 621 173 621 173 502 -115 c 0,33,34
 443 -258 443 -258 407 -358 c 1,35,36
 664 -222 664 -222 1149 -32 c 1,37,38
 1146 -51 1146 -51 1139 -97 c 0,39,40
 1134 -131 1134 -131 1131 -165 c 1,0,1
824 892 m 1,41,42
 619 778 619 778 508.5 698 c 128,-1,43
 398 618 398 618 295 509 c 0,44,45
 185 392 185 392 122 276 c 1,46,47
 77 191 77 191 77 142 c 0,48,49
 77 101 77 101 110 101 c 0,50,51
 160 101 160 101 267 190 c 128,-1,52
 374 279 374 279 509 431 c 0,53,54
 630 567 630 567 732 724 c 0,55,56
 773 788 773 788 824 892 c 1,41,42
EndSplineSet
EndChar

StartChar: r
Encoding: 114 114 85
Width: 638
VWidth: 2457
Flags: W
LayerCount: 2
Fore
SplineSet
54 -42 m 1,0,1
 36 -36 36 -36 -10 -16 c 0,2,3
 -28 -8 -28 -8 -77 8 c 1,4,5
 83 325 83 325 359 1000 c 1,6,-1
 379 991 l 2,7,8
 415 975 415 975 448 962 c 0,9,10
 471 953 471 953 488 946 c 1,11,12
 476 918 476 918 440 842 c 1,13,14
 404 761 404 761 386 722 c 1,15,16
 540 870 540 870 819 1052 c 1,17,-1
 830 1039 l 1,18,-1
 864 1002 l 1,19,20
 901 959 901 959 913 946 c 1,21,22
 772 883 772 883 567 730 c 0,23,24
 311 540 311 540 191 272 c 1,25,26
 110 102 110 102 54 -42 c 1,0,1
EndSplineSet
EndChar

StartChar: s
Encoding: 115 115 86
Width: 1072
VWidth: 2457
Flags: W
LayerCount: 2
Fore
SplineSet
763 637 m 1,0,1
 745 649 745 649 693 692 c 0,2,3
 652 725 652 725 635 740 c 1,4,5
 771 765 771 765 866 804 c 0,6,7
 1002 860 1002 860 1002 903 c 0,8,9
 1002 938 1002 938 909 938 c 0,10,11
 818 938 818 938 677 909 c 0,12,13
 529 879 529 879 416 821 c 0,14,15
 325 775 325 775 325 736 c 0,16,17
 325 689 325 689 441 665 c 0,18,19
 454 662 454 662 668 603 c 0,20,21
 843 555 843 555 900 514 c 0,22,23
 994 446 994 446 994 349 c 0,24,25
 994 232 994 232 874 142 c 0,26,27
 766 61 766 61 560 15 c 0,28,29
 409 -18 409 -18 254 -18 c 0,30,31
 -90 -18 -90 -18 -90 142 c 0,32,33
 -90 288 -90 288 185 384 c 0,34,35
 305 426 305 426 519 469 c 1,36,37
 542 446 542 446 611 364 c 1,38,39
 570 356 570 356 558 354 c 0,40,41
 38 254 38 254 38 153 c 0,42,43
 38 87 38 87 255 87 c 0,44,45
 476 87 476 87 693 168 c 0,46,47
 771 198 771 198 825 251 c 0,48,49
 865 290 865 290 865 339 c 0,50,51
 865 401 865 401 779 440 c 0,52,53
 724 465 724 465 662 482 c 2,54,-1
 493 527 l 2,55,56
 319 573 319 573 261 603 c 0,57,58
 174 648 174 648 174 715 c 0,59,60
 174 802 174 802 298 884 c 0,61,62
 424 967 424 967 629 1010 c 0,63,64
 800 1045 800 1045 934 1045 c 0,65,66
 1034 1045 1034 1045 1090 1009 c 0,67,68
 1147 972 1147 972 1147 915 c 0,69,70
 1147 848 1147 848 1065 785 c 0,71,72
 981 721 981 721 763 637 c 1,0,1
EndSplineSet
EndChar

StartChar: t
Encoding: 116 116 87
Width: 761
VWidth: 2457
Flags: W
LayerCount: 2
Fore
SplineSet
732 428 m 1,0,1
 311 152 311 152 92 -68 c 1,2,3
 75 -54 75 -54 38 -18 c 1,4,5
 5 10 5 10 -7 23 c 1,6,7
 97 255 97 255 221 541 c 2,8,-1
 309 744 l 1,9,-1
 324 778 l 1,10,11
 304 775 304 775 245 767 c 0,12,13
 193 760 193 760 170 756 c 1,14,15
 166 774 166 774 155 822 c 0,16,17
 147 854 147 854 135 884 c 1,18,19
 172 888 172 888 271 898 c 0,20,21
 357 907 357 907 387 912 c 1,22,23
 505 1163 505 1163 560 1270 c 1,24,25
 594 1247 594 1247 617 1232 c 0,26,27
 656 1207 656 1207 674 1192 c 1,28,29
 594 1047 594 1047 539 927 c 1,30,-1
 579 932 l 1,31,-1
 723 949 l 1,32,-1
 863 967 l 1,33,-1
 920 974 l 1,34,35
 937 879 937 879 950 843 c 1,36,37
 848 841 848 841 653 819 c 0,38,39
 525 805 525 805 476 799 c 1,40,41
 456 759 456 759 390 608 c 1,42,-1
 308 424 l 2,43,44
 238 265 238 265 208 199 c 1,45,46
 363 323 363 323 442 382 c 0,47,48
 499 424 499 424 636 517 c 1,49,50
 652 504 652 504 681 475 c 0,51,52
 694 463 694 463 732 428 c 1,0,1
EndSplineSet
EndChar

StartChar: u
Encoding: 117 117 88
Width: 880
VWidth: 2457
Flags: W
LayerCount: 2
Fore
SplineSet
520 -68 m 1,0,1
 506 -59 506 -59 455 -25 c 1,2,3
 413 -1 413 -1 398 10 c 1,4,5
 414 49 414 49 506 248 c 0,6,7
 597 445 597 445 623 501 c 1,8,9
 471 311 471 311 186 62 c 1,10,11
 102 -13 102 -13 55 -68 c 1,12,13
 0 -22 0 -22 -51 19 c 1,14,-1
 -68 32 l 1,15,16
 -29 117 -29 117 36 262 c 0,17,18
 180 588 180 588 284 789 c 0,19,20
 399 1010 399 1010 418 1049 c 1,21,22
 436 1038 436 1038 480 1016 c 0,23,24
 528 991 528 991 550 981 c 1,25,26
 406 733 406 733 317 561 c 0,27,28
 248 429 248 429 114 153 c 1,29,30
 509 468 509 468 877 1022 c 1,31,32
 945 977 945 977 997 952 c 1,33,34
 851 721 851 721 744 485 c 1,35,36
 675 336 675 336 520 -68 c 1,0,1
EndSplineSet
EndChar

StartChar: v
Encoding: 118 118 89
Width: 818
VWidth: 2457
Flags: W
LayerCount: 2
Fore
SplineSet
252 -71 m 1,0,1
 236 -66 236 -66 192 -50 c 1,2,3
 153 -38 153 -38 139 -33 c 1,4,5
 141 15 141 15 153 220 c 0,6,7
 156 279 156 279 156 393 c 0,8,9
 156 774 156 774 116 1013 c 1,10,11
 204 998 204 998 271 998 c 1,12,13
 292 848 292 848 292 571 c 0,14,15
 292 456 292 456 273 208 c 1,16,17
 588 724 588 724 974 1051 c 1,18,19
 994 1023 994 1023 1013 1000 c 0,20,21
 1046 961 1046 961 1057 945 c 1,22,23
 894 801 894 801 800 702 c 0,24,25
 594 486 594 486 388 169 c 0,26,27
 305 40 305 40 252 -71 c 1,0,1
EndSplineSet
EndChar

StartChar: w
Encoding: 119 119 90
Width: 1361
VWidth: 2457
Flags: W
LayerCount: 2
Fore
SplineSet
1579 926 m 1,0,1
 1365 751 1365 751 1096 431 c 0,2,3
 981 293 981 293 830 76 c 1,4,5
 777 -3 777 -3 737 -74 c 1,6,7
 698 -51 698 -51 623 -13 c 1,8,9
 639 60 639 60 650 138 c 0,10,11
 656 185 656 185 692 496 c 2,12,-1
 717 717 l 1,13,-1
 725 783 l 1,14,15
 554 556 554 556 379 312 c 1,16,17
 253 130 253 130 181 -32 c 1,18,19
 170 -28 170 -28 127 -10 c 0,20,21
 117 -5 117 -5 75 4 c 1,22,23
 112 166 112 166 129 423 c 0,24,25
 151 766 151 766 151 970 c 0,26,27
 151 989 151 989 151 1037 c 1,28,29
 199 1023 199 1023 294 998 c 1,30,31
 292 966 292 966 282 776 c 1,32,33
 259 451 259 451 236 297 c 1,34,35
 363 464 363 464 572 762 c 1,36,-1
 671 900 l 1,37,38
 757 1032 757 1032 777 1061 c 1,39,-1
 884 1021 l 1,40,41
 856 897 856 897 839 762 c 1,42,43
 820 601 820 601 796 375 c 0,44,45
 785 269 785 269 777 210 c 1,46,47
 952 449 952 449 1107 628 c 1,48,49
 1222 758 1222 758 1371 914 c 0,50,51
 1440 986 1440 986 1470 1020 c 1,52,53
 1522 970 1522 970 1579 926 c 1,0,1
EndSplineSet
EndChar

StartChar: x
Encoding: 120 120 91
Width: 980
VWidth: 2457
Flags: W
LayerCount: 2
Fore
SplineSet
1056 -227 m 1,0,1
 990 -259 990 -259 932 -308 c 1,2,3
 891 -262 891 -262 698 -4 c 1,4,5
 521 245 521 245 456 354 c 1,6,7
 211 53 211 53 37 -105 c 1,8,9
 -7 -58 -7 -58 -68 -5 c 1,10,11
 156 192 156 192 383 470 c 1,12,13
 276 639 276 639 130 973 c 1,14,15
 138 978 138 978 146 983 c 0,16,17
 184 1007 184 1007 211 1025 c 0,18,19
 228 1036 228 1036 242 1045 c 1,20,21
 297 896 297 896 351 787 c 0,22,23
 428 631 428 631 468 576 c 1,24,25
 658 808 658 808 782 1045 c 1,26,27
 792 1035 792 1035 832 990 c 0,28,29
 845 975 845 975 876 948 c 1,30,-1
 855 915 l 2,31,32
 689 653 689 653 537 455 c 1,33,34
 675 247 675 247 742 156 c 0,35,36
 828 39 828 39 900 -51 c 1,37,38
 935 -87 935 -87 970 -130 c 1,39,40
 1000 -165 1000 -165 1031 -199 c 2,41,-1
 1056 -227 l 1,0,1
EndSplineSet
EndChar

StartChar: y
Encoding: 121 121 92
Width: 927
VWidth: 2457
Flags: W
LayerCount: 2
Fore
SplineSet
219 -638 m 1,0,1
 159 -595 159 -595 110 -568 c 1,2,3
 141 -505 141 -505 263 -277 c 0,4,5
 398 -23 398 -23 552 278 c 1,6,7
 645 456 645 456 700 554 c 1,8,9
 676 533 676 533 653 512 c 0,10,11
 531 403 531 403 463 347.5 c 128,-1,12
 395 292 395 292 216 157 c 0,13,14
 113 79 113 79 67 42 c 1,15,16
 16 77 16 77 -40 112 c 1,17,18
 212 636 212 636 294 833 c 1,19,20
 368 1007 368 1007 395 1062 c 1,21,22
 457 1003 457 1003 507 971 c 1,23,24
 478 914 478 914 397 742 c 1,25,26
 332 608 332 608 192 326 c 1,27,-1
 162 264 l 1,28,29
 251 320 251 320 430 461 c 1,30,31
 614 603 614 603 783 805 c 0,32,33
 875 916 875 916 930 1003 c 1,34,35
 965 960 965 960 1024 899 c 1,36,37
 980 831 980 831 703 304 c 1,38,39
 484 -118 484 -118 249 -580 c 1,40,-1
 219 -638 l 1,0,1
EndSplineSet
EndChar

StartChar: z
Encoding: 122 122 93
Width: 893
VWidth: 2457
Flags: W
LayerCount: 2
Fore
SplineSet
795 13 m 1,0,1
 719 17 719 17 662 17 c 0,2,3
 293 17 293 17 -166 -80 c 1,4,5
 -166 -69 -166 -69 -166 -63 c 0,6,7
 -166 -18 -166 -18 -179 24 c 1,8,9
 113 241 113 241 686 861 c 1,10,11
 550 849 550 849 387 849 c 0,12,13
 260 849 260 849 154 861 c 1,14,15
 146 903 146 903 123 989 c 1,16,17
 308 968 308 968 446 968 c 0,18,19
 640 968 640 968 841 989 c 1,20,21
 846 978 846 978 865 944 c 0,22,23
 886 905 886 905 893 891 c 1,24,25
 787 807 787 807 648 658 c 1,26,27
 356 352 356 352 56 73 c 1,28,29
 468 143 468 143 841 141 c 1,30,31
 814 92 814 92 795 13 c 1,0,1
EndSplineSet
EndChar

StartChar: braceleft
Encoding: 123 123 94
Width: 821
VWidth: 2457
Flags: W
LayerCount: 2
Fore
SplineSet
245 376 m 1,0,1
 112 441 112 441 66 460 c 1,2,3
 68 518 68 518 69 585 c 1,4,5
 142 613 142 613 325 680 c 1,6,-1
 369 697 l 1,7,8
 376 722 376 722 408 851 c 0,9,10
 448 1011 448 1011 540 1180 c 0,11,12
 657 1394 657 1394 787 1500 c 1,13,14
 915 1606 915 1606 1033 1606 c 0,15,16
 1132 1606 1132 1606 1180 1508 c 0,17,18
 1191 1485 1191 1485 1199 1451 c 1,19,-1
 1079 1364 l 1,20,21
 1079 1373 1079 1373 1079 1376 c 0,22,23
 1079 1414 1079 1414 1066 1437 c 0,24,25
 1044 1477 1044 1477 1003 1477 c 0,26,27
 918 1477 918 1477 804 1345 c 0,28,29
 587 1094 587 1094 475 605 c 1,30,31
 441 592 441 592 342 561 c 0,32,33
 269 538 269 538 192 514 c 1,34,35
 219 502 219 502 310 458 c 0,36,37
 399 416 399 416 426 401 c 1,38,39
 261 203 261 203 177 21 c 0,40,41
 82 -186 82 -186 82 -348 c 0,42,43
 82 -464 82 -464 165 -464 c 0,44,45
 249 -464 249 -464 332 -351 c 1,46,-1
 388 -478 l 1,47,48
 249 -593 249 -593 133 -593 c 0,49,50
 42 -593 42 -593 -6 -510 c 0,51,52
 -43 -446 -43 -446 -43 -356 c 0,53,54
 -43 -150 -43 -150 76 101 c 0,55,56
 141 239 141 239 245 376 c 1,0,1
EndSplineSet
EndChar

StartChar: bar
Encoding: 124 124 95
Width: 1024
VWidth: 2457
Flags: W
LayerCount: 2
Fore
SplineSet
836 1365 m 1,0,-1
 979 1365 l 1,1,-1
 237 -341 l 1,2,-1
 94 -341 l 1,3,-1
 836 1365 l 1,0,-1
EndSplineSet
EndChar

StartChar: braceright
Encoding: 125 125 96
Width: 821
VWidth: 2457
Flags: W
LayerCount: 2
Fore
SplineSet
639 651 m 1,0,1
 772 587 772 587 818 567 c 1,2,3
 816 502 816 502 815 443 c 1,4,5
 743 415 743 415 559 347 c 1,6,-1
 515 331 l 1,7,8
 509 308 509 308 476 177 c 0,9,10
 436 17 436 17 344 -152 c 0,11,12
 227 -366 227 -366 98 -472 c 256,13,14
 -31 -578 -31 -578 -149 -578 c 0,15,16
 -248 -578 -248 -578 -296 -480 c 0,17,18
 -307 -458 -307 -458 -315 -424 c 1,19,-1
 -195 -336 l 1,20,21
 -195 -346 -195 -346 -195 -350 c 0,22,23
 -195 -386 -195 -386 -182 -409 c 0,24,25
 -161 -449 -161 -449 -119 -449 c 0,26,27
 -34 -449 -34 -449 80 -317 c 0,28,29
 296 -66 296 -66 409 423 c 1,30,31
 445 436 445 436 542 466 c 0,32,33
 580 478 580 478 693 514 c 1,34,35
 665 526 665 526 574 569 c 0,36,37
 485 612 485 612 458 626 c 1,38,39
 622 825 622 825 706 1007 c 0,40,41
 801 1214 801 1214 801 1376 c 0,42,43
 801 1492 801 1492 719 1492 c 0,44,45
 635 1492 635 1492 552 1379 c 1,46,-1
 496 1506 l 1,47,48
 633 1621 633 1621 751 1621 c 0,49,50
 842 1621 842 1621 890 1538 c 0,51,52
 927 1474 927 1474 927 1384 c 0,53,54
 927 1178 927 1178 808 927 c 0,55,56
 744 792 744 792 639 651 c 1,0,1
EndSplineSet
EndChar

StartChar: asciitilde
Encoding: 126 126 97
Width: 1365
VWidth: 2457
Flags: W
LayerCount: 2
Fore
SplineSet
597 1195 m 1,0,-1
 536 1250 l 1,1,2
 613 1332 613 1332 667 1377 c 0,3,4
 793 1483 793 1483 915 1483 c 0,5,6
 993 1483 993 1483 1115 1411 c 0,7,8
 1198 1363 1198 1363 1227 1354 c 0,9,10
 1257 1345 1257 1345 1286 1345 c 0,11,12
 1359 1345 1359 1345 1429 1395 c 0,13,14
 1474 1427 1474 1427 1536 1487 c 1,15,-1
 1601 1436 l 1,16,17
 1388 1208 1388 1208 1209 1208 c 0,18,19
 1175 1208 1175 1208 1127 1225 c 0,20,21
 1082 1241 1082 1241 1060 1254 c 2,22,-1
 966 1307 l 1,23,24
 899 1346 899 1346 847 1346 c 0,25,26
 744 1346 744 1346 597 1195 c 1,0,-1
EndSplineSet
EndChar

StartChar: exclamdown
Encoding: 161 161 99
Width: 506
VWidth: 2457
Flags: W
LayerCount: 2
Fore
SplineSet
269 674 m 1,0,1
 299 742 299 742 370 963 c 1,2,3
 395 941 395 941 434 915 c 0,4,5
 467 893 467 893 491 877 c 1,6,7
 455 795 455 795 385 600 c 1,8,9
 348 625 348 625 269 674 c 1,0,1
248 599 m 1,10,11
 265 591 265 591 303 569 c 1,12,13
 348 545 348 545 363 537 c 1,14,15
 321 448 321 448 247 277 c 0,16,17
 136 20 136 20 -22 -314 c 0,18,19
 -98 -475 -98 -475 -139 -549 c 1,20,21
 -154 -536 -154 -536 -194 -502 c 0,22,23
 -232 -470 -232 -470 -245 -460 c 1,24,25
 -226 -422 -226 -422 -131 -234 c 1,26,27
 46 112 46 112 131 319 c 1,28,29
 224 541 224 541 248 599 c 1,10,11
EndSplineSet
EndChar

StartChar: cent
Encoding: 162 162 100
Width: 1365
VWidth: 2457
Flags: W
LayerCount: 2
Fore
SplineSet
1074 1202 m 1,0,1
 1129 1198 1129 1198 1155 1186 c 0,2,3
 1191 1169 1191 1169 1213 1133 c 0,4,5
 1236 1095 1236 1095 1236 1051 c 0,6,7
 1236 994 1236 994 1199 920 c 0,8,9
 1189 900 1189 900 1165 857 c 1,10,11
 1111 881 1111 881 1032 895 c 1,12,13
 1106 984 1106 984 1106 1029 c 0,14,15
 1106 1078 1106 1078 1019 1082 c 1,16,-1
 650 269 l 1,17,18
 708 291 708 291 779 352 c 1,19,20
 856 420 856 420 914 506 c 1,21,22
 931 490 931 490 958 462 c 0,23,24
 976 444 976 444 1006 415 c 1,25,26
 769 153 769 153 589 135 c 1,27,28
 550 42 550 42 516 -50 c 1,29,30
 498 -47 498 -47 457 -39 c 1,31,32
 414 -32 414 -32 400 -30 c 1,33,34
 452 65 452 65 484 137 c 1,35,36
 442 145 442 145 421 159 c 0,37,38
 333 214 333 214 333 343 c 0,39,40
 333 519 333 519 450 727 c 0,41,42
 568 937 568 937 752 1082 c 0,43,44
 850 1160 850 1160 958 1190 c 1,45,46
 1018 1319 1018 1319 1038 1383 c 1,47,48
 1093 1374 1093 1374 1163 1366 c 1,49,50
 1126 1314 1126 1314 1074 1202 c 1,0,1
537 256 m 1,51,-1
 890 1039 l 1,52,53
 771 960 771 960 654 809 c 0,54,55
 556 682 556 682 507 557 c 0,56,57
 464 447 464 447 464 363 c 0,58,59
 464 272 464 272 537 256 c 1,51,-1
EndSplineSet
EndChar

StartChar: sterling
Encoding: 163 163 101
Width: 1365
VWidth: 2457
Flags: W
LayerCount: 2
Fore
SplineSet
1197 -1 m 1,0,1
 1039 27 1039 27 754 27 c 0,2,3
 561 27 561 27 345 1 c 0,4,5
 194 -17 194 -17 98 -48 c 1,6,-1
 90 -33 l 2,7,8
 75 -3 75 -3 42 52 c 1,9,10
 209 162 209 162 308 284 c 1,11,12
 412 415 412 415 506 654 c 1,13,14
 372 646 372 646 243 609 c 1,15,16
 246 663 246 663 246 705 c 0,17,18
 246 726 246 726 243 748 c 1,19,20
 320 761 320 761 522 781 c 2,21,-1
 561 785 l 1,22,23
 635 971 635 971 673 1046 c 0,24,25
 835 1365 835 1365 1012 1365 c 0,26,27
 1104 1365 1104 1365 1166 1278 c 1,28,29
 1236 1177 1236 1177 1283 957 c 1,30,31
 1248 954 1248 954 1149 925 c 1,32,33
 1109 1243 1109 1243 997 1243 c 0,34,35
 936 1243 936 1243 861 1125 c 0,36,37
 823 1067 823 1067 727 851 c 1,38,-1
 704 798 l 1,39,40
 805 806 805 806 907 806 c 0,41,42
 947 806 947 806 994 805 c 1,43,44
 1014 704 1014 704 1026 670 c 1,45,46
 961 678 961 678 901 678 c 0,47,48
 822 678 822 678 653 670 c 1,49,50
 572 470 572 470 501 351 c 0,51,52
 418 214 418 214 289 99 c 1,53,54
 566 148 566 148 946 148 c 0,55,56
 1088 148 1088 148 1215 136 c 1,57,58
 1202 85 1202 85 1197 -1 c 1,0,1
EndSplineSet
EndChar

StartChar: currency
Encoding: 164 164 102
Width: 1365
VWidth: 2457
Flags: W
LayerCount: 2
Fore
SplineSet
1371 1164 m 1,0,-1
 1440 1048 l 1,1,-1
 1270 930 l 1,2,3
 1276 891 1276 891 1276 869 c 0,4,5
 1276 707 1276 707 1180 537 c 0,6,7
 1130 448 1130 448 1052 368 c 1,8,-1
 1127 239 l 1,9,-1
 1016 161 l 1,10,-1
 947 279 l 1,11,12
 803 183 803 183 640 183 c 0,13,14
 448 183 448 183 347 301 c 1,15,-1
 205 202 l 1,16,-1
 136 317 l 1,17,-1
 288 423 l 1,18,19
 279 469 279 469 279 503 c 0,20,21
 279 692 279 692 403 870 c 1,22,23
 453 940 453 940 521 1002 c 1,24,-1
 449 1127 l 1,25,-1
 560 1205 l 1,26,-1
 631 1082 l 1,27,28
 777 1169 777 1169 933 1169 c 0,29,30
 1121 1169 1121 1169 1214 1054 c 1,31,-1
 1371 1164 l 1,0,-1
919 1063 m 0,32,33
 789 1063 789 1063 674 987 c 0,34,35
 536 895 536 895 460 727 c 0,36,37
 405 606 405 606 405 500 c 0,38,39
 405 378 405 378 496 323 c 0,40,41
 554 288 554 288 642 288 c 0,42,43
 875 288 875 288 1032 513 c 0,44,45
 1096 605 1096 605 1128 714 c 0,46,47
 1151 791 1151 791 1151 858 c 0,48,49
 1151 976 1151 976 1069 1028 c 0,50,51
 1014 1063 1014 1063 919 1063 c 0,32,33
EndSplineSet
EndChar

StartChar: yen
Encoding: 165 165 103
Width: 1365
VWidth: 2457
Flags: W
LayerCount: 2
Fore
SplineSet
606 434 m 1,0,-1
 671 576 l 1,1,2
 514 568 514 568 384 540 c 1,3,4
 395 582 395 582 395 639 c 0,5,6
 395 647 395 647 394 665 c 1,7,-1
 429 668 l 2,8,9
 566 680 566 680 650 686 c 1,10,11
 529 1005 529 1005 470 1384 c 1,12,-1
 605 1462 l 1,13,14
 635 1067 635 1067 783 699 c 1,15,16
 955 905 955 905 1236 1197 c 0,17,18
 1375 1340 1375 1340 1501 1462 c 1,19,-1
 1593 1355 l 1,20,21
 1567 1331 1567 1331 1475 1248 c 1,22,23
 1227 1020 1227 1020 935 698 c 1,24,25
 1024 700 1024 700 1149 700 c 1,26,27
 1149 693 1149 693 1149 690 c 0,28,29
 1149 631 1149 631 1177 578 c 1,30,31
 1079 587 1079 587 997 587 c 0,32,33
 981 587 981 587 813 583 c 1,34,35
 787 535 787 535 746 440 c 1,36,-1
 773 440 l 1,37,38
 921 443 921 443 1038 443 c 1,39,40
 1037 434 1037 434 1037 431 c 0,41,42
 1037 374 1037 374 1065 321 c 1,43,44
 968 330 968 330 876 330 c 0,45,46
 807 330 807 330 694 325 c 1,47,48
 590 108 590 108 523 -105 c 1,49,50
 444 -40 444 -40 405 -17 c 1,51,52
 459 113 459 113 505 215 c 0,53,54
 540 293 540 293 551 318 c 1,55,56
 399 310 399 310 272 284 c 1,57,58
 283 325 283 325 283 384 c 0,59,60
 283 391 283 391 282 408 c 1,61,-1
 316 411 l 2,62,63
 479 426 479 426 606 434 c 1,0,-1
EndSplineSet
EndChar

StartChar: brokenbar
Encoding: 166 166 104
Width: 1024
VWidth: 2457
Flags: W
LayerCount: 2
Fore
SplineSet
836 1365 m 1,0,-1
 979 1365 l 1,1,-1
 684 685 l 1,2,-1
 540 685 l 1,3,-1
 836 1365 l 1,0,-1
379 314 m 1,4,-1
 522 314 l 1,5,-1
 237 -341 l 1,6,-1
 94 -341 l 1,7,-1
 379 314 l 1,4,-1
EndSplineSet
EndChar

StartChar: section
Encoding: 167 167 105
Width: 1365
VWidth: 2457
Flags: W
LayerCount: 2
Fore
SplineSet
1318 1077 m 1,0,1
 1291 1090 1291 1090 1287 1094 c 1,2,3
 1258 1109 1258 1109 1194 1140 c 1,4,5
 1287 1190 1287 1190 1287 1221 c 0,6,7
 1287 1258 1287 1258 1198 1258 c 0,8,9
 1102 1258 1102 1258 963 1229 c 0,10,11
 798 1194 798 1194 700 1142 c 0,12,13
 610 1094 610 1094 610 1057 c 0,14,15
 610 1007 610 1007 741 981 c 0,16,17
 752 979 752 979 826 961 c 0,18,19
 862 953 862 953 906 943 c 0,20,21
 1125 892 1125 892 1206 859 c 0,22,23
 1272 832 1272 832 1318 779 c 0,24,25
 1361 730 1361 730 1361 668 c 0,26,27
 1361 502 1361 502 1100 399 c 0,28,29
 925 330 925 330 718 321 c 1,30,31
 800 307 800 307 858 277 c 0,32,33
 1001 204 1001 204 1001 89 c 0,34,35
 1001 -24 1001 -24 882 -114 c 0,36,37
 774 -195 774 -195 568 -241 c 0,38,39
 417 -274 417 -274 262 -274 c 0,40,41
 -82 -274 -82 -274 -82 -113 c 0,42,43
 -82 -15 -82 -15 35 61 c 0,44,45
 73 86 73 86 159 121 c 1,46,47
 194 89 194 89 274 31 c 1,48,49
 234 18 234 18 183 1 c 0,50,51
 48 -42 48 -42 48 -100 c 0,52,53
 48 -169 48 -169 257 -169 c 0,54,55
 486 -169 486 -169 702 -87 c 0,56,57
 780 -58 780 -58 834 -5 c 0,58,59
 874 34 874 34 874 82 c 0,60,61
 874 148 874 148 778 187 c 0,62,63
 704 217 704 217 459 275 c 0,64,65
 250 324 250 324 200 347 c 0,66,67
 111 388 111 388 111 469 c 0,68,69
 111 633 111 633 419 744 c 0,70,71
 583 804 583 804 821 845 c 1,72,73
 700 874 700 874 633 893 c 0,74,75
 459 940 459 940 459 1037 c 0,76,77
 459 1120 459 1120 583 1203 c 0,78,79
 704 1283 704 1283 914 1329 c 0,80,81
 1072 1364 1072 1364 1212 1364 c 0,82,83
 1319 1364 1319 1364 1375 1328 c 0,84,85
 1432 1291 1432 1291 1432 1233 c 0,86,87
 1432 1154 1432 1154 1318 1077 c 1,0,1
849 837 m 1,88,89
 867 811 867 811 877 793 c 0,90,91
 902 750 902 750 910 738 c 1,92,93
 244 635 244 635 244 477 c 0,94,95
 244 401 244 401 497 401 c 0,96,97
 792 401 792 401 1037 486 c 0,98,99
 1125 516 1125 516 1187 569 c 0,100,101
 1232 608 1232 608 1232 657 c 0,102,103
 1232 721 1232 721 1136 759 c 0,104,105
 1059 789 1059 789 849 837 c 1,88,89
EndSplineSet
EndChar

StartChar: dieresis
Encoding: 168 168 106
Width: 1024
VWidth: 2457
Flags: W
LayerCount: 2
Fore
SplineSet
688 1171 m 1,0,1
 675 1187 675 1187 635 1225 c 0,2,3
 594 1265 594 1265 576 1279 c 1,4,5
 624 1391 624 1391 688 1485 c 1,6,7
 758 1410 758 1410 797 1376 c 1,8,9
 764 1329 764 1329 744 1290 c 1,10,11
 723 1245 723 1245 688 1171 c 1,0,1
989 1171 m 1,12,13
 975 1187 975 1187 935 1225 c 0,14,15
 894 1265 894 1265 876 1279 c 1,16,17
 924 1391 924 1391 989 1485 c 1,18,19
 1058 1410 1058 1410 1098 1376 c 1,20,21
 1064 1329 1064 1329 1045 1290 c 0,22,23
 1023 1245 1023 1245 989 1171 c 1,12,13
EndSplineSet
EndChar

StartChar: copyright
Encoding: 169 169 107
Width: 1751
VWidth: 2457
Flags: W
LayerCount: 2
Fore
SplineSet
1252 582 m 1,0,1
 1017 236 1017 236 800 236 c 0,2,3
 700 236 700 236 646 313 c 0,4,5
 605 371 605 371 605 454 c 0,6,7
 605 604 605 604 696 761 c 0,8,9
 890 1097 890 1097 1309 1134 c 1,10,11
 1327 1067 1327 1067 1352 1020 c 1,12,13
 1144 1020 1144 1020 989 920 c 0,14,15
 866 841 866 841 788 690 c 0,16,17
 729 575 729 575 729 472 c 0,18,19
 729 348 729 348 816 348 c 0,20,21
 909 348 909 348 1027 474 c 0,22,23
 1093 544 1093 544 1162 654 c 1,24,25
 1209 612 1209 612 1252 582 c 1,0,1
983 1418 m 0,26,27
 1182 1418 1182 1418 1361 1309 c 0,28,29
 1541 1199 1541 1199 1635 1015 c 0,30,31
 1716 858 1716 858 1716 680 c 0,32,33
 1716 374 1716 374 1498 157 c 0,34,35
 1393 53 1393 53 1258 -3 c 0,36,37
 1121 -59 1121 -59 973 -59 c 0,38,39
 763 -59 763 -59 585 50 c 0,40,41
 406 159 406 159 311 344 c 0,42,43
 230 501 230 501 230 678 c 0,44,45
 230 889 230 889 339 1066 c 0,46,47
 447 1241 447 1241 636 1337 c 0,48,49
 794 1418 794 1418 983 1418 c 0,26,27
966 1320 m 0,50,51
 794 1320 794 1320 640 1225 c 256,52,53
 486 1130 486 1130 405 970 c 1,54,55
 335 834 335 834 335 680 c 0,56,57
 335 415 335 415 523 227 c 0,58,59
 710 39 710 39 973 39 c 0,60,61
 1237 39 1237 39 1424 227 c 0,62,63
 1611 414 1611 414 1611 678 c 0,64,65
 1611 861 1611 861 1517 1015 c 0,66,67
 1425 1166 1425 1166 1263 1250 c 0,68,69
 1128 1320 1128 1320 966 1320 c 0,50,51
EndSplineSet
EndChar

StartChar: ordfeminine
Encoding: 170 170 108
Width: 910
VWidth: 2457
Flags: W
LayerCount: 2
Fore
SplineSet
814 786 m 1,0,1
 780 793 780 793 765 794 c 0,2,3
 733 796 733 796 708 800 c 1,4,-1
 729 848 l 1,5,6
 783 965 783 965 796 995 c 1,7,8
 733 919 733 919 692 879 c 0,9,10
 603 793 603 793 537 793 c 0,11,12
 500 793 500 793 472 824 c 0,13,14
 449 850 449 850 449 890 c 0,15,16
 449 984 449 984 537 1107 c 0,17,18
 651 1267 651 1267 903 1402 c 1,19,20
 922 1352 922 1352 938 1319 c 1,21,22
 764 1220 764 1220 683 1136 c 0,23,24
 620 1071 620 1071 583 1000 c 0,25,26
 554 946 554 946 554 915 c 0,27,28
 554 890 554 890 579 890 c 0,29,30
 632 890 632 890 781 1077 c 0,31,32
 860 1177 860 1177 929 1296 c 1,33,34
 949 1290 949 1290 976 1284 c 0,35,36
 1003 1277 1003 1277 1023 1274 c 1,37,38
 963 1177 963 1177 932 1104 c 0,39,40
 880 979 880 979 826 820 c 1,41,-1
 814 786 l 1,0,1
773 593 m 1,42,-1
 724 593 l 1,43,44
 493 592 493 592 438 592 c 0,45,46
 412 592 412 592 326 593 c 1,47,48
 348 627 348 627 370 689 c 1,49,50
 494 683 494 683 590 683 c 0,51,52
 691 683 691 683 815 689 c 1,53,54
 793 647 793 647 773 593 c 1,42,-1
EndSplineSet
EndChar

StartChar: guillemotleft
Encoding: 171 171 109
Width: 974
VWidth: 2457
Flags: W
LayerCount: 2
Fore
SplineSet
865 865 m 1,0,1
 898 823 898 823 948 770 c 1,2,3
 826 596 826 596 565 411 c 1,4,5
 688 289 688 289 757 160 c 1,6,7
 748 154 748 154 740 148 c 0,8,9
 701 117 701 117 645 69 c 1,10,11
 541 299 541 299 383 411 c 1,12,13
 522 515 522 515 639 623 c 0,14,15
 805 777 805 777 865 865 c 1,0,1
516 861 m 1,16,17
 548 815 548 815 597 768 c 1,18,19
 541 689 541 689 392 549 c 0,20,21
 360 520 360 520 270 452 c 0,22,23
 248 436 248 436 219 411 c 1,24,25
 341 303 341 303 409 160 c 1,26,27
 337 109 337 109 294 62 c 1,28,29
 256 162 256 162 196 245 c 0,30,31
 152 306 152 306 42 411 c 1,32,33
 386 670 386 670 516 861 c 1,16,17
EndSplineSet
EndChar

StartChar: logicalnot
Encoding: 172 172 110
Width: 1024
VWidth: 2457
Flags: W
LayerCount: 2
Fore
SplineSet
615 0 m 1,0,-1
 794 412 l 1,1,-1
 50 412 l 1,2,-1
 108 546 l 1,3,-1
 996 546 l 1,4,-1
 758 0 l 1,5,-1
 615 0 l 1,0,-1
EndSplineSet
EndChar

StartChar: sfthyphen
Encoding: 173 173 111
Width: 500
VWidth: 2457
Flags: W
LayerCount: 2
Fore
SplineSet
472 408 m 1,0,-1
 420 408 l 1,1,-1
 224 405 l 2,2,3
 199 405 199 405 -23 408 c 1,4,5
 0 443 0 443 35 551 c 1,6,7
 153 541 153 541 323 541 c 0,8,9
 427 541 427 541 519 551 c 1,10,11
 512 531 512 531 494 481 c 0,12,13
 486 459 486 459 472 408 c 1,0,-1
EndSplineSet
EndChar

StartChar: registered
Encoding: 174 174 112
Width: 1751
VWidth: 2457
Flags: W
LayerCount: 2
Fore
SplineSet
1224 239 m 1,0,-1
 1212 253 l 1,1,2
 1043 464 1043 464 872 725 c 1,3,-1
 718 364 l 1,4,5
 680 270 680 270 667 239 c 1,6,7
 612 272 612 272 565 294 c 1,8,-1
 891 1036 l 1,9,10
 806 1032 806 1032 706 1000 c 1,11,12
 699 1036 699 1036 679 1099 c 1,13,14
 900 1145 900 1145 1088 1145 c 0,15,16
 1219 1145 1219 1145 1293 1111 c 0,17,18
 1382 1069 1382 1069 1382 988 c 0,19,20
 1382 811 1382 811 987 732 c 1,21,22
 1035 657 1035 657 1145 514 c 1,23,24
 1257 371 1257 371 1329 304 c 1,25,26
 1275 272 1275 272 1224 239 c 1,0,-1
909 809 m 1,27,28
 1034 828 1034 828 1132 865 c 0,29,30
 1260 914 1260 914 1260 976 c 0,31,32
 1260 1048 1260 1048 1077 1048 c 0,33,34
 1049 1048 1049 1048 1011 1044 c 1,35,-1
 909 809 l 1,27,28
983 1418 m 0,36,37
 1182 1418 1182 1418 1361 1309 c 0,38,39
 1541 1199 1541 1199 1635 1015 c 0,40,41
 1716 858 1716 858 1716 680 c 0,42,43
 1716 374 1716 374 1498 157 c 0,44,45
 1393 53 1393 53 1258 -3 c 0,46,47
 1121 -59 1121 -59 973 -59 c 0,48,49
 763 -59 763 -59 585 50 c 0,50,51
 406 159 406 159 311 344 c 0,52,53
 230 501 230 501 230 678 c 0,54,55
 230 889 230 889 339 1066 c 0,56,57
 447 1241 447 1241 636 1337 c 0,58,59
 794 1418 794 1418 983 1418 c 0,36,37
966 1320 m 0,60,61
 794 1320 794 1320 640 1225 c 256,62,63
 486 1130 486 1130 405 970 c 1,64,65
 335 834 335 834 335 680 c 0,66,67
 335 415 335 415 523 227 c 0,68,69
 710 39 710 39 973 39 c 0,70,71
 1237 39 1237 39 1424 227 c 0,72,73
 1611 414 1611 414 1611 678 c 0,74,75
 1611 861 1611 861 1517 1015 c 0,76,77
 1425 1166 1425 1166 1263 1250 c 0,78,79
 1128 1320 1128 1320 966 1320 c 0,60,61
EndSplineSet
EndChar

StartChar: overscore
Encoding: 175 175 113
Width: 1024
VWidth: 2457
Flags: W
LayerCount: 2
Fore
SplineSet
569 1764 m 1,0,-1
 1593 1764 l 1,1,-1
 1537 1635 l 1,2,-1
 513 1635 l 1,3,-1
 569 1764 l 1,0,-1
EndSplineSet
EndChar

StartChar: degree
Encoding: 176 176 114
Width: 799
VWidth: 2457
Flags: W
LayerCount: 2
Fore
SplineSet
611 1401 m 0,0,1
 767 1401 767 1401 876 1281 c 0,2,3
 967 1181 967 1181 967 1047 c 0,4,5
 967 890 967 890 849 784 c 0,6,7
 746 691 746 691 605 691 c 0,8,9
 452 691 452 691 345 800 c 0,10,11
 243 903 243 903 243 1049 c 0,12,13
 243 1202 243 1202 361 1308 c 0,14,15
 464 1401 464 1401 611 1401 c 0,0,1
601 1296 m 0,16,17
 492 1296 492 1296 414 1212 c 0,18,19
 350 1142 350 1142 350 1046 c 0,20,21
 350 945 350 945 421 873 c 0,22,23
 496 796 496 796 605 796 c 0,24,25
 719 796 719 796 796 880 c 0,26,27
 860 951 860 951 860 1048 c 0,28,29
 860 1155 860 1155 777 1230 c 0,30,31
 704 1296 704 1296 601 1296 c 0,16,17
EndSplineSet
EndChar

StartChar: plusminus
Encoding: 177 177 115
Width: 1365
VWidth: 2457
Flags: W
LayerCount: 2
Fore
SplineSet
336 893 m 1,0,-1
 807 893 l 1,1,-1
 981 1293 l 1,2,-1
 1126 1293 l 1,3,-1
 952 893 l 1,4,-1
 1423 893 l 1,5,-1
 1369 768 l 1,6,-1
 898 768 l 1,7,-1
 725 372 l 1,8,-1
 581 372 l 1,9,-1
 753 768 l 1,10,-1
 282 768 l 1,11,-1
 336 893 l 1,0,-1
45 225 m 1,12,-1
 1133 225 l 1,13,-1
 1078 100 l 1,14,-1
 -9 100 l 1,15,-1
 45 225 l 1,12,-1
EndSplineSet
EndChar

StartChar: twosuperior
Encoding: 178 178 116
Width: 894
VWidth: 2457
Flags: W
LayerCount: 2
Fore
SplineSet
872 504 m 1,0,1
 706 519 706 519 608 519 c 0,2,3
 434 519 434 519 346 507 c 0,4,5
 274 497 274 497 196 474 c 1,6,7
 170 521 170 521 140 548 c 1,8,9
 237 586 237 586 348 663 c 0,10,11
 581 825 581 825 786 1017 c 0,12,13
 920 1142 920 1142 920 1223 c 0,14,15
 920 1243 920 1243 905 1257 c 0,16,17
 892 1269 892 1269 873 1269 c 0,18,19
 759 1269 759 1269 592 998 c 1,20,21
 574 1018 574 1018 553 1039 c 256,22,23
 532 1060 532 1060 518 1076 c 1,24,25
 607 1192 607 1192 668 1249 c 0,26,27
 781 1355 781 1355 890 1355 c 0,28,29
 949 1355 949 1355 985 1319 c 0,30,31
 1017 1286 1017 1286 1017 1239 c 0,32,33
 1017 1094 1017 1094 743 860 c 0,34,35
 547 693 547 693 397 593 c 1,36,37
 410 594 410 594 493 601 c 0,38,39
 592 610 592 610 713 610 c 0,40,41
 753 610 753 610 852 606 c 1,42,43
 860 571 860 571 872 504 c 1,0,1
EndSplineSet
EndChar

StartChar: threesuperior
Encoding: 179 179 117
Width: 894
VWidth: 2457
Flags: W
LayerCount: 2
Fore
SplineSet
203 543 m 1,0,1
 203 549 203 549 203 553 c 0,2,3
 203 594 203 594 186 651 c 1,4,5
 303 594 303 594 431 594 c 0,6,7
 627 594 627 594 759 682 c 1,8,9
 818 720 818 720 851 784 c 0,10,11
 871 822 871 822 871 864 c 0,12,13
 871 943 871 943 795 988 c 0,14,15
 728 1027 728 1027 629 1027 c 0,16,17
 536 1027 536 1027 449 991 c 1,18,19
 443 1002 443 1002 431 1027 c 1,20,21
 424 1037 424 1037 409 1062 c 1,22,23
 494 1101 494 1101 547 1130 c 2,24,-1
 766 1253 l 1,25,26
 627 1240 627 1240 503 1240 c 0,27,28
 487 1240 487 1240 453 1241 c 1,29,30
 451 1252 451 1252 446 1283 c 0,31,32
 444 1295 444 1295 434 1330 c 1,33,34
 499 1324 499 1324 567 1324 c 0,35,36
 790 1324 790 1324 934 1361 c 1,37,38
 938 1318 938 1318 962 1261 c 1,39,40
 941 1250 941 1250 898 1227 c 1,41,-1
 848 1202 l 1,42,-1
 667 1102 l 1,43,44
 765 1101 765 1101 835 1069 c 0,45,46
 899 1039 899 1039 935 989 c 0,47,48
 974 935 974 935 974 875 c 0,49,50
 974 779 974 779 900 688 c 1,51,52
 821 593 821 593 672 543 c 1,53,54
 561 507 561 507 437 507 c 0,55,56
 311 507 311 507 203 543 c 1,0,1
EndSplineSet
EndChar

StartChar: acute
Encoding: 180 180 118
Width: 1024
VWidth: 2457
Flags: W
LayerCount: 2
Fore
SplineSet
1209 1402 m 1,0,1
 972 1317 972 1317 731 1157 c 1,2,3
 707 1230 707 1230 677 1273 c 1,4,5
 894 1413 894 1413 1163 1530 c 1,6,7
 1180 1455 1180 1455 1209 1402 c 1,0,1
EndSplineSet
EndChar

StartChar: mu
Encoding: 181 181 119
Width: 880
VWidth: 2457
Flags: W
LayerCount: 2
Fore
SplineSet
13 -32 m 1,0,-1
 2 -64 l 2,1,2
 -67 -266 -67 -266 -84 -326 c 1,3,4
 -157 -268 -157 -268 -196 -246 c 1,5,6
 -158 -176 -158 -176 -46 78 c 1,7,8
 163 546 163 546 228 679 c 0,9,10
 265 753 265 753 375 963 c 0,11,12
 397 1006 397 1006 419 1049 c 1,13,14
 436 1038 436 1038 480 1016 c 0,15,16
 528 991 528 991 550 981 c 1,17,18
 406 733 406 733 317 561 c 0,19,20
 249 429 249 429 114 153 c 1,21,22
 509 468 509 468 877 1022 c 1,23,24
 946 977 946 977 997 952 c 1,25,26
 851 721 851 721 744 485 c 1,27,28
 675 336 675 336 520 -68 c 1,29,30
 507 -59 507 -59 455 -25 c 1,31,32
 413 -1 413 -1 398 10 c 1,33,34
 414 49 414 49 506 248 c 0,35,36
 597 445 597 445 623 501 c 1,37,38
 472 311 472 311 186 62 c 1,39,40
 102 -13 102 -13 55 -68 c 1,41,-1
 37 -53 l 1,42,-1
 13 -32 l 1,0,-1
EndSplineSet
EndChar

StartChar: paragraph
Encoding: 182 182 120
Width: 1365
VWidth: 2457
Flags: W
LayerCount: 2
Fore
SplineSet
654 772 m 1,0,1
 547 774 547 774 495 792 c 0,2,3
 412 820 412 820 368 884 c 0,4,5
 331 938 331 938 331 995 c 0,6,7
 331 1106 331 1106 443 1214 c 0,8,9
 585 1351 585 1351 825 1375 c 1,10,11
 884 1382 884 1382 1122 1387 c 0,12,13
 1403 1394 1403 1394 1514 1407 c 1,14,15
 1512 1392 1512 1392 1512 1365 c 0,16,17
 1512 1302 1512 1302 1514 1285 c 1,18,19
 1456 1279 1456 1279 1338 1272 c 1,20,-1
 1324 1238 l 1,21,-1
 1196 942 l 1,22,-1
 1030 546 l 1,23,-1
 882 195 l 1,24,25
 730 -175 730 -175 656 -347 c 1,26,27
 612 -310 612 -310 602 -303 c 0,28,29
 564 -274 564 -274 553 -264 c 1,30,-1
 570 -226 l 1,31,32
 695 67 695 67 896 545 c 1,33,-1
 1025 854 l 1,34,-1
 1150 1155 l 1,35,-1
 1195 1264 l 1,36,37
 1119 1263 1119 1263 995 1258 c 1,38,-1
 978 1219 l 1,39,-1
 864 953 l 1,40,-1
 696 553 l 1,41,-1
 547 200 l 1,42,43
 394 -173 394 -173 319 -347 c 1,44,45
 275 -310 275 -310 265 -303 c 0,46,47
 227 -274 227 -274 216 -264 c 1,48,-1
 233 -225 l 1,49,50
 363 80 363 80 568 567 c 1,51,-1
 643 747 l 1,52,-1
 654 772 l 1,0,1
EndSplineSet
EndChar

StartChar: middot
Encoding: 183 183 121
Width: 445
VWidth: 2457
Flags: W
LayerCount: 2
Fore
SplineSet
348 585 m 1,0,1
 325 537 325 537 247 297 c 1,2,3
 224 316 224 316 183 344 c 0,4,5
 153 364 153 364 129 383 c 1,6,7
 199 566 199 566 232 659 c 1,8,9
 269 632 269 632 348 585 c 1,0,1
EndSplineSet
EndChar

StartChar: cedilla
Encoding: 184 184 122
Width: 1024
VWidth: 2457
Flags: W
LayerCount: 2
Fore
SplineSet
409 0 m 1,0,-1
 304 -176 l 1,1,2
 388 -201 388 -201 388 -268 c 0,3,4
 388 -334 388 -334 344 -396 c 0,5,6
 293 -468 293 -468 187 -497 c 0,7,8
 127 -514 127 -514 69 -514 c 0,9,10
 44 -514 44 -514 7 -508 c 1,11,12
 19 -492 19 -492 37 -458 c 0,13,14
 54 -427 54 -427 59 -411 c 1,15,16
 96 -415 96 -415 108 -415 c 0,17,18
 168 -415 168 -415 218 -380 c 0,19,20
 271 -343 271 -343 271 -295 c 0,21,22
 271 -251 271 -251 219 -239 c 0,23,24
 203 -235 203 -235 165 -233 c 1,25,-1
 302 0 l 1,26,-1
 409 0 l 1,0,-1
EndSplineSet
EndChar

StartChar: onesuperior
Encoding: 185 185 123
Width: 894
VWidth: 2457
Flags: W
LayerCount: 2
Fore
SplineSet
495 591 m 1,0,1
 598 830 598 830 745 1146 c 1,2,-1
 754 1167 l 1,3,4
 649 1079 649 1079 570 1029 c 1,5,6
 551 1079 551 1079 531 1112 c 1,7,8
 740 1228 740 1228 857 1386 c 1,9,10
 870 1377 870 1377 895 1356 c 1,11,12
 912 1344 912 1344 934 1328 c 1,13,14
 892 1255 892 1255 780 1011 c 0,15,16
 698 834 698 834 596 589 c 1,17,18
 623 589 623 589 709 589 c 1,19,-1
 773 588 l 1,20,-1
 787 588 l 1,21,-1
 807 588 l 1,22,23
 808 575 808 575 810 546 c 0,24,25
 811 533 811 533 815 499 c 1,26,27
 606 507 606 507 360 507 c 0,28,29
 315 507 315 507 266 504 c 1,30,31
 268 520 268 520 268 536 c 0,32,33
 268 566 268 566 267 590 c 1,34,35
 310 592 310 592 326 592 c 2,36,-1
 381 591 l 1,37,-1
 469 591 l 1,38,-1
 495 591 l 1,0,1
EndSplineSet
EndChar

StartChar: ordmasculine
Encoding: 186 186 124
Width: 910
VWidth: 2457
Flags: W
LayerCount: 2
Fore
SplineSet
837 1382 m 0,0,1
 890 1382 890 1382 931 1348 c 0,2,3
 967 1317 967 1317 967 1255 c 0,4,5
 967 1176 967 1176 912 1062 c 0,6,7
 846 927 846 927 765 857 c 0,8,9
 694 795 694 795 621 795 c 0,10,11
 561 795 561 795 524 836 c 0,12,13
 493 871 493 871 493 920 c 0,14,15
 493 1009 493 1009 558 1134 c 0,16,17
 621 1254 621 1254 705 1327 c 1,18,19
 770 1382 770 1382 837 1382 c 0,0,1
826 1287 m 0,20,21
 774 1287 774 1287 700 1181 c 0,22,23
 657 1118 657 1118 626 1039 c 0,24,25
 598 970 598 970 598 931 c 0,26,27
 598 890 598 890 632 890 c 0,28,29
 688 890 688 890 764 1001 c 0,30,31
 795 1047 795 1047 832 1130 c 0,32,33
 863 1201 863 1201 863 1244 c 256,34,35
 863 1287 863 1287 826 1287 c 0,20,21
759 593 m 1,36,-1
 710 593 l 1,37,38
 479 592 479 592 424 592 c 0,39,40
 398 592 398 592 312 593 c 1,41,42
 334 627 334 627 356 689 c 1,43,44
 480 683 480 683 576 683 c 0,45,46
 677 683 677 683 801 689 c 1,47,48
 779 647 779 647 759 593 c 1,36,-1
EndSplineSet
EndChar

StartChar: guillemotright
Encoding: 187 187 125
Width: 974
VWidth: 2457
Flags: W
LayerCount: 2
Fore
SplineSet
102 62 m 1,0,1
 71 101 71 101 31 143 c 2,2,-1
 19 156 l 1,3,4
 141 331 141 331 402 516 c 1,5,6
 279 638 279 638 210 766 c 1,7,8
 218 773 218 773 227 779 c 0,9,10
 266 810 266 810 322 858 c 1,11,12
 424 628 424 628 583 516 c 1,13,14
 445 412 445 412 327 304 c 1,15,16
 163 151 163 151 102 62 c 1,0,1
450 66 m 1,17,18
 418 112 418 112 370 159 c 1,19,20
 426 238 426 238 575 378 c 0,21,22
 606 406 606 406 696 475 c 0,23,24
 718 491 718 491 748 516 c 1,25,26
 624 625 624 625 558 767 c 1,27,28
 631 819 631 819 672 865 c 1,29,30
 711 765 711 765 771 682 c 0,31,32
 815 621 815 621 925 516 c 1,33,34
 582 257 582 257 450 66 c 1,17,18
EndSplineSet
EndChar

StartChar: onequarter
Encoding: 188 188 126
Width: 1964
VWidth: 2457
Flags: W
LayerCount: 2
Fore
SplineSet
495 591 m 1,0,1
 598 830 598 830 745 1146 c 1,2,-1
 754 1167 l 1,3,4
 649 1079 649 1079 570 1029 c 1,5,6
 551 1079 551 1079 531 1112 c 1,7,8
 740 1228 740 1228 857 1386 c 1,9,10
 870 1377 870 1377 895 1356 c 1,11,12
 912 1344 912 1344 934 1328 c 1,13,14
 892 1255 892 1255 780 1011 c 0,15,16
 698 834 698 834 596 589 c 1,17,18
 623 589 623 589 709 589 c 1,19,-1
 773 588 l 1,20,-1
 787 588 l 1,21,-1
 807 588 l 1,22,23
 808 575 808 575 810 546 c 0,24,25
 811 533 811 533 815 499 c 1,26,27
 606 507 606 507 360 507 c 0,28,29
 315 507 315 507 266 504 c 1,30,31
 268 520 268 520 268 536 c 0,32,33
 268 566 268 566 267 590 c 1,34,35
 310 592 310 592 326 592 c 2,36,-1
 381 591 l 1,37,-1
 469 591 l 1,38,-1
 495 591 l 1,0,1
1589 1281 m 1,39,40
 1467 1125 1467 1125 1386 1011 c 0,41,42
 957 415 957 415 865 280 c 0,43,44
 752 115 752 115 644 -77 c 1,45,46
 574 -10 574 -10 544 7 c 1,47,48
 604 89 604 89 738 279 c 1,49,50
 828 412 828 412 922 539 c 1,51,52
 1135 837 1135 837 1341 1144 c 0,53,54
 1436 1285 1436 1285 1484 1373 c 1,55,56
 1549 1310 1549 1310 1589 1281 c 1,39,40
1470 -55 m 1,57,58
 1450 -46 1450 -46 1416 -30 c 2,59,-1
 1388 -17 l 1,60,-1
 1372 -10 l 1,61,62
 1416 77 1416 77 1488 239 c 1,63,64
 1463 239 1463 239 1450 239 c 0,65,66
 1292 239 1292 239 1129 224 c 1,67,68
 1117 237 1117 237 1096 263 c 0,69,70
 1081 281 1081 281 1062 302 c 1,71,72
 1214 392 1214 392 1434 564 c 0,73,74
 1624 712 1624 712 1707 796 c 0,75,76
 1748 838 1748 838 1803 896 c 1,77,78
 1815 881 1815 881 1831 855 c 1,79,80
 1854 825 1854 825 1864 811 c 1,81,82
 1832 765 1832 765 1772 635 c 1,83,-1
 1634 328 l 1,84,85
 1742 328 1742 328 1852 320 c 1,86,87
 1855 293 1855 293 1869 222 c 1,88,89
 1779 234 1779 234 1591 238 c 1,90,91
 1579 214 1579 214 1556 161 c 0,92,93
 1536 113 1536 113 1516 67 c 0,94,95
 1485 -6 1485 -6 1470 -55 c 1,57,58
1529 327 m 1,96,97
 1540 352 1540 352 1592 463 c 0,98,99
 1668 626 1668 626 1692 673 c 1,100,101
 1584 574 1584 574 1485 496 c 0,102,103
 1322 369 1322 369 1232 315 c 1,104,105
 1411 325 1411 325 1529 327 c 1,96,97
EndSplineSet
EndChar

StartChar: onehalf
Encoding: 189 189 127
Width: 1964
VWidth: 2457
Flags: W
LayerCount: 2
Fore
SplineSet
495 591 m 1,0,1
 598 830 598 830 745 1146 c 1,2,-1
 754 1167 l 1,3,4
 649 1079 649 1079 570 1029 c 1,5,6
 551 1079 551 1079 531 1112 c 1,7,8
 740 1228 740 1228 857 1386 c 1,9,10
 870 1377 870 1377 895 1356 c 1,11,12
 912 1344 912 1344 934 1328 c 1,13,14
 892 1255 892 1255 780 1011 c 0,15,16
 698 834 698 834 596 589 c 1,17,18
 623 589 623 589 709 589 c 1,19,-1
 773 588 l 1,20,-1
 787 588 l 1,21,-1
 807 588 l 1,22,23
 808 575 808 575 810 546 c 0,24,25
 811 533 811 533 815 499 c 1,26,27
 606 507 606 507 360 507 c 0,28,29
 315 507 315 507 266 504 c 1,30,31
 268 520 268 520 268 536 c 0,32,33
 268 566 268 566 267 590 c 1,34,35
 310 592 310 592 326 592 c 2,36,-1
 381 591 l 1,37,-1
 469 591 l 1,38,-1
 495 591 l 1,0,1
1589 1281 m 1,39,40
 1467 1125 1467 1125 1386 1011 c 0,41,42
 957 415 957 415 865 280 c 0,43,44
 752 115 752 115 644 -77 c 1,45,46
 574 -10 574 -10 544 7 c 1,47,48
 604 89 604 89 738 279 c 1,49,50
 828 412 828 412 922 539 c 1,51,52
 1135 837 1135 837 1341 1144 c 0,53,54
 1436 1285 1436 1285 1484 1373 c 1,55,56
 1549 1310 1549 1310 1589 1281 c 1,39,40
1714 -18 m 1,57,58
 1544 -3 1544 -3 1450 -3 c 0,59,60
 1277 -3 1277 -3 1188 -15 c 0,61,62
 1114 -25 1114 -25 1038 -48 c 1,63,64
 1012 0 1012 0 982 27 c 1,65,66
 1079 65 1079 65 1190 142 c 0,67,68
 1424 305 1424 305 1628 496 c 0,69,70
 1762 621 1762 621 1762 702 c 0,71,72
 1762 722 1762 722 1747 736 c 0,73,74
 1734 748 1734 748 1715 748 c 0,75,76
 1601 748 1601 748 1434 477 c 1,77,78
 1416 496 1416 496 1395 518 c 1,79,80
 1374 538 1374 538 1360 554 c 1,81,82
 1448 669 1448 669 1510 728 c 0,83,84
 1622 834 1622 834 1732 834 c 0,85,86
 1791 834 1791 834 1827 798 c 0,87,88
 1859 765 1859 765 1859 718 c 0,89,90
 1859 575 1859 575 1584 339 c 0,91,92
 1392 174 1392 174 1239 72 c 1,93,94
 1252 73 1252 73 1334 80 c 0,95,96
 1433 88 1433 88 1556 88 c 0,97,98
 1597 88 1597 88 1694 84 c 1,99,100
 1701 50 1701 50 1714 -18 c 1,57,58
EndSplineSet
EndChar

StartChar: threequarters
Encoding: 190 190 128
Width: 1964
VWidth: 2457
Flags: W
LayerCount: 2
Fore
SplineSet
203 543 m 1,0,1
 203 549 203 549 203 553 c 0,2,3
 203 594 203 594 186 651 c 1,4,5
 303 594 303 594 431 594 c 0,6,7
 627 594 627 594 759 682 c 1,8,9
 818 720 818 720 851 784 c 0,10,11
 871 822 871 822 871 864 c 0,12,13
 871 943 871 943 795 988 c 0,14,15
 728 1027 728 1027 629 1027 c 0,16,17
 536 1027 536 1027 449 991 c 1,18,19
 443 1002 443 1002 431 1027 c 1,20,21
 424 1037 424 1037 409 1062 c 1,22,23
 494 1101 494 1101 547 1130 c 2,24,-1
 766 1253 l 1,25,26
 627 1240 627 1240 503 1240 c 0,27,28
 487 1240 487 1240 453 1241 c 1,29,30
 451 1252 451 1252 446 1283 c 0,31,32
 444 1295 444 1295 434 1330 c 1,33,34
 499 1324 499 1324 567 1324 c 0,35,36
 790 1324 790 1324 934 1361 c 1,37,38
 938 1318 938 1318 962 1261 c 1,39,40
 941 1250 941 1250 898 1227 c 1,41,-1
 848 1202 l 1,42,-1
 667 1102 l 1,43,44
 765 1101 765 1101 835 1069 c 0,45,46
 899 1039 899 1039 935 989 c 0,47,48
 974 935 974 935 974 875 c 0,49,50
 974 779 974 779 900 688 c 1,51,52
 821 593 821 593 672 543 c 1,53,54
 561 507 561 507 437 507 c 0,55,56
 311 507 311 507 203 543 c 1,0,1
1590 1281 m 1,57,58
 1468 1125 1468 1125 1387 1011 c 0,59,60
 958 415 958 415 866 280 c 1,61,62
 752 115 752 115 645 -77 c 1,63,64
 574 -10 574 -10 545 7 c 1,65,66
 605 89 605 89 738 279 c 0,67,68
 830 410 830 410 923 539 c 0,69,70
 1136 837 1136 837 1342 1144 c 0,71,72
 1437 1285 1437 1285 1485 1373 c 1,73,74
 1550 1310 1550 1310 1590 1281 c 1,57,58
1471 -55 m 1,75,76
 1451 -46 1451 -46 1417 -30 c 2,77,-1
 1389 -17 l 1,78,-1
 1373 -10 l 1,79,80
 1417 77 1417 77 1489 239 c 1,81,82
 1464 239 1464 239 1451 239 c 0,83,84
 1293 239 1293 239 1129 224 c 1,85,86
 1117 237 1117 237 1097 263 c 0,87,88
 1082 281 1082 281 1063 302 c 1,89,90
 1215 392 1215 392 1435 564 c 0,91,92
 1625 712 1625 712 1708 796 c 0,93,94
 1749 838 1749 838 1804 896 c 1,95,96
 1815 881 1815 881 1832 855 c 1,97,98
 1855 825 1855 825 1864 811 c 1,99,100
 1832 765 1832 765 1773 635 c 2,101,-1
 1634 328 l 1,102,103
 1743 328 1743 328 1852 320 c 1,104,105
 1856 293 1856 293 1869 222 c 1,106,107
 1779 234 1779 234 1592 238 c 1,108,109
 1580 214 1580 214 1557 161 c 0,110,111
 1537 113 1537 113 1517 67 c 0,112,113
 1486 -6 1486 -6 1471 -55 c 1,75,76
1529 327 m 1,114,115
 1541 352 1541 352 1593 463 c 0,116,117
 1669 626 1669 626 1693 673 c 1,118,119
 1585 574 1585 574 1486 496 c 1,120,121
 1322 369 1322 369 1233 315 c 1,122,123
 1411 325 1411 325 1529 327 c 1,114,115
EndSplineSet
EndChar

StartChar: questiondown
Encoding: 191 191 129
Width: 700
VWidth: 2457
Flags: W
LayerCount: 2
Fore
SplineSet
395 771 m 1,0,1
 413 807 413 807 448 871 c 0,2,3
 486 941 486 941 509 996 c 1,4,5
 524 970 524 970 561 915 c 0,6,7
 591 871 591 871 603 854 c 1,8,9
 543 762 543 762 482 645 c 1,10,11
 471 660 471 660 442 702 c 1,12,13
 410 746 410 746 395 771 c 1,0,1
436 628 m 1,14,15
 456 588 456 588 505 526 c 1,16,17
 414 432 414 432 333 351 c 0,18,19
 251 268 251 268 113 97 c 0,20,21
 -127 -203 -127 -203 -127 -329 c 0,22,23
 -127 -350 -127 -350 -115 -364 c 0,24,25
 -100 -382 -100 -382 -74 -382 c 0,26,27
 -7 -382 -7 -382 126 -278 c 0,28,29
 188 -229 188 -229 355 -60 c 1,30,-1
 385 -29 l 1,31,-1
 392 -49 l 1,32,33
 410 -106 410 -106 433 -158 c 1,34,35
 317 -279 317 -279 194 -372 c 0,36,37
 17 -507 17 -507 -107 -507 c 0,38,39
 -171 -507 -171 -507 -211 -463 c 0,40,41
 -244 -428 -244 -428 -244 -362 c 0,42,43
 -244 -227 -244 -227 -139 -57 c 0,44,45
 70 283 70 283 436 628 c 1,14,15
EndSplineSet
EndChar

StartChar: Agrave
Encoding: 192 192 130
Width: 1388
VWidth: 2457
Flags: W
LayerCount: 2
Fore
SplineSet
1203 -26 m 1,0,1
 1141 -39 1141 -39 1055 -73 c 1,2,3
 1052 -13 1052 -13 1052 43 c 0,4,5
 1052 181 1052 181 1063 543 c 1,6,-1
 1065 599 l 1,7,8
 995 594 995 594 883 587 c 0,9,10
 747 579 747 579 578 566 c 1,11,12
 544 528 544 528 388 350 c 0,13,14
 216 154 216 154 -20 -73 c 1,15,16
 -61 -10 -61 -10 -106 32 c 1,17,18
 -58 81 -58 81 86 216 c 1,19,20
 112 237 112 237 317 459 c 0,21,22
 357 502 357 502 403 554 c 1,23,24
 355 552 355 552 222 545 c 0,25,26
 90 539 90 539 44 536 c 1,27,28
 30 616 30 616 15 668 c 1,29,-1
 53 669 l 1,30,31
 269 670 269 670 521 687 c 1,32,-1
 584 762 l 1,33,34
 972 1218 972 1218 1128 1448 c 1,35,-1
 1147 1437 l 2,36,37
 1216 1396 1216 1396 1243 1386 c 1,38,39
 1211 1168 1211 1168 1199 791 c 1,40,-1
 1196 727 l 1,41,42
 1259 729 1259 729 1308 734 c 1,43,44
 1313 718 1313 718 1323 674 c 0,45,46
 1328 651 1328 651 1343 604 c 1,47,48
 1306 606 1306 606 1286 606 c 0,49,50
 1271 606 1271 606 1193 603 c 1,51,-1
 1193 530 l 1,52,-1
 1191 271 l 1,53,54
 1191 133 1191 133 1203 -26 c 1,0,1
1068 718 m 1,55,56
 1072 770 1072 770 1083 977 c 0,57,58
 1088 1060 1088 1060 1104 1216 c 1,59,60
 1064 1166 1064 1166 971 1047 c 1,61,62
 758 785 758 785 686 696 c 1,63,64
 729 697 729 697 875 706 c 1,65,66
 1023 714 1023 714 1068 718 c 1,55,56
1054 1874 m 1,67,68
 1097 1809 1097 1809 1191 1708 c 0,69,70
 1275 1619 1275 1619 1337 1570 c 1,71,72
 1264 1523 1264 1523 1233 1498 c 1,73,74
 1115 1589 1115 1589 939 1803 c 1,75,76
 951 1810 951 1810 992 1835 c 1,77,78
 1040 1866 1040 1866 1054 1874 c 1,67,68
EndSplineSet
EndChar

StartChar: Aacute
Encoding: 193 193 131
Width: 1388
VWidth: 2457
Flags: W
LayerCount: 2
Fore
SplineSet
1203 -26 m 1,0,1
 1141 -39 1141 -39 1055 -73 c 1,2,3
 1052 -13 1052 -13 1052 43 c 0,4,5
 1052 181 1052 181 1063 543 c 1,6,-1
 1065 599 l 1,7,8
 995 594 995 594 883 587 c 0,9,10
 747 579 747 579 578 566 c 1,11,12
 544 528 544 528 388 350 c 0,13,14
 216 154 216 154 -20 -73 c 1,15,16
 -61 -10 -61 -10 -106 32 c 1,17,18
 -58 81 -58 81 86 216 c 1,19,20
 112 237 112 237 317 459 c 0,21,22
 357 502 357 502 403 554 c 1,23,24
 355 552 355 552 222 545 c 0,25,26
 90 539 90 539 44 536 c 1,27,28
 30 616 30 616 15 668 c 1,29,-1
 53 669 l 1,30,31
 269 670 269 670 521 687 c 1,32,-1
 584 762 l 1,33,34
 972 1218 972 1218 1128 1448 c 1,35,-1
 1147 1437 l 2,36,37
 1216 1396 1216 1396 1243 1386 c 1,38,39
 1211 1168 1211 1168 1199 791 c 1,40,-1
 1196 727 l 1,41,42
 1259 729 1259 729 1308 734 c 1,43,44
 1313 718 1313 718 1323 674 c 0,45,46
 1328 651 1328 651 1343 604 c 1,47,48
 1306 606 1306 606 1286 606 c 0,49,50
 1271 606 1271 606 1193 603 c 1,51,-1
 1193 530 l 1,52,-1
 1191 271 l 1,53,54
 1191 133 1191 133 1203 -26 c 1,0,1
1068 718 m 1,55,56
 1072 770 1072 770 1083 977 c 0,57,58
 1088 1060 1088 1060 1104 1216 c 1,59,60
 1064 1166 1064 1166 971 1047 c 1,61,62
 758 785 758 785 686 696 c 1,63,64
 729 697 729 697 875 706 c 1,65,66
 1023 714 1023 714 1068 718 c 1,55,56
1552 1743 m 1,67,68
 1316 1658 1316 1658 1075 1498 c 1,69,70
 1051 1571 1051 1571 1021 1614 c 1,71,72
 1237 1754 1237 1754 1507 1871 c 1,73,74
 1524 1796 1524 1796 1552 1743 c 1,67,68
EndSplineSet
EndChar

StartChar: Acircumflex
Encoding: 194 194 132
Width: 1388
VWidth: 2457
Flags: W
LayerCount: 2
Fore
SplineSet
1203 -26 m 1,0,1
 1141 -39 1141 -39 1055 -73 c 1,2,3
 1052 -13 1052 -13 1052 43 c 0,4,5
 1052 181 1052 181 1063 543 c 1,6,-1
 1065 599 l 1,7,8
 995 594 995 594 883 587 c 0,9,10
 747 579 747 579 578 566 c 1,11,12
 544 528 544 528 388 350 c 0,13,14
 216 154 216 154 -20 -73 c 1,15,16
 -61 -10 -61 -10 -106 32 c 1,17,18
 -58 81 -58 81 86 216 c 1,19,20
 112 237 112 237 317 459 c 0,21,22
 357 502 357 502 403 554 c 1,23,24
 355 552 355 552 222 545 c 0,25,26
 90 539 90 539 44 536 c 1,27,28
 30 616 30 616 15 668 c 1,29,-1
 53 669 l 1,30,31
 269 670 269 670 521 687 c 1,32,-1
 584 762 l 1,33,34
 972 1218 972 1218 1128 1448 c 1,35,-1
 1147 1437 l 2,36,37
 1216 1396 1216 1396 1243 1386 c 1,38,39
 1211 1168 1211 1168 1199 791 c 1,40,-1
 1196 727 l 1,41,42
 1259 729 1259 729 1308 734 c 1,43,44
 1313 718 1313 718 1323 674 c 0,45,46
 1328 651 1328 651 1343 604 c 1,47,48
 1306 606 1306 606 1286 606 c 0,49,50
 1271 606 1271 606 1193 603 c 1,51,-1
 1193 530 l 1,52,-1
 1191 271 l 1,53,54
 1191 133 1191 133 1203 -26 c 1,0,1
1068 718 m 1,55,56
 1072 770 1072 770 1083 977 c 0,57,58
 1088 1060 1088 1060 1104 1216 c 1,59,60
 1064 1166 1064 1166 971 1047 c 1,61,62
 758 785 758 785 686 696 c 1,63,64
 729 697 729 697 875 706 c 1,65,66
 1023 714 1023 714 1068 718 c 1,55,56
1457 1547 m 1,67,68
 1422 1525 1422 1525 1361 1479 c 1,69,70
 1281 1570 1281 1570 1222 1719 c 1,71,72
 1096 1579 1096 1579 943 1479 c 1,73,-1
 931 1492 l 2,74,75
 906 1519 906 1519 860 1565 c 1,76,77
 1084 1671 1084 1671 1257 1935 c 1,78,79
 1323 1689 1323 1689 1457 1547 c 1,67,68
EndSplineSet
EndChar

StartChar: Atilde
Encoding: 195 195 133
Width: 1388
VWidth: 2457
Flags: W
LayerCount: 2
Fore
SplineSet
1203 -26 m 1,0,1
 1141 -39 1141 -39 1055 -73 c 1,2,3
 1052 -13 1052 -13 1052 43 c 0,4,5
 1052 181 1052 181 1063 543 c 1,6,-1
 1065 599 l 1,7,8
 995 594 995 594 883 587 c 0,9,10
 747 579 747 579 578 566 c 1,11,12
 544 528 544 528 388 350 c 0,13,14
 216 154 216 154 -20 -73 c 1,15,16
 -61 -10 -61 -10 -106 32 c 1,17,18
 -58 81 -58 81 86 216 c 1,19,20
 112 237 112 237 317 459 c 0,21,22
 357 502 357 502 403 554 c 1,23,24
 355 552 355 552 222 545 c 0,25,26
 90 539 90 539 44 536 c 1,27,28
 30 616 30 616 15 668 c 1,29,-1
 53 669 l 1,30,31
 269 670 269 670 521 687 c 1,32,-1
 584 762 l 1,33,34
 972 1218 972 1218 1128 1448 c 1,35,-1
 1147 1437 l 2,36,37
 1216 1396 1216 1396 1243 1386 c 1,38,39
 1211 1168 1211 1168 1199 791 c 1,40,-1
 1196 727 l 1,41,42
 1259 729 1259 729 1308 734 c 1,43,44
 1313 718 1313 718 1323 674 c 0,45,46
 1328 651 1328 651 1343 604 c 1,47,48
 1306 606 1306 606 1286 606 c 0,49,50
 1271 606 1271 606 1193 603 c 1,51,-1
 1193 530 l 1,52,-1
 1191 271 l 1,53,54
 1191 133 1191 133 1203 -26 c 1,0,1
1068 718 m 1,55,56
 1072 770 1072 770 1083 977 c 0,57,58
 1088 1060 1088 1060 1104 1216 c 1,59,60
 1064 1166 1064 1166 971 1047 c 1,61,62
 758 785 758 785 686 696 c 1,63,64
 729 697 729 697 875 706 c 1,65,66
 1023 714 1023 714 1068 718 c 1,55,56
1528 1667 m 1,67,68
 1410 1577 1410 1577 1298 1577 c 0,69,70
 1232 1577 1232 1577 1154 1607 c 0,71,72
 1103 1627 1103 1627 1089 1631 c 0,73,74
 1058 1641 1058 1641 1018 1641 c 0,75,76
 941 1641 941 1641 874 1580 c 1,77,78
 837 1654 837 1654 816 1689 c 1,79,80
 910 1767 910 1767 1021 1767 c 0,81,82
 1073 1767 1073 1767 1156 1736 c 0,83,84
 1255 1700 1255 1700 1300 1700 c 0,85,86
 1379 1700 1379 1700 1473 1769 c 1,87,88
 1484 1728 1484 1728 1528 1667 c 1,67,68
EndSplineSet
EndChar

StartChar: Adieresis
Encoding: 196 196 134
Width: 1388
VWidth: 2457
Flags: W
LayerCount: 2
Fore
SplineSet
1203 -26 m 1,0,1
 1141 -39 1141 -39 1055 -73 c 1,2,3
 1052 -13 1052 -13 1052 43 c 0,4,5
 1052 181 1052 181 1063 543 c 1,6,-1
 1065 599 l 1,7,8
 995 594 995 594 883 587 c 0,9,10
 747 579 747 579 578 566 c 1,11,12
 544 528 544 528 388 350 c 0,13,14
 216 154 216 154 -20 -73 c 1,15,16
 -61 -10 -61 -10 -106 32 c 1,17,18
 -58 81 -58 81 86 216 c 1,19,20
 112 237 112 237 317 459 c 0,21,22
 357 502 357 502 403 554 c 1,23,24
 355 552 355 552 222 545 c 0,25,26
 90 539 90 539 44 536 c 1,27,28
 30 616 30 616 15 668 c 1,29,-1
 53 669 l 1,30,31
 269 670 269 670 521 687 c 1,32,-1
 584 762 l 1,33,34
 972 1218 972 1218 1128 1448 c 1,35,-1
 1147 1437 l 2,36,37
 1216 1396 1216 1396 1243 1386 c 1,38,39
 1211 1168 1211 1168 1199 791 c 1,40,-1
 1196 727 l 1,41,42
 1259 729 1259 729 1308 734 c 1,43,44
 1313 718 1313 718 1323 674 c 0,45,46
 1328 651 1328 651 1343 604 c 1,47,48
 1306 606 1306 606 1286 606 c 0,49,50
 1271 606 1271 606 1193 603 c 1,51,-1
 1193 530 l 1,52,-1
 1191 271 l 1,53,54
 1191 133 1191 133 1203 -26 c 1,0,1
1068 718 m 1,55,56
 1072 770 1072 770 1083 977 c 0,57,58
 1088 1060 1088 1060 1104 1216 c 1,59,60
 1064 1166 1064 1166 971 1047 c 1,61,62
 758 785 758 785 686 696 c 1,63,64
 729 697 729 697 875 706 c 1,65,66
 1023 714 1023 714 1068 718 c 1,55,56
1046 1516 m 1,67,68
 1032 1531 1032 1531 992 1569 c 0,69,70
 951 1609 951 1609 934 1623 c 1,71,72
 982 1735 982 1735 1046 1829 c 1,73,74
 1116 1754 1116 1754 1155 1720 c 1,75,76
 1122 1673 1122 1673 1102 1634 c 1,77,78
 1081 1589 1081 1589 1046 1516 c 1,67,68
1346 1516 m 1,79,80
 1333 1531 1333 1531 1293 1569 c 0,81,82
 1252 1609 1252 1609 1234 1623 c 1,83,84
 1282 1735 1282 1735 1346 1829 c 1,85,86
 1416 1754 1416 1754 1455 1720 c 1,87,88
 1422 1673 1422 1673 1402 1634 c 1,89,90
 1381 1589 1381 1589 1346 1516 c 1,79,80
EndSplineSet
EndChar

StartChar: Aring
Encoding: 197 197 135
Width: 1388
VWidth: 2457
Flags: W
LayerCount: 2
Fore
SplineSet
1203 -26 m 1,0,1
 1141 -39 1141 -39 1055 -73 c 1,2,3
 1052 -13 1052 -13 1052 43 c 0,4,5
 1052 181 1052 181 1063 543 c 1,6,-1
 1065 599 l 1,7,8
 995 594 995 594 883 587 c 0,9,10
 747 579 747 579 578 566 c 1,11,12
 544 528 544 528 388 350 c 0,13,14
 216 154 216 154 -20 -73 c 1,15,16
 -61 -10 -61 -10 -106 32 c 1,17,18
 -58 81 -58 81 86 216 c 1,19,20
 112 237 112 237 317 459 c 0,21,22
 357 502 357 502 403 554 c 1,23,24
 355 552 355 552 222 545 c 0,25,26
 90 539 90 539 44 536 c 1,27,28
 30 616 30 616 15 668 c 1,29,-1
 53 669 l 1,30,31
 269 670 269 670 521 687 c 1,32,-1
 584 762 l 1,33,34
 972 1218 972 1218 1128 1448 c 1,35,-1
 1147 1437 l 2,36,37
 1216 1396 1216 1396 1243 1386 c 1,38,39
 1211 1168 1211 1168 1199 791 c 1,40,-1
 1196 727 l 1,41,42
 1259 729 1259 729 1308 734 c 1,43,44
 1313 718 1313 718 1323 674 c 0,45,46
 1328 651 1328 651 1343 604 c 1,47,48
 1306 606 1306 606 1286 606 c 0,49,50
 1271 606 1271 606 1193 603 c 1,51,-1
 1193 530 l 1,52,-1
 1191 271 l 1,53,54
 1191 133 1191 133 1203 -26 c 1,0,1
1068 718 m 1,55,56
 1072 770 1072 770 1083 977 c 0,57,58
 1088 1060 1088 1060 1104 1216 c 1,59,60
 1064 1166 1064 1166 971 1047 c 1,61,62
 758 785 758 785 686 696 c 1,63,64
 729 697 729 697 875 706 c 1,65,66
 1023 714 1023 714 1068 718 c 1,55,56
1298 1915 m 0,67,68
 1376 1915 1376 1915 1418 1852 c 0,69,70
 1440 1818 1440 1818 1440 1768 c 0,71,72
 1440 1701 1440 1701 1401 1634 c 1,73,74
 1359 1564 1359 1564 1291 1522 c 0,75,76
 1237 1488 1237 1488 1173 1488 c 0,77,78
 1106 1488 1106 1488 1063 1531 c 0,79,80
 1025 1570 1025 1570 1025 1627 c 0,81,82
 1025 1753 1025 1753 1147 1852 c 0,83,84
 1225 1915 1225 1915 1298 1915 c 0,67,68
1284 1820 m 0,85,86
 1235 1820 1235 1820 1178 1756 c 0,87,88
 1125 1696 1125 1696 1125 1638 c 0,89,90
 1125 1613 1125 1613 1141 1595 c 0,91,92
 1159 1575 1159 1575 1185 1575 c 0,93,94
 1226 1575 1226 1575 1265 1610 c 0,95,96
 1301 1643 1301 1643 1326 1691 c 0,97,98
 1345 1728 1345 1728 1345 1760 c 0,99,100
 1345 1820 1345 1820 1284 1820 c 0,85,86
EndSplineSet
EndChar

StartChar: AE
Encoding: 198 198 136
Width: 1994
VWidth: 2457
Flags: W
LayerCount: 2
Fore
SplineSet
1928 7 m 1,0,1
 1818 12 1818 12 1709 12 c 0,2,3
 1342 12 1342 12 995 -13 c 0,4,5
 762 -30 762 -30 664 -50 c 1,6,7
 660 -38 660 -38 650 5 c 0,8,9
 643 34 643 34 628 73 c 1,10,11
 724 85 724 85 823 96 c 1,12,-1
 1041 614 l 1,13,14
 881 606 881 606 658 594 c 1,15,16
 612 555 612 555 432 397 c 0,17,18
 265 251 265 251 2 48 c 0,19,20
 -123 -48 -123 -48 -213 -110 c 1,21,22
 -251 -31 -251 -31 -273 7 c 1,23,24
 3 172 3 172 473 583 c 1,25,26
 355 577 355 577 109 557 c 1,27,-1
 69 554 l 1,28,29
 65 573 65 573 51 627 c 0,30,31
 39 671 39 671 34 684 c 1,32,33
 81 685 81 685 226 685 c 0,34,35
 383 686 383 686 610 702 c 1,36,37
 724 789 724 789 1058 1101 c 0,38,39
 1157 1194 1157 1194 1206 1238 c 1,40,-1
 1096 1238 l 1,41,42
 1082 1327 1082 1327 1062 1369 c 1,43,44
 1352 1358 1352 1358 1516 1358 c 0,45,46
 1705 1358 1705 1358 1883 1366 c 1,47,48
 1917 1278 1917 1278 1942 1238 c 1,49,50
 1888 1239 1888 1239 1708 1239 c 1,51,-1
 1533 1240 l 2,52,53
 1519 1240 1519 1240 1450 1238 c 1,54,-1
 1228 733 l 1,55,56
 1513 745 1513 745 1796 767 c 1,57,58
 1801 752 1801 752 1811 712 c 0,59,60
 1818 683 1818 683 1834 641 c 1,61,-1
 1771 639 l 1,62,-1
 1595 635 l 1,63,64
 1287 622 1287 622 1177 619 c 1,65,-1
 960 102 l 1,66,67
 1255 132 1255 132 1883 138 c 1,68,69
 1900 84 1900 84 1928 7 c 1,0,1
1091 727 m 1,70,-1
 1304 1195 l 1,71,72
 1228 1113 1228 1113 792 710 c 1,73,74
 831 713 831 713 953 719 c 0,75,76
 1058 725 1058 725 1091 727 c 1,70,-1
EndSplineSet
EndChar

StartChar: Ccedilla
Encoding: 199 199 137
Width: 1086
VWidth: 2457
Flags: W
LayerCount: 2
Fore
SplineSet
1057 462 m 1,0,1
 866 197 866 197 689 56 c 1,2,3
 579 -30 579 -30 471 -61 c 1,4,5
 436 -70 436 -70 395 -78 c 1,6,-1
 334 -192 l 1,7,8
 428 -212 428 -212 428 -295 c 0,9,10
 428 -364 428 -364 376 -431 c 0,11,12
 283 -552 283 -552 86 -552 c 0,13,14
 59 -552 59 -552 18 -548 c 1,15,16
 24 -536 24 -536 50 -490 c 0,17,18
 61 -471 61 -471 75 -442 c 1,19,20
 103 -446 103 -446 122 -446 c 0,21,22
 161 -446 161 -446 196 -434 c 0,23,24
 243 -419 243 -419 274 -383 c 0,25,26
 299 -355 299 -355 299 -319 c 0,27,28
 299 -272 299 -272 246 -259 c 0,29,30
 231 -255 231 -255 189 -251 c 1,31,-1
 286 -75 l 1,32,33
 207 -55 207 -55 161 -7 c 0,34,35
 71 88 71 88 71 243 c 0,36,37
 71 491 71 491 228 768 c 0,38,39
 539 1317 539 1317 1197 1389 c 1,40,41
 1217 1304 1217 1304 1241 1250 c 1,42,43
 856 1241 856 1241 589 1017 c 1,44,45
 407 863 407 863 293 615 c 0,46,47
 204 419 204 419 204 265 c 0,48,49
 204 170 204 170 250 112 c 0,50,51
 292 59 292 59 362 59 c 0,52,53
 532 59 532 59 740 280 c 0,54,55
 811 354 811 354 954 549 c 1,56,57
 1027 484 1027 484 1057 462 c 1,0,1
EndSplineSet
EndChar

StartChar: Egrave
Encoding: 200 200 138
Width: 1209
VWidth: 2457
Flags: W
LayerCount: 2
Fore
SplineSet
1145 11 m 1,0,1
 1039 14 1039 14 988 14 c 0,2,3
 738 14 738 14 330 -6 c 0,4,5
 65 -19 65 -19 -114 -42 c 1,6,7
 -126 20 -126 20 -148 85 c 1,8,-1
 -120 88 l 2,9,10
 5 101 5 101 44 103 c 1,11,-1
 353 821 l 1,12,13
 335 819 335 819 292 818 c 0,14,15
 286 818 286 818 250 816 c 2,16,-1
 227 815 l 1,17,18
 220 863 220 863 190 941 c 1,19,20
 239 940 239 940 275 940 c 0,21,22
 305 940 305 940 406 944 c 1,23,-1
 533 1239 l 1,24,25
 511 1239 511 1239 504 1239 c 0,26,27
 454 1239 454 1239 425 1234 c 1,28,29
 417 1280 417 1280 392 1373 c 1,30,31
 627 1367 627 1367 710 1367 c 0,32,33
 943 1367 943 1367 1113 1373 c 1,34,35
 1131 1306 1131 1306 1161 1238 c 1,36,37
 992 1246 992 1246 890 1246 c 0,38,39
 746 1246 746 1246 662 1243 c 1,40,-1
 533 944 l 1,41,42
 824 951 824 951 1089 972 c 1,43,44
 1099 913 1099 913 1124 847 c 1,45,-1
 1063 845 l 1,46,-1
 886 839 l 1,47,-1
 685 832 l 2,48,49
 525 827 525 827 485 825 c 1,50,-1
 179 109 l 1,51,-1
 259 114 l 1,52,53
 748 141 748 141 993 141 c 0,54,55
 1027 141 1027 141 1100 140 c 1,56,57
 1132 39 1132 39 1145 11 c 1,0,1
732 1874 m 1,58,59
 776 1809 776 1809 870 1708 c 0,60,61
 953 1619 953 1619 1015 1570 c 1,62,63
 942 1523 942 1523 911 1498 c 1,64,65
 793 1589 793 1589 617 1803 c 1,66,67
 629 1810 629 1810 671 1835 c 1,68,69
 718 1866 718 1866 732 1874 c 1,58,59
EndSplineSet
EndChar

StartChar: Eacute
Encoding: 201 201 139
Width: 1209
VWidth: 2457
Flags: W
LayerCount: 2
Fore
SplineSet
1145 11 m 1,0,1
 1039 14 1039 14 988 14 c 0,2,3
 738 14 738 14 330 -6 c 0,4,5
 65 -19 65 -19 -114 -42 c 1,6,7
 -126 20 -126 20 -148 85 c 1,8,-1
 -120 88 l 2,9,10
 5 101 5 101 44 103 c 1,11,-1
 353 821 l 1,12,13
 335 819 335 819 292 818 c 0,14,15
 286 818 286 818 250 816 c 2,16,-1
 227 815 l 1,17,18
 220 863 220 863 190 941 c 1,19,20
 239 940 239 940 275 940 c 0,21,22
 305 940 305 940 406 944 c 1,23,-1
 533 1239 l 1,24,25
 511 1239 511 1239 504 1239 c 0,26,27
 454 1239 454 1239 425 1234 c 1,28,29
 417 1280 417 1280 392 1373 c 1,30,31
 627 1367 627 1367 710 1367 c 0,32,33
 943 1367 943 1367 1113 1373 c 1,34,35
 1131 1306 1131 1306 1161 1238 c 1,36,37
 992 1246 992 1246 890 1246 c 0,38,39
 746 1246 746 1246 662 1243 c 1,40,-1
 533 944 l 1,41,42
 824 951 824 951 1089 972 c 1,43,44
 1099 913 1099 913 1124 847 c 1,45,-1
 1063 845 l 1,46,-1
 886 839 l 1,47,-1
 685 832 l 2,48,49
 525 827 525 827 485 825 c 1,50,-1
 179 109 l 1,51,-1
 259 114 l 1,52,53
 748 141 748 141 993 141 c 0,54,55
 1027 141 1027 141 1100 140 c 1,56,57
 1132 39 1132 39 1145 11 c 1,0,1
1244 1743 m 1,58,59
 1007 1658 1007 1658 767 1498 c 1,60,61
 742 1571 742 1571 713 1614 c 1,62,63
 929 1754 929 1754 1199 1871 c 1,64,65
 1216 1796 1216 1796 1244 1743 c 1,58,59
EndSplineSet
EndChar

StartChar: Ecircumflex
Encoding: 202 202 140
Width: 1209
VWidth: 2457
Flags: W
LayerCount: 2
Fore
SplineSet
1145 11 m 1,0,1
 1039 14 1039 14 988 14 c 0,2,3
 738 14 738 14 330 -6 c 0,4,5
 65 -19 65 -19 -114 -42 c 1,6,7
 -126 20 -126 20 -148 85 c 1,8,-1
 -120 88 l 2,9,10
 5 101 5 101 44 103 c 1,11,-1
 353 821 l 1,12,13
 335 819 335 819 292 818 c 0,14,15
 286 818 286 818 250 816 c 2,16,-1
 227 815 l 1,17,18
 220 863 220 863 190 941 c 1,19,20
 239 940 239 940 275 940 c 0,21,22
 305 940 305 940 406 944 c 1,23,-1
 533 1239 l 1,24,25
 511 1239 511 1239 504 1239 c 0,26,27
 454 1239 454 1239 425 1234 c 1,28,29
 417 1280 417 1280 392 1373 c 1,30,31
 627 1367 627 1367 710 1367 c 0,32,33
 943 1367 943 1367 1113 1373 c 1,34,35
 1131 1306 1131 1306 1161 1238 c 1,36,37
 992 1246 992 1246 890 1246 c 0,38,39
 746 1246 746 1246 662 1243 c 1,40,-1
 533 944 l 1,41,42
 824 951 824 951 1089 972 c 1,43,44
 1099 913 1099 913 1124 847 c 1,45,-1
 1063 845 l 1,46,-1
 886 839 l 1,47,-1
 685 832 l 2,48,49
 525 827 525 827 485 825 c 1,50,-1
 179 109 l 1,51,-1
 259 114 l 1,52,53
 748 141 748 141 993 141 c 0,54,55
 1027 141 1027 141 1100 140 c 1,56,57
 1132 39 1132 39 1145 11 c 1,0,1
1129 1547 m 1,58,59
 1093 1525 1093 1525 1032 1479 c 1,60,61
 952 1570 952 1570 894 1719 c 1,62,63
 767 1579 767 1579 615 1479 c 1,64,-1
 602 1492 l 1,65,66
 577 1519 577 1519 532 1565 c 1,67,68
 755 1671 755 1671 928 1935 c 1,69,70
 994 1689 994 1689 1129 1547 c 1,58,59
EndSplineSet
EndChar

StartChar: Edieresis
Encoding: 203 203 141
Width: 1209
VWidth: 2457
Flags: W
LayerCount: 2
Fore
SplineSet
1145 11 m 1,0,1
 1039 14 1039 14 988 14 c 0,2,3
 738 14 738 14 330 -6 c 0,4,5
 65 -19 65 -19 -114 -42 c 1,6,7
 -126 20 -126 20 -148 85 c 1,8,-1
 -120 88 l 2,9,10
 5 101 5 101 44 103 c 1,11,-1
 353 821 l 1,12,13
 335 819 335 819 292 818 c 0,14,15
 286 818 286 818 250 816 c 2,16,-1
 227 815 l 1,17,18
 220 863 220 863 190 941 c 1,19,20
 239 940 239 940 275 940 c 0,21,22
 305 940 305 940 406 944 c 1,23,-1
 533 1239 l 1,24,25
 511 1239 511 1239 504 1239 c 0,26,27
 454 1239 454 1239 425 1234 c 1,28,29
 417 1280 417 1280 392 1373 c 1,30,31
 627 1367 627 1367 710 1367 c 0,32,33
 943 1367 943 1367 1113 1373 c 1,34,35
 1131 1306 1131 1306 1161 1238 c 1,36,37
 992 1246 992 1246 890 1246 c 0,38,39
 746 1246 746 1246 662 1243 c 1,40,-1
 533 944 l 1,41,42
 824 951 824 951 1089 972 c 1,43,44
 1099 913 1099 913 1124 847 c 1,45,-1
 1063 845 l 1,46,-1
 886 839 l 1,47,-1
 685 832 l 2,48,49
 525 827 525 827 485 825 c 1,50,-1
 179 109 l 1,51,-1
 259 114 l 1,52,53
 748 141 748 141 993 141 c 0,54,55
 1027 141 1027 141 1100 140 c 1,56,57
 1132 39 1132 39 1145 11 c 1,0,1
724 1516 m 1,58,59
 711 1531 711 1531 671 1569 c 0,60,61
 630 1609 630 1609 612 1623 c 1,62,63
 660 1735 660 1735 724 1829 c 1,64,65
 794 1754 794 1754 833 1720 c 1,66,67
 800 1673 800 1673 780 1634 c 1,68,69
 759 1589 759 1589 724 1516 c 1,58,59
1025 1516 m 1,70,71
 1011 1531 1011 1531 971 1569 c 0,72,73
 930 1609 930 1609 912 1623 c 1,74,75
 960 1735 960 1735 1025 1829 c 1,76,77
 1095 1754 1095 1754 1134 1720 c 1,78,79
 1100 1673 1100 1673 1081 1634 c 0,80,81
 1059 1589 1059 1589 1025 1516 c 1,70,71
EndSplineSet
EndChar

StartChar: Igrave
Encoding: 204 204 142
Width: 527
VWidth: 2457
Flags: W
LayerCount: 2
Fore
SplineSet
119 -58 m 1,0,1
 74 -24 74 -24 60 -14 c 0,2,3
 19 14 19 14 7 24 c 1,4,5
 29 73 29 73 120 289 c 0,6,7
 510 1220 510 1220 582 1401 c 1,8,9
 615 1366 615 1366 694 1310 c 1,10,-1
 678 1272 l 1,11,-1
 551 976 l 1,12,-1
 384 580 l 1,13,-1
 237 230 l 1,14,-1
 132 -27 l 1,15,-1
 119 -58 l 1,0,1
541 1874 m 1,16,17
 585 1809 585 1809 679 1708 c 0,18,19
 762 1619 762 1619 825 1570 c 1,20,21
 751 1523 751 1523 721 1498 c 1,22,23
 602 1589 602 1589 426 1803 c 1,24,25
 438 1810 438 1810 480 1835 c 1,26,27
 527 1866 527 1866 541 1874 c 1,16,17
EndSplineSet
EndChar

StartChar: Iacute
Encoding: 205 205 143
Width: 527
VWidth: 2457
Flags: W
LayerCount: 2
Fore
SplineSet
119 -58 m 1,0,1
 74 -24 74 -24 60 -14 c 0,2,3
 19 14 19 14 7 24 c 1,4,5
 29 73 29 73 120 289 c 0,6,7
 510 1220 510 1220 582 1401 c 1,8,9
 615 1366 615 1366 694 1310 c 1,10,-1
 678 1272 l 1,11,-1
 551 976 l 1,12,-1
 384 580 l 1,13,-1
 237 230 l 1,14,-1
 132 -27 l 1,15,-1
 119 -58 l 1,0,1
1081 1743 m 1,16,17
 844 1658 844 1658 603 1498 c 1,18,19
 579 1571 579 1571 549 1614 c 1,20,21
 766 1754 766 1754 1036 1871 c 1,22,23
 1052 1796 1052 1796 1081 1743 c 1,16,17
EndSplineSet
EndChar

StartChar: Icircumflex
Encoding: 206 206 144
Width: 527
VWidth: 2457
Flags: W
LayerCount: 2
Fore
SplineSet
119 -58 m 1,0,1
 74 -24 74 -24 60 -14 c 0,2,3
 19 14 19 14 7 24 c 1,4,5
 29 73 29 73 120 289 c 0,6,7
 510 1220 510 1220 582 1401 c 1,8,9
 615 1366 615 1366 694 1310 c 1,10,-1
 678 1272 l 1,11,-1
 551 976 l 1,12,-1
 384 580 l 1,13,-1
 237 230 l 1,14,-1
 132 -27 l 1,15,-1
 119 -58 l 1,0,1
952 1547 m 1,16,17
 916 1525 916 1525 855 1479 c 1,18,19
 775 1570 775 1570 717 1719 c 1,20,21
 590 1579 590 1579 438 1479 c 1,22,-1
 425 1492 l 1,23,24
 400 1519 400 1519 355 1565 c 1,25,26
 578 1671 578 1671 751 1935 c 1,27,28
 817 1689 817 1689 952 1547 c 1,16,17
EndSplineSet
EndChar

StartChar: Idieresis
Encoding: 207 207 145
Width: 527
VWidth: 2457
Flags: W
LayerCount: 2
Fore
SplineSet
119 -58 m 1,0,1
 74 -24 74 -24 60 -14 c 0,2,3
 19 14 19 14 7 24 c 1,4,5
 29 73 29 73 120 289 c 0,6,7
 510 1220 510 1220 582 1401 c 1,8,9
 615 1366 615 1366 694 1310 c 1,10,-1
 678 1272 l 1,11,-1
 551 976 l 1,12,-1
 384 580 l 1,13,-1
 237 230 l 1,14,-1
 132 -27 l 1,15,-1
 119 -58 l 1,0,1
561 1516 m 1,16,17
 547 1531 547 1531 507 1569 c 0,18,19
 466 1609 466 1609 449 1623 c 1,20,21
 497 1735 497 1735 561 1829 c 1,22,23
 631 1754 631 1754 670 1720 c 1,24,25
 637 1673 637 1673 617 1634 c 1,26,27
 596 1589 596 1589 561 1516 c 1,16,17
834 1516 m 1,28,29
 820 1531 820 1531 780 1569 c 0,30,31
 739 1609 739 1609 722 1623 c 1,32,33
 770 1735 770 1735 834 1829 c 1,34,35
 904 1754 904 1754 943 1720 c 1,36,37
 910 1673 910 1673 890 1634 c 1,38,39
 869 1589 869 1589 834 1516 c 1,28,29
EndSplineSet
EndChar

StartChar: Eth
Encoding: 208 208 146
Width: 1258
VWidth: 2457
Flags: W
LayerCount: 2
Fore
SplineSet
-121 -80 m 1,0,1
 -144 7 -144 7 -169 55 c 1,2,3
 -136 54 -136 54 -120 54 c 0,4,5
 -59 54 -59 54 16 58 c 1,6,-1
 301 711 l 1,7,-1
 279 711 l 2,8,9
 178 711 178 711 131 709 c 1,10,11
 134 739 134 739 134 762 c 256,12,13
 134 785 134 785 131 809 c 1,14,15
 152 809 152 809 217 806 c 0,16,17
 236 805 236 805 257 805 c 0,18,19
 287 805 287 805 341 807 c 1,20,-1
 519 1233 l 1,21,22
 450 1231 450 1231 305 1201 c 1,23,24
 296 1252 296 1252 274 1326 c 1,25,26
 496 1366 496 1366 673 1366 c 0,27,28
 847 1366 847 1366 950 1328 c 0,29,30
 1105 1271 1105 1271 1192 1137 c 0,31,32
 1275 1008 1275 1008 1275 843 c 0,33,34
 1275 549 1275 549 1075 315 c 0,35,36
 927 143 927 143 696 62 c 0,37,38
 339 -64 339 -64 -121 -80 c 1,0,1
159 75 m 1,39,40
 480 105 480 105 718 213 c 0,41,42
 925 307 925 307 1035 489 c 0,43,44
 1135 654 1135 654 1135 831 c 0,45,46
 1135 977 1135 977 1052 1088 c 0,47,48
 954 1219 954 1219 750 1233 c 0,49,50
 747 1233 747 1233 657 1235 c 1,51,-1
 470 807 l 1,52,53
 515 804 515 804 530 804 c 0,54,55
 637 804 637 804 719 809 c 1,56,57
 715 780 715 780 715 761 c 256,58,59
 715 742 715 742 719 709 c 1,60,61
 659 712 659 712 585 712 c 0,62,63
 520 712 520 712 431 711 c 1,64,-1
 159 75 l 1,39,40
EndSplineSet
EndChar

StartChar: Ntilde
Encoding: 209 209 147
Width: 1371
VWidth: 2457
Flags: W
LayerCount: 2
Fore
SplineSet
954 -63 m 1,0,1
 941 -56 941 -56 905 -31 c 0,2,3
 887 -19 887 -19 858 -6 c 1,4,5
 860 13 860 13 860 23 c 0,6,7
 860 65 860 65 826 164 c 1,8,9
 666 613 666 613 597 1084 c 1,10,-1
 203 196 l 1,11,-1
 163 107 l 1,12,-1
 137 40 l 1,13,14
 105 -36 105 -36 96 -63 c 1,15,16
 49 -22 49 -22 -15 11 c 1,17,-1
 467 1106 l 1,18,19
 529 1257 529 1257 540 1288 c 1,20,21
 550 1322 550 1322 555 1384 c 1,22,23
 583 1390 583 1390 696 1434 c 1,24,25
 700 1136 700 1136 787 763 c 1,26,27
 878 380 878 380 939 238 c 1,28,-1
 1147 701 l 2,29,30
 1291 1020 1291 1020 1346 1149 c 0,31,32
 1441 1368 1441 1368 1460 1411 c 1,33,34
 1477 1397 1477 1397 1520 1360 c 0,35,36
 1544 1340 1544 1340 1569 1324 c 1,37,38
 1465 1108 1465 1108 1310 762 c 0,39,40
 972 10 972 10 954 -63 c 1,0,1
1479 1667 m 1,41,42
 1360 1577 1360 1577 1249 1577 c 0,43,44
 1183 1577 1183 1577 1105 1607 c 0,45,46
 1053 1627 1053 1627 1039 1631 c 0,47,48
 1009 1641 1009 1641 969 1641 c 0,49,50
 891 1641 891 1641 824 1580 c 1,51,52
 787 1654 787 1654 766 1689 c 1,53,54
 861 1767 861 1767 971 1767 c 0,55,56
 1023 1767 1023 1767 1106 1736 c 0,57,58
 1205 1700 1205 1700 1251 1700 c 0,59,60
 1330 1700 1330 1700 1423 1769 c 1,61,62
 1434 1728 1434 1728 1479 1667 c 1,41,42
EndSplineSet
EndChar

StartChar: Ograve
Encoding: 210 210 148
Width: 1373
VWidth: 2457
Flags: W
LayerCount: 2
Fore
SplineSet
1010 1381 m 0,0,1
 1184 1381 1184 1381 1297 1270 c 0,2,3
 1415 1154 1415 1154 1415 948 c 0,4,5
 1415 704 1415 704 1275 444 c 1,6,7
 1133 178 1133 178 917 34 c 1,8,9
 744 -80 744 -80 554 -80 c 0,10,11
 434 -80 434 -80 332 -25 c 0,12,13
 222 35 222 35 171 147 c 0,14,15
 124 249 124 249 124 369 c 0,16,17
 124 630 124 630 264 878 c 0,18,19
 410 1136 410 1136 662 1280 c 0,20,21
 837 1381 837 1381 1010 1381 c 0,0,1
985 1252 m 0,22,23
 836 1252 836 1252 677 1145 c 1,24,25
 477 1012 477 1012 354 761 c 0,26,27
 255 559 255 559 255 375 c 0,28,29
 255 210 255 210 359 122 c 0,30,31
 442 51 442 51 567 51 c 0,32,33
 726 51 726 51 882 167 c 0,34,35
 1073 308 1073 308 1192 576 c 0,36,37
 1275 762 1275 762 1275 938 c 0,38,39
 1275 1102 1275 1102 1186 1185 c 0,40,41
 1115 1252 1115 1252 985 1252 c 0,22,23
971 1874 m 1,42,43
 1015 1809 1015 1809 1109 1708 c 0,44,45
 1192 1619 1192 1619 1254 1570 c 1,46,47
 1181 1523 1181 1523 1150 1498 c 1,48,49
 1032 1589 1032 1589 856 1803 c 1,50,51
 868 1810 868 1810 909 1835 c 1,52,53
 957 1866 957 1866 971 1874 c 1,42,43
EndSplineSet
EndChar

StartChar: Oacute
Encoding: 211 211 149
Width: 1373
VWidth: 2457
Flags: W
LayerCount: 2
Fore
SplineSet
1010 1381 m 0,0,1
 1184 1381 1184 1381 1297 1270 c 0,2,3
 1415 1154 1415 1154 1415 948 c 0,4,5
 1415 704 1415 704 1275 444 c 1,6,7
 1133 178 1133 178 917 34 c 1,8,9
 744 -80 744 -80 554 -80 c 0,10,11
 434 -80 434 -80 332 -25 c 0,12,13
 222 35 222 35 171 147 c 0,14,15
 124 249 124 249 124 369 c 0,16,17
 124 630 124 630 264 878 c 0,18,19
 410 1136 410 1136 662 1280 c 0,20,21
 837 1381 837 1381 1010 1381 c 0,0,1
985 1252 m 0,22,23
 836 1252 836 1252 677 1145 c 1,24,25
 477 1012 477 1012 354 761 c 0,26,27
 255 559 255 559 255 375 c 0,28,29
 255 210 255 210 359 122 c 0,30,31
 442 51 442 51 567 51 c 0,32,33
 726 51 726 51 882 167 c 0,34,35
 1073 308 1073 308 1192 576 c 0,36,37
 1275 762 1275 762 1275 938 c 0,38,39
 1275 1102 1275 1102 1186 1185 c 0,40,41
 1115 1252 1115 1252 985 1252 c 0,22,23
1504 1743 m 1,42,43
 1267 1658 1267 1658 1026 1498 c 1,44,45
 1002 1571 1002 1571 972 1614 c 1,46,47
 1189 1754 1189 1754 1458 1871 c 1,48,49
 1475 1796 1475 1796 1504 1743 c 1,42,43
EndSplineSet
EndChar

StartChar: Ocircumflex
Encoding: 212 212 150
Width: 1373
VWidth: 2457
Flags: W
LayerCount: 2
Fore
SplineSet
1010 1381 m 0,0,1
 1184 1381 1184 1381 1297 1270 c 0,2,3
 1415 1154 1415 1154 1415 948 c 0,4,5
 1415 704 1415 704 1275 444 c 1,6,7
 1133 178 1133 178 917 34 c 1,8,9
 744 -80 744 -80 554 -80 c 0,10,11
 434 -80 434 -80 332 -25 c 0,12,13
 222 35 222 35 171 147 c 0,14,15
 124 249 124 249 124 369 c 0,16,17
 124 630 124 630 264 878 c 0,18,19
 410 1136 410 1136 662 1280 c 0,20,21
 837 1381 837 1381 1010 1381 c 0,0,1
985 1252 m 0,22,23
 836 1252 836 1252 677 1145 c 1,24,25
 477 1012 477 1012 354 761 c 0,26,27
 255 559 255 559 255 375 c 0,28,29
 255 210 255 210 359 122 c 0,30,31
 442 51 442 51 567 51 c 0,32,33
 726 51 726 51 882 167 c 0,34,35
 1073 308 1073 308 1192 576 c 0,36,37
 1275 762 1275 762 1275 938 c 0,38,39
 1275 1102 1275 1102 1186 1185 c 0,40,41
 1115 1252 1115 1252 985 1252 c 0,22,23
1374 1547 m 1,42,43
 1339 1525 1339 1525 1278 1479 c 1,44,45
 1198 1570 1198 1570 1139 1719 c 1,46,47
 1013 1579 1013 1579 860 1479 c 1,48,-1
 848 1492 l 2,49,50
 823 1519 823 1519 777 1565 c 1,51,52
 1001 1671 1001 1671 1174 1935 c 1,53,54
 1240 1689 1240 1689 1374 1547 c 1,42,43
EndSplineSet
EndChar

StartChar: Otilde
Encoding: 213 213 151
Width: 1373
VWidth: 2457
Flags: W
LayerCount: 2
Fore
SplineSet
1010 1381 m 0,0,1
 1184 1381 1184 1381 1297 1270 c 0,2,3
 1415 1154 1415 1154 1415 948 c 0,4,5
 1415 704 1415 704 1275 444 c 1,6,7
 1133 178 1133 178 917 34 c 1,8,9
 744 -80 744 -80 554 -80 c 0,10,11
 434 -80 434 -80 332 -25 c 0,12,13
 222 35 222 35 171 147 c 0,14,15
 124 249 124 249 124 369 c 0,16,17
 124 630 124 630 264 878 c 0,18,19
 410 1136 410 1136 662 1280 c 0,20,21
 837 1381 837 1381 1010 1381 c 0,0,1
985 1252 m 0,22,23
 836 1252 836 1252 677 1145 c 1,24,25
 477 1012 477 1012 354 761 c 0,26,27
 255 559 255 559 255 375 c 0,28,29
 255 210 255 210 359 122 c 0,30,31
 442 51 442 51 567 51 c 0,32,33
 726 51 726 51 882 167 c 0,34,35
 1073 308 1073 308 1192 576 c 0,36,37
 1275 762 1275 762 1275 938 c 0,38,39
 1275 1102 1275 1102 1186 1185 c 0,40,41
 1115 1252 1115 1252 985 1252 c 0,22,23
1466 1667 m 1,42,43
 1347 1577 1347 1577 1236 1577 c 0,44,45
 1170 1577 1170 1577 1092 1607 c 0,46,47
 1040 1627 1040 1627 1027 1631 c 0,48,49
 996 1641 996 1641 956 1641 c 0,50,51
 879 1641 879 1641 811 1580 c 1,52,53
 775 1654 775 1654 754 1689 c 1,54,55
 848 1767 848 1767 958 1767 c 0,56,57
 1011 1767 1011 1767 1094 1736 c 0,58,59
 1193 1700 1193 1700 1238 1700 c 0,60,61
 1317 1700 1317 1700 1411 1769 c 1,62,63
 1421 1728 1421 1728 1466 1667 c 1,42,43
EndSplineSet
EndChar

StartChar: Odieresis
Encoding: 214 214 152
Width: 1373
VWidth: 2457
Flags: W
LayerCount: 2
Fore
SplineSet
1010 1381 m 0,0,1
 1184 1381 1184 1381 1297 1270 c 0,2,3
 1415 1154 1415 1154 1415 948 c 0,4,5
 1415 704 1415 704 1275 444 c 1,6,7
 1133 178 1133 178 917 34 c 1,8,9
 744 -80 744 -80 554 -80 c 0,10,11
 434 -80 434 -80 332 -25 c 0,12,13
 222 35 222 35 171 147 c 0,14,15
 124 249 124 249 124 369 c 0,16,17
 124 630 124 630 264 878 c 0,18,19
 410 1136 410 1136 662 1280 c 0,20,21
 837 1381 837 1381 1010 1381 c 0,0,1
985 1252 m 0,22,23
 836 1252 836 1252 677 1145 c 1,24,25
 477 1012 477 1012 354 761 c 0,26,27
 255 559 255 559 255 375 c 0,28,29
 255 210 255 210 359 122 c 0,30,31
 442 51 442 51 567 51 c 0,32,33
 726 51 726 51 882 167 c 0,34,35
 1073 308 1073 308 1192 576 c 0,36,37
 1275 762 1275 762 1275 938 c 0,38,39
 1275 1102 1275 1102 1186 1185 c 0,40,41
 1115 1252 1115 1252 985 1252 c 0,22,23
984 1516 m 1,42,43
 970 1531 970 1531 930 1569 c 0,44,45
 889 1609 889 1609 871 1623 c 1,46,47
 919 1735 919 1735 984 1829 c 1,48,49
 1053 1754 1053 1754 1093 1720 c 1,50,51
 1059 1673 1059 1673 1040 1634 c 0,52,53
 1018 1589 1018 1589 984 1516 c 1,42,43
1284 1516 m 1,54,55
 1270 1531 1270 1531 1230 1569 c 0,56,57
 1189 1609 1189 1609 1172 1623 c 1,58,59
 1220 1735 1220 1735 1284 1829 c 1,60,61
 1354 1754 1354 1754 1393 1720 c 1,62,63
 1359 1673 1359 1673 1340 1634 c 0,64,65
 1319 1589 1319 1589 1284 1516 c 1,54,55
EndSplineSet
EndChar

StartChar: multiply
Encoding: 215 215 153
Width: 1365
VWidth: 2457
Flags: W
LayerCount: 2
Fore
SplineSet
612 1122 m 1,0,-1
 809 772 l 1,1,-1
 1311 1122 l 1,2,-1
 1374 1016 l 1,3,-1
 868 664 l 1,4,-1
 1065 315 l 1,5,-1
 964 244 l 1,6,-1
 767 594 l 1,7,-1
 266 244 l 1,8,-1
 203 350 l 1,9,-1
 707 701 l 1,10,-1
 511 1050 l 1,11,-1
 612 1122 l 1,0,-1
EndSplineSet
EndChar

StartChar: Oslash
Encoding: 216 216 154
Width: 1373
VWidth: 2457
Flags: W
LayerCount: 2
Fore
SplineSet
1380 1149 m 1,0,1
 1415 1064 1415 1064 1415 964 c 0,2,3
 1415 756 1415 756 1326 549 c 0,4,5
 1238 343 1238 343 1091 184 c 0,6,7
 846 -81 846 -81 557 -81 c 0,8,9
 418 -81 418 -81 319 -14 c 0,10,11
 291 5 291 5 245 45 c 1,12,13
 194 -1 194 -1 44 -163 c 1,14,15
 36 -155 36 -155 6 -116 c 1,16,17
 -26 -79 -26 -79 -36 -66 c 1,18,19
 89 39 89 39 188 134 c 1,20,21
 126 243 126 243 126 382 c 0,22,23
 126 597 126 597 229 804 c 0,24,25
 367 1080 367 1080 589 1234 c 0,26,27
 798 1379 798 1379 1014 1379 c 0,28,29
 1196 1379 1196 1379 1324 1238 c 1,30,31
 1422 1337 1422 1337 1501 1423 c 1,32,33
 1550 1346 1550 1346 1576 1321 c 1,34,35
 1503 1264 1503 1264 1488 1249 c 0,36,37
 1408 1174 1408 1174 1380 1149 c 1,0,1
1219 1139 m 1,38,39
 1138 1249 1138 1249 985 1249 c 0,40,41
 852 1249 852 1249 711 1164 c 0,42,43
 496 1035 496 1035 363 778 c 0,44,45
 257 574 257 574 257 383 c 0,46,47
 257 312 257 312 288 235 c 1,48,-1
 1219 1139 l 1,38,39
349 144 m 1,49,50
 426 51 426 51 573 51 c 0,51,52
 708 51 708 51 847 138 c 0,53,54
 981 223 981 223 1099 404 c 0,55,56
 1279 679 1279 679 1279 933 c 0,57,58
 1279 985 1279 985 1264 1038 c 1,59,-1
 349 144 l 1,49,50
EndSplineSet
EndChar

StartChar: Ugrave
Encoding: 217 217 155
Width: 1260
VWidth: 2457
Flags: W
LayerCount: 2
Fore
SplineSet
831 -74 m 1,0,1
 767 -21 767 -21 722 11 c 1,2,3
 762 103 762 103 846 289 c 0,4,5
 932 480 932 480 1067 799 c 1,6,7
 876 564 876 564 570 292 c 1,8,9
 436 169 436 169 102 -74 c 1,10,11
 92 -64 92 -64 51 -14 c 1,12,13
 16 20 16 20 2 34 c 1,14,15
 44 125 44 125 231 578 c 1,16,-1
 348 865 l 1,17,18
 509 1250 509 1250 572 1410 c 1,19,20
 589 1393 589 1393 630 1359 c 0,21,22
 666 1328 666 1328 683 1315 c 1,23,24
 522 974 522 974 192 154 c 1,25,26
 310 232 310 232 565 456 c 1,27,28
 792 653 792 653 990 882 c 1,29,30
 1147 1062 1147 1062 1325 1394 c 1,31,32
 1369 1347 1369 1347 1430 1294 c 1,33,-1
 1407 1243 l 2,34,35
 1291 986 1291 986 1187 747 c 1,36,37
 1084 513 1084 513 932 171 c 0,38,39
 888 74 888 74 831 -74 c 1,0,1
880 1874 m 1,40,41
 924 1809 924 1809 1018 1708 c 0,42,43
 1101 1619 1101 1619 1164 1570 c 1,44,45
 1090 1523 1090 1523 1060 1498 c 1,46,47
 941 1589 941 1589 765 1803 c 1,48,49
 777 1810 777 1810 819 1835 c 1,50,51
 866 1866 866 1866 880 1874 c 1,40,41
EndSplineSet
EndChar

StartChar: Uacute
Encoding: 218 218 156
Width: 1260
VWidth: 2457
Flags: W
LayerCount: 2
Fore
SplineSet
831 -74 m 1,0,1
 767 -21 767 -21 722 11 c 1,2,3
 762 103 762 103 846 289 c 0,4,5
 932 480 932 480 1067 799 c 1,6,7
 876 564 876 564 570 292 c 1,8,9
 436 169 436 169 102 -74 c 1,10,11
 92 -64 92 -64 51 -14 c 1,12,13
 16 20 16 20 2 34 c 1,14,15
 44 125 44 125 231 578 c 1,16,-1
 348 865 l 1,17,18
 509 1250 509 1250 572 1410 c 1,19,20
 589 1393 589 1393 630 1359 c 0,21,22
 666 1328 666 1328 683 1315 c 1,23,24
 522 974 522 974 192 154 c 1,25,26
 310 232 310 232 565 456 c 1,27,28
 792 653 792 653 990 882 c 1,29,30
 1147 1062 1147 1062 1325 1394 c 1,31,32
 1369 1347 1369 1347 1430 1294 c 1,33,-1
 1407 1243 l 2,34,35
 1291 986 1291 986 1187 747 c 1,36,37
 1084 513 1084 513 932 171 c 0,38,39
 888 74 888 74 831 -74 c 1,0,1
1447 1743 m 1,40,41
 1211 1658 1211 1658 970 1498 c 1,42,43
 946 1571 946 1571 916 1614 c 1,44,45
 1132 1754 1132 1754 1402 1871 c 1,46,47
 1419 1796 1419 1796 1447 1743 c 1,40,41
EndSplineSet
EndChar

StartChar: Ucircumflex
Encoding: 219 219 157
Width: 1260
VWidth: 2457
Flags: W
LayerCount: 2
Fore
SplineSet
831 -74 m 1,0,1
 767 -21 767 -21 722 11 c 1,2,3
 762 103 762 103 846 289 c 0,4,5
 932 480 932 480 1067 799 c 1,6,7
 876 564 876 564 570 292 c 1,8,9
 436 169 436 169 102 -74 c 1,10,11
 92 -64 92 -64 51 -14 c 1,12,13
 16 20 16 20 2 34 c 1,14,15
 44 125 44 125 231 578 c 1,16,-1
 348 865 l 1,17,18
 509 1250 509 1250 572 1410 c 1,19,20
 589 1393 589 1393 630 1359 c 0,21,22
 666 1328 666 1328 683 1315 c 1,23,24
 522 974 522 974 192 154 c 1,25,26
 310 232 310 232 565 456 c 1,27,28
 792 653 792 653 990 882 c 1,29,30
 1147 1062 1147 1062 1325 1394 c 1,31,32
 1369 1347 1369 1347 1430 1294 c 1,33,-1
 1407 1243 l 2,34,35
 1291 986 1291 986 1187 747 c 1,36,37
 1084 513 1084 513 932 171 c 0,38,39
 888 74 888 74 831 -74 c 1,0,1
1311 1547 m 1,40,41
 1276 1525 1276 1525 1215 1479 c 1,42,43
 1135 1570 1135 1570 1076 1719 c 1,44,45
 950 1579 950 1579 797 1479 c 1,46,-1
 785 1492 l 2,47,48
 760 1519 760 1519 714 1565 c 1,49,50
 938 1671 938 1671 1111 1935 c 1,51,52
 1177 1689 1177 1689 1311 1547 c 1,40,41
EndSplineSet
EndChar

StartChar: Udieresis
Encoding: 220 220 158
Width: 1260
VWidth: 2457
Flags: W
LayerCount: 2
Fore
SplineSet
831 -74 m 1,0,1
 767 -21 767 -21 722 11 c 1,2,3
 762 103 762 103 846 289 c 0,4,5
 932 480 932 480 1067 799 c 1,6,7
 876 564 876 564 570 292 c 1,8,9
 436 169 436 169 102 -74 c 1,10,11
 92 -64 92 -64 51 -14 c 1,12,13
 16 20 16 20 2 34 c 1,14,15
 44 125 44 125 231 578 c 1,16,-1
 348 865 l 1,17,18
 509 1250 509 1250 572 1410 c 1,19,20
 589 1393 589 1393 630 1359 c 0,21,22
 666 1328 666 1328 683 1315 c 1,23,24
 522 974 522 974 192 154 c 1,25,26
 310 232 310 232 565 456 c 1,27,28
 792 653 792 653 990 882 c 1,29,30
 1147 1062 1147 1062 1325 1394 c 1,31,32
 1369 1347 1369 1347 1430 1294 c 1,33,-1
 1407 1243 l 2,34,35
 1291 986 1291 986 1187 747 c 1,36,37
 1084 513 1084 513 932 171 c 0,38,39
 888 74 888 74 831 -74 c 1,0,1
914 1516 m 1,40,41
 900 1531 900 1531 860 1569 c 0,42,43
 819 1609 819 1609 802 1623 c 1,44,45
 849 1735 849 1735 914 1829 c 1,46,47
 984 1754 984 1754 1023 1720 c 1,48,49
 989 1673 989 1673 970 1634 c 0,50,51
 948 1589 948 1589 914 1516 c 1,40,41
1214 1516 m 1,52,53
 1200 1531 1200 1531 1160 1569 c 1,54,55
 1120 1609 1120 1609 1102 1623 c 1,56,57
 1150 1735 1150 1735 1214 1829 c 1,58,59
 1284 1754 1284 1754 1323 1720 c 1,60,61
 1290 1673 1290 1673 1270 1634 c 1,62,63
 1249 1589 1249 1589 1214 1516 c 1,52,53
EndSplineSet
EndChar

StartChar: Yacute
Encoding: 221 221 159
Width: 1040
VWidth: 2457
Flags: W
LayerCount: 2
Fore
SplineSet
1308 1354 m 1,0,1
 1299 1341 1299 1341 1290 1329 c 0,2,3
 1159 1153 1159 1153 874 585 c 0,4,5
 639 115 639 115 466 -354 c 1,6,7
 451 -346 451 -346 405 -317 c 1,8,9
 359 -291 359 -291 342 -281 c 1,10,11
 439 -16 439 -16 651 428 c 0,12,13
 782 701 782 701 966 1022 c 1,14,-1
 240 468 l 1,15,16
 227 483 227 483 191 529 c 1,17,18
 157 569 157 569 147 581 c 1,19,20
 227 736 227 736 398 1109 c 1,21,22
 561 1454 561 1454 600 1547 c 1,23,24
 656 1481 656 1481 705 1442 c 1,25,-1
 683 1395 l 1,26,27
 517 1048 517 1048 366 745 c 2,28,-1
 342 697 l 1,29,-1
 802 1044 l 1,30,31
 1005 1206 1005 1206 1070 1281 c 1,32,33
 1148 1368 1148 1368 1200 1442 c 1,34,35
 1235 1411 1235 1411 1256 1395 c 0,36,37
 1297 1364 1297 1364 1308 1354 c 1,0,1
1392 1743 m 1,38,39
 1156 1658 1156 1658 915 1498 c 1,40,41
 891 1571 891 1571 861 1614 c 1,42,43
 1077 1754 1077 1754 1347 1871 c 1,44,45
 1364 1796 1364 1796 1392 1743 c 1,38,39
EndSplineSet
EndChar

StartChar: Thorn
Encoding: 222 222 160
Width: 991
VWidth: 2457
Flags: W
LayerCount: 2
Fore
SplineSet
485 1056 m 1,0,-1
 516 1130 l 2,1,2
 660 1473 660 1473 689 1547 c 1,3,4
 720 1516 720 1516 803 1456 c 1,5,-1
 786 1418 l 1,6,7
 678 1174 678 1174 633 1067 c 1,8,9
 674 1068 674 1068 694 1068 c 0,10,11
 870 1068 870 1068 978 1006 c 0,12,13
 1031 975 1031 975 1062 921 c 0,14,15
 1094 866 1094 866 1094 798 c 0,16,17
 1094 585 1094 585 815 447 c 0,18,19
 671 376 671 376 386 293 c 1,20,-1
 342 384 l 1,21,22
 91 -207 91 -207 34 -354 c 1,23,24
 -12 -319 -12 -319 -78 -272 c 1,25,26
 -41 -192 -41 -192 164 289 c 1,27,-1
 285 578 l 1,28,-1
 423 909 l 1,29,-1
 432 931 l 1,30,31
 281 911 281 911 154 886 c 1,32,33
 140 940 140 940 109 1005 c 1,34,35
 398 1048 398 1048 485 1056 c 1,0,-1
355 416 m 1,36,37
 547 457 547 457 724 535 c 0,38,39
 835 585 835 585 904 656 c 0,40,41
 964 717 964 717 964 789 c 0,42,43
 964 879 964 879 872 923 c 0,44,45
 804 956 804 956 704 956 c 0,46,47
 662 956 662 956 583 949 c 1,48,-1
 504 764 l 1,49,-1
 425 579 l 1,50,-1
 355 416 l 1,36,37
EndSplineSet
EndChar

StartChar: germandbls
Encoding: 223 223 161
Width: 1267
VWidth: 2457
Flags: W
LayerCount: 2
Fore
SplineSet
-148 -557 m 1,0,1
 -182 -538 -182 -538 -213 -520 c 0,2,3
 -218 -518 -218 -518 -280 -486 c 1,4,-1
 -256 -428 l 1,5,6
 -37 114 -37 114 99 408 c 0,7,8
 335 920 335 920 525 1135 c 0,9,10
 706 1341 706 1341 874 1341 c 0,11,12
 957 1341 957 1341 1008 1285 c 0,13,14
 1055 1233 1055 1233 1055 1168 c 0,15,16
 1055 1082 1055 1082 999 991 c 0,17,18
 948 908 948 908 796 792 c 0,19,20
 726 739 726 739 726 712 c 0,21,22
 726 672 726 672 818 635 c 0,23,24
 1012 558 1012 558 1078 521 c 1,25,26
 1184 459 1184 459 1184 359 c 0,27,28
 1184 254 1184 254 1087 166 c 0,29,30
 984 73 984 73 791 22 c 0,31,32
 658 -14 658 -14 520 -14 c 0,33,34
 369 -14 369 -14 291 37 c 0,35,36
 224 81 224 81 224 146 c 0,37,38
 224 276 224 276 453 369 c 0,39,40
 611 434 611 434 786 465 c 1,41,42
 835 400 835 400 874 360 c 1,43,44
 710 334 710 334 555 284 c 0,45,46
 358 220 358 220 358 151 c 0,47,48
 358 95 358 95 507 95 c 0,49,50
 723 95 723 95 895 178 c 0,51,52
 1054 254 1054 254 1054 333 c 0,53,54
 1054 389 1054 389 984 432 c 0,55,56
 955 450 955 450 827 501 c 0,57,58
 674 561 674 561 628 591 c 0,59,60
 567 632 567 632 567 686 c 0,61,62
 567 743 567 743 637 812 c 0,63,64
 653 828 653 828 776 933 c 0,65,66
 912 1048 912 1048 912 1136 c 0,67,68
 912 1167 912 1167 894 1186 c 1,69,70
 874 1209 874 1209 838 1209 c 0,71,72
 746 1209 746 1209 630 1076 c 1,73,74
 491 914 491 914 345 629 c 0,75,76
 95 143 95 143 -148 -557 c 1,0,1
EndSplineSet
EndChar

StartChar: ae
Encoding: 230 230 168
Width: 1234
VWidth: 2457
Flags: W
LayerCount: 2
Fore
SplineSet
1124 270 m 1,0,1
 1027 139 1027 139 954 59 c 0,2,3
 812 -97 812 -97 668 -97 c 0,4,5
 580 -97 580 -97 524 -22 c 0,6,7
 475 43 475 43 475 141 c 0,8,9
 475 173 475 173 482 217 c 1,10,11
 212 -100 212 -100 53 -100 c 0,12,13
 -12 -100 -12 -100 -56 -41 c 0,14,15
 -88 2 -88 2 -88 64 c 0,16,17
 -88 189 -88 189 -2 315 c 0,18,19
 127 504 127 504 419 616 c 1,20,21
 427 604 427 604 449 561 c 0,22,23
 458 544 458 544 483 501 c 1,24,25
 315 441 315 441 203 357 c 0,26,27
 123 296 123 296 80 219 c 0,28,29
 41 148 41 148 41 92 c 0,30,31
 41 40 41 40 84 40 c 0,32,33
 146 40 146 40 275 166 c 1,34,35
 449 334 449 334 543 508 c 0,36,37
 625 658 625 658 625 779 c 0,38,39
 625 877 625 877 543 877 c 0,40,41
 453 877 453 877 323 738 c 1,42,43
 307 749 307 749 271 777 c 0,44,45
 251 792 251 792 223 810 c 1,46,47
 291 882 291 882 372 933 c 0,48,49
 497 1012 497 1012 593 1012 c 0,50,51
 655 1012 655 1012 701 975 c 0,52,53
 756 931 756 931 756 825 c 0,54,55
 756 793 756 793 746 738 c 1,56,57
 831 834 831 834 926 902 c 0,58,59
 1071 1004 1071 1004 1187 1004 c 0,60,61
 1250 1004 1250 1004 1282 969 c 0,62,63
 1314 935 1314 935 1314 885 c 0,64,65
 1314 772 1314 772 1184 646 c 1,66,67
 1069 533 1069 533 848 417 c 0,68,69
 764 372 764 372 690 340 c 1,70,71
 687 351 687 351 680 382 c 0,72,73
 676 403 676 403 664 434 c 1,74,75
 597 290 597 290 597 170 c 0,76,77
 597 109 597 109 625 69 c 0,78,79
 649 35 649 35 688 35 c 0,80,81
 823 35 823 35 1028 357 c 1,82,83
 1041 345 1041 345 1074 314 c 1,84,85
 1112 281 1112 281 1124 270 c 1,0,1
692 479 m 1,86,87
 882 559 882 559 1000 645 c 0,88,89
 1173 771 1173 771 1173 838 c 0,90,91
 1173 868 1173 868 1137 868 c 0,92,93
 1059 868 1059 868 893 720 c 0,94,95
 802 639 802 639 747 565 c 0,96,97
 732 546 732 546 692 479 c 1,86,87
EndSplineSet
EndChar

StartChar: ccedilla
Encoding: 231 231 169
Width: 744
VWidth: 2457
Flags: W
LayerCount: 2
Fore
SplineSet
252 -69 m 1,0,-1
 187 -180 l 1,1,2
 277 -186 277 -186 277 -268 c 0,3,4
 277 -334 277 -334 233 -396 c 0,5,6
 182 -467 182 -467 76 -497 c 0,7,8
 20 -513 20 -513 -42 -513 c 0,9,10
 -70 -513 -70 -513 -104 -507 c 1,11,12
 -69 -465 -69 -465 -52 -410 c 1,13,14
 -27 -414 -27 -414 -9 -414 c 0,15,16
 28 -414 28 -414 61 -403 c 0,17,18
 104 -389 104 -389 133 -357 c 1,19,20
 160 -329 160 -329 160 -294 c 0,21,22
 160 -237 160 -237 54 -233 c 1,23,-1
 143 -78 l 1,24,25
 93 -65 93 -65 68 -50.5 c 128,-1,26
 43 -36 43 -36 23 -6 c 0,27,28
 -18 54 -18 54 -18 137 c 0,29,30
 -18 312 -18 312 92 515 c 0,31,32
 207 726 207 726 388 870 c 0,33,34
 539 990 539 990 679 990 c 0,35,36
 752 990 752 990 795 946 c 0,37,38
 839 901 839 901 839 835 c 0,39,40
 839 780 839 780 804 708 c 1,41,42
 795 687 795 687 771 645 c 1,43,44
 706 670 706 670 637 683 c 1,45,46
 710 772 710 772 710 814 c 0,47,48
 710 836 710 836 694 851 c 0,49,50
 675 869 675 869 648 869 c 0,51,52
 521 869 521 869 336 646 c 0,53,54
 222 510 222 510 166 377 c 0,55,56
 113 252 113 252 113 155 c 0,57,58
 113 104 113 104 137 72 c 0,59,60
 159 42 159 42 199 42 c 0,61,62
 297 42 297 42 424 167 c 0,63,64
 477 219 477 219 526 293 c 1,65,66
 540 281 540 281 571 250 c 0,67,68
 589 231 589 231 621 202 c 1,69,70
 421 -19 421 -19 252 -69 c 1,0,-1
EndSplineSet
EndChar

StartChar: iacute
Encoding: 237 237 175
Width: 410
VWidth: 2457
Flags: W
LayerCount: 2
Fore
SplineSet
471 895 m 1,0,1
 411 791 411 791 249 425 c 0,2,3
 66 11 66 11 42 -53 c 1,4,5
 -31 5 -31 5 -70 27 c 1,6,7
 -25 111 -25 111 46 272 c 1,8,9
 117 443 117 443 264 769 c 0,10,11
 327 910 327 910 355 977 c 1,12,13
 369 967 369 967 412 935 c 0,14,15
 443 912 443 912 471 895 c 1,0,1
858 1403 m 1,16,17
 658 1319 658 1319 429 1160 c 1,18,19
 411 1205 411 1205 370 1273 c 1,20,21
 540 1395 540 1395 801 1530 c 1,22,23
 824 1457 824 1457 858 1403 c 1,16,17
EndSplineSet
EndChar

StartChar: idieresis
Encoding: 239 239 177
Width: 410
VWidth: 2457
Flags: W
LayerCount: 2
Fore
SplineSet
471 895 m 1,0,1
 411 791 411 791 249 425 c 0,2,3
 66 11 66 11 42 -53 c 1,4,5
 -31 5 -31 5 -70 27 c 1,6,7
 -25 111 -25 111 46 272 c 1,8,9
 117 443 117 443 264 769 c 0,10,11
 327 910 327 910 355 977 c 1,12,13
 369 967 369 967 412 935 c 0,14,15
 443 912 443 912 471 895 c 1,0,1
385 1171 m 1,16,17
 371 1187 371 1187 331 1225 c 0,18,19
 290 1265 290 1265 273 1279 c 1,20,21
 321 1391 321 1391 385 1485 c 1,22,23
 455 1410 455 1410 494 1376 c 1,24,25
 460 1329 460 1329 441 1290 c 0,26,27
 419 1245 419 1245 385 1171 c 1,16,17
651 1171 m 1,28,29
 638 1187 638 1187 598 1225 c 0,30,31
 557 1265 557 1265 539 1279 c 1,32,33
 587 1391 587 1391 651 1485 c 1,34,35
 721 1410 721 1410 760 1376 c 1,36,37
 727 1329 727 1329 707 1290 c 1,38,39
 686 1245 686 1245 651 1171 c 1,28,29
EndSplineSet
EndChar

StartChar: eth
Encoding: 240 240 178
Width: 769
VWidth: 2457
Flags: W
LayerCount: 2
Fore
SplineSet
642 978 m 1,0,1
 640 1002 640 1002 633 1073 c 1,2,3
 629 1124 629 1124 626 1156 c 1,4,5
 491 1141 491 1141 395 1119 c 1,6,7
 392 1165 392 1165 370 1227 c 1,8,9
 459 1235 459 1235 615 1251 c 1,10,11
 610 1310 610 1310 597 1427 c 2,12,-1
 594 1454 l 1,13,-1
 610 1454 l 1,14,-1
 668 1454 l 1,15,-1
 721 1454 l 1,16,-1
 735 1454 l 1,17,-1
 737 1420 l 1,18,19
 747 1296 747 1296 750 1263 c 1,20,21
 844 1272 844 1272 924 1288 c 1,22,23
 925 1253 925 1253 946 1183 c 1,24,25
 902 1182 902 1182 789 1172 c 1,26,-1
 756 1170 l 1,27,-1
 759 1125 l 1,28,29
 769 905 769 905 769 839 c 0,30,31
 769 671 769 671 718 523 c 1,32,33
 663 367 663 367 560 205 c 0,34,35
 362 -106 362 -106 161 -106 c 0,36,37
 75 -106 75 -106 22 -33 c 0,38,39
 -23 28 -23 28 -23 113 c 0,40,41
 -23 288 -23 288 94 528 c 0,42,43
 210 766 210 766 360 902 c 0,44,45
 476 1007 476 1007 566 1007 c 0,46,47
 603 1007 603 1007 642 978 c 1,0,1
556 872 m 0,48,49
 493 872 493 872 415 787 c 1,50,51
 301 665 301 665 209 469 c 0,52,53
 111 259 111 259 111 127 c 0,54,55
 111 82 111 82 132 56 c 0,56,57
 154 28 154 28 185 28 c 0,58,59
 296 28 296 28 446 261 c 0,60,61
 527 387 527 387 579 523 c 0,62,63
 635 670 635 670 635 779 c 0,64,65
 635 872 635 872 556 872 c 0,48,49
EndSplineSet
EndChar

StartChar: divide
Encoding: 247 247 185
Width: 1365
VWidth: 2457
Flags: W
LayerCount: 2
Fore
SplineSet
272 745 m 1,0,-1
 1360 745 l 1,1,-1
 1305 620 l 1,2,-1
 218 620 l 1,3,-1
 272 745 l 1,0,-1
641 171 m 1,4,5
 627 187 627 187 587 224 c 1,6,7
 546 264 546 264 529 278 c 1,8,9
 576 390 576 390 641 485 c 1,10,11
 711 409 711 409 750 376 c 1,12,13
 716 328 716 328 697 289 c 0,14,15
 675 244 675 244 641 171 c 1,4,5
946 874 m 1,16,17
 933 890 933 890 893 928 c 0,18,19
 852 967 852 967 834 981 c 1,20,21
 882 1093 882 1093 946 1188 c 1,22,23
 1016 1112 1016 1112 1055 1079 c 1,24,25
 1022 1031 1022 1031 1002 992 c 1,26,27
 981 947 981 947 946 874 c 1,16,17
EndSplineSet
EndChar

StartChar: oslash
Encoding: 248 248 186
Width: 767
VWidth: 2457
Flags: W
LayerCount: 2
Fore
SplineSet
890 974 m 1,0,1
 814 902 814 902 760 833 c 1,2,3
 766 789 766 789 766 764 c 0,4,5
 766 636 766 636 672 424 c 0,6,7
 556 164 556 164 394 0 c 0,8,9
 284 -111 284 -111 171 -111 c 0,10,11
 91 -111 91 -111 30 -45 c 1,12,13
 -14 -96 -14 -96 -60 -168 c 1,14,15
 -67 -160 -67 -160 -91 -138 c 0,16,17
 -116 -116 -116 -116 -127 -107 c 1,18,19
 -114 -93 -114 -93 -70 -38 c 0,20,21
 -28 13 -28 13 -13 35 c 1,22,23
 -19 85 -19 85 -19 119 c 0,24,25
 -19 215 -19 215 20 340 c 0,26,27
 81 536 81 536 198 711 c 0,28,29
 316 887 316 887 433 960 c 0,30,31
 503 1003 503 1003 571 1003 c 0,32,33
 669 1003 669 1003 729 921 c 1,34,35
 743 937 743 937 783 982 c 0,36,37
 808 1011 808 1011 832 1041 c 1,38,39
 868 994 868 994 890 974 c 1,0,1
631 695 m 1,40,-1
 122 66 l 1,41,42
 137 25 137 25 186 25 c 0,43,44
 304 25 304 25 461 286 c 0,45,46
 583 490 583 490 631 695 c 1,40,-1
626 814 m 1,47,48
 611 872 611 872 556 872 c 0,49,50
 492 872 492 872 393 763 c 0,51,52
 281 638 281 638 198 457 c 0,53,54
 146 343 146 343 129 264 c 0,55,56
 123 238 123 238 115 185 c 1,57,-1
 626 814 l 1,47,48
EndSplineSet
EndChar

StartChar: thorn
Encoding: 254 254 192
Width: 832
VWidth: 2457
Flags: W
LayerCount: 2
Fore
SplineSet
583 1414 m 1,0,1
 602 1401 602 1401 634 1381 c 0,2,3
 665 1362 665 1362 696 1342 c 1,4,5
 666 1286 666 1286 555 1061 c 0,6,7
 498 945 498 945 375 705 c 1,8,9
 634 968 634 968 789 968 c 0,10,11
 847 968 847 968 881 928 c 0,12,13
 910 894 910 894 910 841 c 0,14,15
 910 674 910 674 695 418 c 0,16,17
 530 222 530 222 320 77 c 0,18,19
 246 27 246 27 135 -37 c 1,20,21
 120 -8 120 -8 68 59 c 1,22,23
 -54 -194 -54 -194 -199 -540 c 1,24,25
 -243 -509 -243 -509 -320 -465 c 1,26,27
 -270 -368 -270 -368 -26 145 c 1,28,-1
 133 477 l 1,29,-1
 284 793 l 2,30,31
 545 1338 545 1338 583 1414 c 1,0,1
84 86 m 1,32,33
 306 190 306 190 503 390 c 0,34,35
 632 520 632 520 722 661 c 0,36,37
 784 759 784 759 784 806 c 0,38,39
 784 819 784 819 775 830 c 0,40,41
 764 844 764 844 746 844 c 0,42,43
 691 844 691 844 556 736 c 0,44,45
 368 586 368 586 235 369 c 0,46,47
 168 260 168 260 84 86 c 1,32,33
EndSplineSet
EndChar

StartChar: Cacute
Encoding: 262 262 194
Width: 1086
VWidth: 2457
Flags: W
LayerCount: 2
Fore
SplineSet
1056 463 m 1,0,1
 923 263 923 263 763 117 c 0,2,3
 548 -79 548 -79 357 -79 c 0,4,5
 203 -79 203 -79 126 39 c 0,6,7
 71 123 71 123 71 242 c 0,8,9
 71 491 71 491 230 768 c 0,10,11
 422 1102 422 1102 744 1262 c 0,12,13
 938 1358 938 1358 1198 1389 c 1,14,-1
 1203 1371 l 1,15,16
 1225 1288 1225 1288 1242 1249 c 1,17,18
 1050 1249 1050 1249 866 1178 c 0,19,20
 656 1098 656 1098 516 949 c 1,21,22
 363 788 363 788 276 578 c 0,23,24
 206 409 206 409 206 263 c 0,25,26
 206 165 206 165 251 112 c 0,27,28
 294 61 294 61 365 61 c 0,29,30
 531 61 531 61 741 279 c 0,31,32
 844 385 844 385 955 549 c 1,33,34
 966 540 966 540 999 509 c 1,35,36
 1042 475 1042 475 1056 463 c 1,0,1
1388 1743 m 1,37,38
 1151 1658 1151 1658 911 1498 c 1,39,40
 886 1571 886 1571 857 1614 c 1,41,42
 1073 1754 1073 1754 1343 1871 c 1,43,44
 1360 1796 1360 1796 1388 1743 c 1,37,38
EndSplineSet
EndChar

StartChar: Ccaron
Encoding: 268 268 196
Width: 1086
VWidth: 2457
Flags: W
LayerCount: 2
Fore
SplineSet
1056 463 m 1,0,1
 923 263 923 263 763 117 c 0,2,3
 548 -79 548 -79 357 -79 c 0,4,5
 203 -79 203 -79 126 39 c 0,6,7
 71 123 71 123 71 242 c 0,8,9
 71 491 71 491 230 768 c 0,10,11
 422 1102 422 1102 744 1262 c 0,12,13
 938 1358 938 1358 1198 1389 c 1,14,-1
 1203 1371 l 1,15,16
 1225 1288 1225 1288 1242 1249 c 1,17,18
 1050 1249 1050 1249 866 1178 c 0,19,20
 656 1098 656 1098 516 949 c 1,21,22
 363 788 363 788 276 578 c 0,23,24
 206 409 206 409 206 263 c 0,25,26
 206 165 206 165 251 112 c 0,27,28
 294 61 294 61 365 61 c 0,29,30
 531 61 531 61 741 279 c 0,31,32
 844 385 844 385 955 549 c 1,33,34
 966 540 966 540 999 509 c 1,35,36
 1042 475 1042 475 1056 463 c 1,0,1
733 1853 m 1,37,38
 771 1876 771 1876 829 1921 c 1,39,40
 911 1829 911 1829 968 1681 c 1,41,42
 1094 1821 1094 1821 1247 1921 c 1,43,44
 1253 1914 1253 1914 1259 1908 c 0,45,46
 1286 1879 1286 1879 1306 1859 c 0,47,48
 1320 1845 1320 1845 1330 1835 c 1,49,50
 1106 1728 1106 1728 933 1465 c 1,51,52
 867 1711 867 1711 733 1853 c 1,37,38
EndSplineSet
EndChar

StartChar: dmacron
Encoding: 273 273 198
Width: 838
VWidth: 2457
Flags: W
LayerCount: 2
Fore
SplineSet
840 1131 m 1,0,1
 671 1122 671 1122 590 1106 c 1,2,3
 585 1154 585 1154 567 1215 c 1,4,5
 604 1213 604 1213 619 1213 c 0,6,7
 655 1213 655 1213 742 1220 c 0,8,9
 806 1225 806 1225 877 1228 c 1,10,11
 917 1317 917 1317 949 1410 c 1,12,13
 987 1378 987 1378 1069 1331 c 1,14,15
 1048 1289 1048 1289 1021 1231 c 1,16,17
 1063 1233 1063 1233 1132 1243 c 1,18,19
 1130 1222 1130 1222 1130 1210 c 0,20,21
 1130 1179 1130 1179 1149 1137 c 1,22,23
 1104 1141 1104 1141 1087 1141 c 0,24,25
 1084 1141 1084 1141 979 1137 c 1,26,27
 763 640 763 640 686 417 c 0,28,29
 590 137 590 137 532 -97 c 1,30,31
 484 -70 484 -70 423 -45 c 1,32,33
 433 -5 433 -5 471 117 c 0,34,35
 514 258 514 258 532 313 c 1,36,37
 422 164 422 164 340 86 c 0,38,39
 202 -44 202 -44 87 -44 c 0,40,41
 25 -44 25 -44 -16 7 c 0,42,43
 -51 51 -51 51 -51 112 c 0,44,45
 -51 261 -51 261 80 470 c 0,46,47
 195 653 195 653 409 828 c 0,48,49
 483 888 483 888 687 1022 c 1,50,51
 695 1009 695 1009 714 967 c 0,52,53
 734 925 734 925 742 906 c 1,54,55
 484 759 484 759 303 564 c 0,56,57
 186 437 186 437 124 307 c 0,58,59
 73 198 73 198 73 132 c 0,60,61
 73 110 73 110 84 95 c 0,62,63
 97 77 97 77 119 77 c 0,64,65
 192 77 192 77 358 258 c 0,66,67
 524 440 524 440 685 770 c 0,68,69
 718 838 718 838 810 1059 c 0,70,71
 829 1104 829 1104 840 1131 c 1,0,1
EndSplineSet
EndChar

StartChar: Gbreve
Encoding: 286 286 199
Width: 1329
VWidth: 2457
Flags: W
LayerCount: 2
Fore
SplineSet
757 -518 m 1,0,-1
 738 -500 l 2,1,2
 704 -468 704 -468 677 -445 c 0,3,4
 661 -431 661 -431 649 -419 c 1,5,-1
 960 262 l 1,6,7
 872 162 872 162 777 94 c 1,8,9
 588 -38 588 -38 430 -38 c 0,10,11
 287 -38 287 -38 195 80 c 0,12,13
 112 185 112 185 112 349 c 0,14,15
 112 599 112 599 280 854 c 0,16,17
 518 1215 518 1215 894 1336 c 0,18,19
 1100 1402 1100 1402 1328 1411 c 1,20,21
 1335 1395 1335 1395 1357 1337 c 0,22,23
 1362 1324 1362 1324 1392 1259 c 1,24,25
 1317 1266 1317 1266 1265 1266 c 0,26,27
 927 1266 927 1266 641 1053 c 0,28,29
 423 890 423 890 315 658 c 0,30,31
 245 509 245 509 245 365 c 0,32,33
 245 229 245 229 312 155 c 0,34,35
 369 93 369 93 451 93 c 0,36,37
 602 93 602 93 792 255 c 0,38,39
 1040 467 1040 467 1149 742 c 1,40,41
 785 666 785 666 559 660 c 1,42,43
 550 756 550 756 536 789 c 1,44,45
 749 798 749 798 920 822 c 1,46,47
 1165 859 1165 859 1281 900 c 1,48,49
 1303 871 1303 871 1363 814 c 1,50,51
 1286 734 1286 734 1123 359 c 0,52,53
 962 -11 962 -11 757 -518 c 1,0,-1
1458 1820 m 1,54,55
 1421 1702 1421 1702 1364 1634 c 1,56,57
 1265 1513 1265 1513 1078 1513 c 0,58,59
 940 1513 940 1513 887 1602 c 0,60,61
 859 1648 859 1648 859 1713 c 0,62,63
 859 1768 859 1768 876 1809 c 1,64,65
 895 1805 895 1805 915 1805 c 0,66,67
 950 1805 950 1805 989 1809 c 1,68,69
 975 1777 975 1777 975 1744 c 0,70,71
 975 1630 975 1630 1092 1630 c 0,72,73
 1266 1630 1266 1630 1324 1804 c 1,74,75
 1343 1802 1343 1802 1353 1802 c 0,76,77
 1398 1802 1398 1802 1458 1820 c 1,54,55
EndSplineSet
EndChar

StartChar: Idot
Encoding: 304 304 201
Width: 527
VWidth: 2457
Flags: W
LayerCount: 2
Fore
SplineSet
119 -58 m 1,0,1
 74 -24 74 -24 60 -14 c 0,2,3
 19 14 19 14 7 24 c 1,4,5
 29 73 29 73 120 289 c 0,6,7
 510 1220 510 1220 582 1401 c 1,8,9
 615 1366 615 1366 694 1310 c 1,10,-1
 678 1272 l 1,11,-1
 551 976 l 1,12,-1
 384 580 l 1,13,-1
 237 230 l 1,14,-1
 132 -27 l 1,15,-1
 119 -58 l 1,0,1
766 1516 m 1,16,17
 752 1531 752 1531 712 1569 c 0,18,19
 671 1609 671 1609 654 1623 c 1,20,21
 701 1735 701 1735 766 1829 c 1,22,23
 836 1754 836 1754 875 1720 c 1,24,25
 841 1673 841 1673 822 1634 c 0,26,27
 800 1589 800 1589 766 1516 c 1,16,17
EndSplineSet
EndChar

StartChar: dotlessi
Encoding: 305 305 202
Width: 410
VWidth: 2457
Flags: W
LayerCount: 2
Fore
SplineSet
471 895 m 1,0,1
 411 791 411 791 249 425 c 0,2,3
 66 11 66 11 42 -53 c 1,4,5
 -31 5 -31 5 -70 27 c 1,6,7
 -25 111 -25 111 46 272 c 1,8,9
 117 443 117 443 264 769 c 0,10,11
 327 910 327 910 355 977 c 1,12,13
 369 967 369 967 412 935 c 0,14,15
 443 912 443 912 471 895 c 1,0,1
EndSplineSet
EndChar

StartChar: Lslash
Encoding: 321 321 203
Width: 876
VWidth: 2457
Flags: W
LayerCount: 2
Fore
SplineSet
769 -19 m 1,0,1
 567 -13 567 -13 454 -13 c 0,2,3
 258 -13 258 -13 -51 -33 c 1,4,5
 -47 -6 -47 -6 -47 25 c 0,6,7
 -47 57 -47 57 -51 88 c 1,8,-1
 15 92 l 1,9,10
 62 190 62 190 215 535 c 2,11,-1
 252 618 l 1,12,-1
 223 602 l 1,13,14
 107 540 107 540 68 515 c 1,15,16
 72 535 72 535 72 552 c 0,17,18
 72 591 72 591 66 626 c 1,19,20
 143 661 143 661 312 753 c 1,21,22
 379 904 379 904 450 1066 c 1,23,24
 523 1230 523 1230 587 1382 c 2,25,-1
 607 1429 l 1,26,27
 623 1420 623 1420 664 1392 c 1,28,29
 679 1383 679 1383 720 1360 c 1,30,-1
 698 1312 l 1,31,-1
 617 1136 l 1,32,-1
 525 935 l 1,33,-1
 466 806 l 1,34,35
 508 830 508 830 636 900 c 1,36,37
 747 966 747 966 771 980 c 1,38,39
 764 923 764 923 761 857 c 1,40,41
 704 830 704 830 601 774 c 0,42,43
 457 696 457 696 411 665 c 1,44,45
 328 491 328 491 294 414 c 0,46,47
 181 160 181 160 154 101 c 1,48,49
 437 114 437 114 610 114 c 0,50,51
 673 114 673 114 758 111 c 1,52,53
 758 25 758 25 769 -19 c 1,0,1
EndSplineSet
EndChar

StartChar: lslash
Encoding: 322 322 204
Width: 500
VWidth: 2457
Flags: W
LayerCount: 2
Fore
SplineSet
709 1346 m 1,0,1
 599 1142 599 1142 429 742 c 1,2,3
 469 767 469 767 552 815 c 0,4,5
 589 836 589 836 648 873 c 1,6,7
 639 838 639 838 639 770 c 0,8,9
 639 764 639 764 640 752 c 1,10,11
 522 698 522 698 372 602 c 1,12,13
 358 566 358 566 284 380 c 0,14,15
 180 119 180 119 112 -94 c 1,16,-1
 94 -85 l 1,17,18
 16 -49 16 -49 -18 -32 c 1,19,20
 8 29 8 29 97 264 c 0,21,22
 139 376 139 376 209 542 c 1,23,24
 103 485 103 485 1 418 c 1,25,26
 3 470 3 470 3 481 c 0,27,28
 3 486 3 486 2 520 c 0,29,30
 1 527 1 527 1 541 c 1,31,32
 72 570 72 570 269 689 c 1,33,34
 489 1205 489 1205 597 1414 c 1,35,36
 615 1403 615 1403 652 1379 c 0,37,38
 680 1361 680 1361 709 1346 c 1,0,1
EndSplineSet
EndChar

StartChar: OE
Encoding: 338 338 205
Width: 2157
VWidth: 2457
Flags: W
LayerCount: 2
Fore
SplineSet
2093 10 m 1,0,1
 1963 14 1963 14 1882 14 c 0,2,3
 1766 14 1766 14 1277 -5 c 0,4,5
 1028 -14 1028 -14 830 -39 c 1,6,-1
 830 -16 l 1,7,8
 674 -80 674 -80 564 -80 c 0,9,10
 345 -80 345 -80 224 67 c 1,11,12
 122 193 122 193 122 376 c 0,13,14
 122 628 122 628 267 877 c 0,15,16
 421 1141 421 1141 664 1281 c 0,17,18
 835 1380 835 1380 1010 1380 c 0,19,20
 1201 1380 1201 1380 1315 1251 c 0,21,22
 1376 1182 1376 1182 1406 1062 c 1,23,-1
 1482 1241 l 1,24,25
 1425 1238 1425 1238 1400 1238 c 0,26,27
 1391 1238 1391 1238 1373 1238 c 1,28,29
 1369 1256 1369 1256 1358 1309 c 0,30,31
 1352 1341 1352 1341 1341 1373 c 1,32,-1
 1391 1372 l 1,33,34
 1660 1365 1660 1365 1716 1365 c 0,35,36
 1849 1365 1849 1365 2063 1373 c 1,37,38
 2079 1311 2079 1311 2110 1238 c 1,39,40
 1945 1247 1945 1247 1793 1247 c 0,41,42
 1693 1247 1693 1247 1612 1243 c 1,43,-1
 1482 946 l 1,44,45
 1888 957 1888 957 2041 971 c 1,46,-1
 2044 954 l 2,47,48
 2055 888 2055 888 2073 844 c 1,49,50
 2029 845 2029 845 2008 845 c 0,51,52
 1967 845 1967 845 1835 840 c 0,53,54
 1785 839 1785 839 1635 835 c 0,55,56
 1512 832 1512 832 1433 826 c 1,57,-1
 1126 112 l 1,58,59
 1710 141 1710 141 1912 141 c 0,60,61
 1966 141 1966 141 2041 139 c 1,62,63
 2047 124 2047 124 2064 79 c 0,64,65
 2069 68 2069 68 2093 10 c 1,0,1
981 1250 m 0,66,67
 835 1250 835 1250 680 1146 c 0,68,69
 483 1013 483 1013 356 765 c 1,70,71
 255 565 255 565 255 387 c 0,72,73
 255 291 255 291 300 206 c 0,74,75
 341 129 341 129 417 88 c 1,76,77
 486 52 486 52 570 52 c 0,78,79
 733 52 733 52 887 165 c 0,80,81
 1075 302 1075 302 1194 575 c 0,82,83
 1280 770 1280 770 1280 936 c 0,84,85
 1280 1096 1280 1096 1187 1182 c 0,86,87
 1114 1250 1114 1250 981 1250 c 0,66,67
EndSplineSet
EndChar

StartChar: oe
Encoding: 339 339 206
Width: 1225
VWidth: 2457
Flags: W
LayerCount: 2
Fore
SplineSet
1119 279 m 1,0,1
 1060 180 1060 180 977 87 c 0,2,3
 892 -8 892 -8 820.5 -49.5 c 128,-1,4
 749 -91 749 -91 672 -91 c 0,5,6
 570 -91 570 -91 516 -7 c 0,7,8
 490 33 490 33 481 94 c 1,9,10
 303 -106 303 -106 157 -106 c 0,11,12
 75 -106 75 -106 23 -36 c 0,13,14
 -22 24 -22 24 -22 113 c 0,15,16
 -22 291 -22 291 93 523 c 0,17,18
 213 764 213 764 360 898 c 0,19,20
 477 1004 477 1004 585 1004 c 0,21,22
 656 1004 656 1004 707 956 c 0,23,24
 766 899 766 899 767 770 c 1,25,26
 1012 1002 1012 1002 1179 1002 c 0,27,28
 1238 1002 1238 1002 1272 974 c 1,29,30
 1313 942 1313 942 1313 879 c 0,31,32
 1313 721 1313 721 1047 535 c 0,33,34
 891 426 891 426 690 337 c 1,35,36
 687 349 687 349 678 385 c 0,37,38
 676 394 676 394 666 431 c 1,39,40
 603 292 603 292 603 170 c 0,41,42
 603 105 603 105 631 70 c 0,43,44
 657 38 657 38 692 38 c 0,45,46
 751 38 751 38 836 110 c 1,47,48
 910 174 910 174 974 272 c 1,49,50
 991 300 991 300 1027 359 c 1,51,52
 1039 350 1039 350 1066 325 c 1,53,54
 1106 292 1106 292 1119 279 c 1,0,1
685 467 m 1,55,56
 848 534 848 534 1002 646 c 0,57,58
 1175 772 1175 772 1175 847 c 0,59,60
 1175 872 1175 872 1144 872 c 0,61,62
 1059 872 1059 872 911 735 c 0,63,64
 819 651 819 651 757 573 c 0,65,66
 733 543 733 543 685 467 c 1,55,56
555 870 m 0,67,68
 513 870 513 870 448 814 c 0,69,70
 343 724 343 724 229 505 c 0,71,72
 115 287 115 287 115 128 c 0,73,74
 115 28 115 28 189 28 c 0,75,76
 298 28 298 28 449 259 c 0,77,78
 525 375 525 375 581 525 c 0,79,80
 634 668 634 668 634 766 c 0,81,82
 634 870 634 870 555 870 c 0,67,68
EndSplineSet
EndChar

StartChar: Scedilla
Encoding: 350 350 207
Width: 1483
VWidth: 2457
Flags: W
LayerCount: 2
Fore
SplineSet
634 -9 m 1,0,-1
 532 -190 l 1,1,2
 622 -216 622 -216 622 -288 c 256,3,4
 622 -360 622 -360 575 -426 c 0,5,6
 520 -502 520 -502 406 -534 c 0,7,8
 341 -552 341 -552 278 -552 c 0,9,10
 251 -552 251 -552 212 -546 c 1,11,12
 259 -482 259 -482 268 -442 c 1,13,14
 310 -446 310 -446 321 -446 c 0,15,16
 384 -446 384 -446 439 -408 c 0,17,18
 496 -369 496 -369 496 -317 c 0,19,20
 496 -270 496 -270 440 -257 c 0,21,22
 423 -253 423 -253 382 -251 c 1,23,-1
 511 -29 l 1,24,25
 382 -45 382 -45 286 -45 c 0,26,27
 96 -45 96 -45 -1 20 c 0,28,29
 -88 78 -88 78 -88 167 c 0,30,31
 -88 315 -88 315 120 421 c 0,32,33
 304 515 304 515 596 552 c 0,34,35
 705 566 705 566 862 580 c 1,36,37
 867 564 867 564 885 520 c 1,38,39
 907 471 907 471 916 454 c 1,40,41
 688 451 688 451 571 433 c 0,42,43
 319 396 319 396 191 330 c 0,44,45
 120 293 120 293 75 247 c 0,46,47
 41 211 41 211 41 179 c 0,48,49
 41 127 41 127 116 95 c 0,50,51
 174 70 174 70 291 70 c 0,52,53
 501 70 501 70 734 129 c 0,54,55
 919 175 919 175 1062 242 c 0,56,57
 1290 349 1290 349 1290 482 c 0,58,59
 1290 585 1290 585 1114 644 c 0,60,61
 1029 673 1029 673 683 736 c 0,62,63
 482 772 482 772 419 808 c 0,64,65
 334 857 334 857 334 941 c 0,66,67
 334 1059 334 1059 472 1161 c 0,68,69
 611 1263 611 1263 871 1320 c 0,70,71
 1075 1364 1075 1364 1249 1364 c 0,72,73
 1415 1364 1415 1364 1506 1319 c 0,74,75
 1587 1279 1587 1279 1587 1204 c 0,76,77
 1587 1116 1587 1116 1477 1042 c 0,78,79
 1347 955 1347 955 1029 866 c 1,80,81
 1010 888 1010 888 988 913 c 0,82,83
 960 946 960 946 940 966 c 1,84,85
 965 974 965 974 989 981 c 0,86,87
 1173 1033 1173 1033 1304 1084 c 0,88,89
 1452 1141 1452 1141 1452 1192 c 0,90,91
 1452 1254 1452 1254 1257 1254 c 0,92,93
 1108 1254 1108 1254 913 1210 c 0,94,95
 709 1164 709 1164 586 1092 c 0,96,97
 530 1060 530 1060 492 1009 c 0,98,99
 472 982 472 982 472 957 c 0,100,101
 472 911 472 911 545 885 c 0,102,103
 575 875 575 875 722 849 c 0,104,105
 1086 786 1086 786 1194 746 c 256,106,107
 1302 706 1302 706 1355 652 c 0,108,109
 1420 585 1420 585 1420 485 c 0,110,111
 1420 342 1420 342 1280 234 c 0,112,113
 1130 118 1130 118 825 34 c 0,114,115
 740 11 740 11 634 -9 c 1,0,-1
EndSplineSet
EndChar

StartChar: scedilla
Encoding: 351 351 208
Width: 1072
VWidth: 2457
Flags: W
LayerCount: 2
Fore
SplineSet
431 -7 m 1,0,-1
 335 -176 l 1,1,2
 418 -201 418 -201 418 -268 c 256,3,4
 418 -335 418 -335 374 -396 c 0,5,6
 323 -468 323 -468 218 -497 c 0,7,8
 157 -514 157 -514 99 -514 c 0,9,10
 74 -514 74 -514 38 -508 c 1,11,12
 49 -492 49 -492 68 -458 c 1,13,14
 84 -427 84 -427 90 -411 c 1,15,16
 127 -415 127 -415 139 -415 c 0,17,18
 198 -415 198 -415 248 -380 c 0,19,20
 301 -343 301 -343 301 -295 c 0,21,22
 301 -238 301 -238 195 -233 c 1,23,-1
 321 -16 l 1,24,25
 272 -18 272 -18 249 -18 c 0,26,27
 -90 -18 -90 -18 -90 142 c 0,28,29
 -90 287 -90 287 185 384 c 0,30,31
 305 426 305 426 519 469 c 1,32,33
 542 446 542 446 611 364 c 1,34,35
 581 358 581 358 420 327 c 0,36,37
 288 302 288 302 147 246 c 0,38,39
 38 203 38 203 38 153 c 0,40,41
 38 88 38 88 255 88 c 0,42,43
 477 88 477 88 693 169 c 0,44,45
 771 199 771 199 825 251 c 0,46,47
 865 290 865 290 865 339 c 0,48,49
 865 402 865 402 779 441 c 0,50,51
 724 466 724 466 662 482 c 2,52,-1
 493 527 l 2,53,54
 319 573 319 573 261 603 c 0,55,56
 174 648 174 648 174 715 c 0,57,58
 174 802 174 802 298 884 c 0,59,60
 424 967 424 967 629 1010 c 0,61,62
 800 1045 800 1045 934 1045 c 0,63,64
 1034 1045 1034 1045 1090 1009 c 0,65,66
 1147 972 1147 972 1147 915 c 0,67,68
 1147 848 1147 848 1065 785 c 0,69,70
 981 721 981 721 763 637 c 1,71,72
 745 649 745 649 693 692 c 0,73,74
 652 725 652 725 635 740 c 1,75,76
 771 765 771 765 866 804 c 0,77,78
 1002 860 1002 860 1002 903 c 0,79,80
 1002 938 1002 938 909 938 c 0,81,82
 818 938 818 938 677 909 c 0,83,84
 529 879 529 879 416 821 c 0,85,86
 325 775 325 775 325 736 c 0,87,88
 325 689 325 689 441 665 c 0,89,90
 454 662 454 662 668 603 c 0,91,92
 843 555 843 555 900 514 c 0,93,94
 994 446 994 446 994 349 c 0,95,96
 994 232 994 232 874 142 c 0,97,98
 732 36 732 36 431 -7 c 1,0,-1
EndSplineSet
EndChar

StartChar: Scaron
Encoding: 352 352 209
Width: 1483
VWidth: 2457
Flags: W
LayerCount: 2
Fore
SplineSet
1029 866 m 1,0,1
 1010 888 1010 888 988 913 c 0,2,3
 960 946 960 946 940 966 c 1,4,5
 962 973 962 973 989 981 c 0,6,7
 1174 1034 1174 1034 1304 1084 c 0,8,9
 1452 1141 1452 1141 1452 1192 c 0,10,11
 1452 1254 1452 1254 1257 1254 c 0,12,13
 1109 1254 1109 1254 913 1210 c 0,14,15
 710 1164 710 1164 586 1092 c 0,16,17
 530 1059 530 1059 492 1009 c 0,18,19
 472 982 472 982 472 957 c 0,20,21
 472 911 472 911 545 885 c 0,22,23
 575 875 575 875 722 849 c 0,24,25
 1086 786 1086 786 1194 746 c 256,26,27
 1302 706 1302 706 1355 652 c 0,28,29
 1420 585 1420 585 1420 485 c 0,30,31
 1420 342 1420 342 1280 234 c 0,32,33
 1124 113 1124 113 814 31 c 0,34,35
 525 -45 525 -45 278 -45 c 0,36,37
 96 -45 96 -45 0 20 c 1,38,39
 -88 78 -88 78 -88 167 c 0,40,41
 -88 315 -88 315 120 421 c 0,42,43
 303 515 303 515 596 552 c 0,44,45
 706 566 706 566 862 580 c 1,46,47
 867 564 867 564 885 520 c 1,48,49
 907 471 907 471 916 454 c 1,50,51
 687 451 687 451 571 433 c 0,52,53
 319 396 319 396 191 330 c 0,54,55
 120 293 120 293 75 247 c 0,56,57
 41 211 41 211 41 179 c 0,58,59
 41 127 41 127 116 95 c 0,60,61
 174 70 174 70 291 70 c 0,62,63
 501 70 501 70 734 129 c 0,64,65
 919 175 919 175 1062 242 c 0,66,67
 1290 349 1290 349 1290 482 c 0,68,69
 1290 585 1290 585 1114 644 c 0,70,71
 1029 673 1029 673 683 736 c 0,72,73
 482 772 482 772 419 808 c 0,74,75
 334 857 334 857 334 941 c 0,76,77
 334 1059 334 1059 472 1161 c 0,78,79
 611 1263 611 1263 871 1320 c 0,80,81
 1075 1364 1075 1364 1249 1364 c 0,82,83
 1415 1364 1415 1364 1506 1319 c 0,84,85
 1587 1279 1587 1279 1587 1204 c 0,86,87
 1587 1116 1587 1116 1477 1042 c 0,88,89
 1347 955 1347 955 1029 866 c 1,0,1
931 1853 m 1,90,91
 969 1876 969 1876 1028 1921 c 1,92,93
 1109 1829 1109 1829 1166 1681 c 1,94,95
 1293 1821 1293 1821 1445 1921 c 1,96,97
 1452 1914 1452 1914 1457 1908 c 0,98,99
 1484 1879 1484 1879 1504 1859 c 0,100,101
 1519 1845 1519 1845 1528 1835 c 1,102,103
 1304 1728 1304 1728 1132 1465 c 1,104,105
 1066 1711 1066 1711 931 1853 c 1,90,91
EndSplineSet
EndChar

StartChar: Ydieresis
Encoding: 376 376 211
Width: 1040
VWidth: 2457
Flags: W
LayerCount: 2
Fore
SplineSet
1308 1354 m 1,0,1
 1299 1341 1299 1341 1290 1329 c 0,2,3
 1159 1153 1159 1153 874 585 c 0,4,5
 639 115 639 115 466 -354 c 1,6,7
 451 -346 451 -346 405 -317 c 1,8,9
 359 -291 359 -291 342 -281 c 1,10,11
 439 -16 439 -16 651 428 c 0,12,13
 782 701 782 701 966 1022 c 1,14,-1
 240 468 l 1,15,16
 227 483 227 483 191 529 c 1,17,18
 157 569 157 569 147 581 c 1,19,20
 227 736 227 736 398 1109 c 1,21,22
 561 1454 561 1454 600 1547 c 1,23,24
 656 1481 656 1481 705 1442 c 1,25,-1
 683 1395 l 1,26,27
 517 1048 517 1048 366 745 c 2,28,-1
 342 697 l 1,29,-1
 802 1044 l 1,30,31
 1005 1206 1005 1206 1070 1281 c 1,32,33
 1148 1368 1148 1368 1200 1442 c 1,34,35
 1235 1411 1235 1411 1256 1395 c 0,36,37
 1297 1364 1297 1364 1308 1354 c 1,0,1
866 1516 m 1,38,39
 852 1531 852 1531 812 1569 c 0,40,41
 771 1609 771 1609 753 1623 c 1,42,43
 801 1735 801 1735 866 1829 c 1,44,45
 935 1754 935 1754 975 1720 c 1,46,47
 944 1677 944 1677 932.5 1655.5 c 128,-1,48
 921 1634 921 1634 866 1516 c 1,38,39
1166 1516 m 1,49,50
 1152 1531 1152 1531 1112 1569 c 0,51,52
 1071 1609 1071 1609 1054 1623 c 1,53,54
 1102 1735 1102 1735 1166 1829 c 1,55,56
 1236 1754 1236 1754 1275 1720 c 1,57,58
 1241 1673 1241 1673 1222 1634 c 0,59,60
 1200 1589 1200 1589 1166 1516 c 1,49,50
EndSplineSet
EndChar

StartChar: Zcaron
Encoding: 381 381 212
Width: 1303
VWidth: 2457
Flags: W
LayerCount: 2
Fore
SplineSet
1252 -55 m 1,0,1
 1142 -47 1142 -47 957 -41 c 0,2,3
 533 -26 533 -26 343 -26 c 0,4,5
 34 -26 34 -26 -166 -55 c 1,6,-1
 -209 52 l 1,7,8
 -102 101 -102 101 -5 170 c 0,9,10
 59 215 59 215 243 364 c 0,11,12
 375 472 375 472 454 541 c 2,13,-1
 1260 1250 l 1,14,15
 1141 1235 1141 1235 994 1226 c 0,16,17
 743 1211 743 1211 588 1211 c 0,18,19
 547 1211 547 1211 484 1213 c 1,20,21
 478 1254 478 1254 454 1343 c 1,22,23
 622 1340 622 1340 665 1340 c 0,24,25
 1028 1340 1028 1340 1443 1396 c 1,26,27
 1452 1351 1452 1351 1477 1266 c 1,28,29
 1387 1194 1387 1194 1192 1025 c 1,30,31
 685 581 685 581 492 420 c 0,32,33
 263 228 263 228 81 90 c 1,34,35
 257 100 257 100 425 100 c 0,36,37
 468 100 468 100 733 95 c 0,38,39
 765 95 765 95 927 94 c 0,40,41
 1100 93 1100 93 1225 90 c 1,42,43
 1230 62 1230 62 1236 24 c 0,44,45
 1245 -26 1245 -26 1252 -55 c 1,0,1
787 1853 m 1,46,47
 825 1876 825 1876 883 1921 c 1,48,49
 965 1829 965 1829 1022 1681 c 1,50,51
 1148 1821 1148 1821 1301 1921 c 1,52,53
 1307 1914 1307 1914 1313 1908 c 0,54,55
 1340 1879 1340 1879 1360 1859 c 0,56,57
 1374 1845 1374 1845 1384 1835 c 1,58,59
 1160 1728 1160 1728 987 1465 c 1,60,61
 921 1711 921 1711 787 1853 c 1,46,47
EndSplineSet
EndChar

StartChar: florin
Encoding: 402 402 214
Width: 1365
VWidth: 2457
Flags: W
LayerCount: 2
Fore
SplineSet
1267 996 m 1,0,1
 1233 996 1233 996 1217 996 c 0,2,3
 1059 996 1059 996 918 983 c 1,4,5
 788 732 788 732 610 299 c 0,6,7
 447 -99 447 -99 375 -327 c 1,8,9
 364 -320 364 -320 352 -312 c 0,10,11
 292 -271 292 -271 257 -251 c 1,12,13
 322 -62 322 -62 509 376 c 1,14,15
 648 699 648 699 772 964 c 1,16,17
 717 959 717 959 541 920 c 1,18,19
 523 1015 523 1015 510 1048 c 1,20,21
 671 1077 671 1077 837 1096 c 1,22,23
 929 1273 929 1273 1027 1406 c 0,24,25
 1164 1593 1164 1593 1300 1593 c 0,26,27
 1399 1593 1399 1593 1441 1458 c 0,28,29
 1460 1396 1460 1396 1463 1252 c 1,30,-1
 1332 1212 l 1,31,32
 1339 1278 1339 1278 1339 1321 c 0,33,34
 1339 1455 1339 1455 1271 1455 c 0,35,36
 1214 1455 1214 1455 1121 1337 c 0,37,38
 1076 1280 1076 1280 980 1109 c 1,39,40
 1022 1111 1022 1111 1129 1119 c 0,41,42
 1201 1124 1201 1124 1252 1125 c 1,43,44
 1253 1098 1253 1098 1267 996 c 1,0,1
EndSplineSet
EndChar

StartChar: circumflex
Encoding: 710 710 215
Width: 1024
VWidth: 2457
Flags: W
LayerCount: 2
Fore
SplineSet
1056 1215 m 1,0,1
 1021 1193 1021 1193 960 1147 c 1,2,3
 880 1238 880 1238 821 1387 c 1,4,5
 695 1247 695 1247 542 1147 c 1,6,-1
 530 1160 l 2,7,8
 505 1187 505 1187 459 1233 c 1,9,10
 683 1339 683 1339 856 1603 c 1,11,12
 922 1357 922 1357 1056 1215 c 1,0,1
EndSplineSet
EndChar

StartChar: caron
Encoding: 711 711 216
Width: 1024
VWidth: 2457
Flags: W
LayerCount: 2
Fore
SplineSet
571 1522 m 1,0,1
 609 1544 609 1544 668 1590 c 1,2,3
 749 1497 749 1497 806 1350 c 1,4,5
 933 1489 933 1489 1085 1590 c 1,6,7
 1092 1583 1092 1583 1097 1576 c 1,8,9
 1124 1547 1124 1547 1144 1527 c 0,10,11
 1159 1513 1159 1513 1168 1503 c 1,12,13
 944 1397 944 1397 771 1133 c 1,14,15
 706 1379 706 1379 571 1522 c 1,0,1
EndSplineSet
EndChar

StartChar: macron
Encoding: 713 713 217
Width: 1024
VWidth: 2457
Flags: W
LayerCount: 2
Fore
SplineSet
1100 1256 m 1,0,1
 1048 1256 1048 1256 803 1250 c 1,2,3
 595 1255 595 1255 542 1256 c 1,4,5
 564 1284 564 1284 598 1375 c 1,6,7
 749 1366 749 1366 876 1366 c 0,8,9
 999 1366 999 1366 1154 1375 c 1,10,11
 1112 1299 1112 1299 1100 1256 c 1,0,1
EndSplineSet
EndChar

StartChar: breve
Encoding: 728 728 218
Width: 1024
VWidth: 2457
Flags: W
LayerCount: 2
Fore
SplineSet
1188 1494 m 1,0,1
 1151 1377 1151 1377 1095 1309 c 0,2,3
 996 1188 996 1188 808 1188 c 0,4,5
 671 1188 671 1188 618 1277 c 0,6,7
 590 1323 590 1323 590 1388 c 0,8,9
 590 1443 590 1443 607 1483 c 1,10,11
 625 1479 625 1479 646 1479 c 0,12,13
 681 1479 681 1479 720 1483 c 1,14,15
 706 1452 706 1452 706 1419 c 0,16,17
 706 1305 706 1305 823 1305 c 0,18,19
 996 1305 996 1305 1054 1479 c 1,20,21
 1073 1477 1073 1477 1083 1477 c 0,22,23
 1130 1477 1130 1477 1188 1494 c 1,0,1
EndSplineSet
EndChar

StartChar: dotaccent
Encoding: 729 729 219
Width: 1024
VWidth: 2457
Flags: W
LayerCount: 2
Fore
SplineSet
838 1171 m 1,0,1
 825 1187 825 1187 785 1225 c 0,2,3
 744 1265 744 1265 726 1279 c 1,4,5
 774 1391 774 1391 838 1485 c 1,6,7
 908 1410 908 1410 947 1376 c 1,8,9
 914 1329 914 1329 894 1290 c 1,10,11
 873 1245 873 1245 838 1171 c 1,0,1
EndSplineSet
EndChar

StartChar: ring
Encoding: 730 730 220
Width: 1024
VWidth: 2457
Flags: W
LayerCount: 2
Fore
SplineSet
920 1560 m 0,0,1
 997 1560 997 1560 1040 1497 c 0,2,3
 1062 1463 1062 1463 1062 1413 c 0,4,5
 1062 1346 1062 1346 1023 1279 c 0,6,7
 981 1208 981 1208 913 1167 c 1,8,9
 859 1133 859 1133 795 1133 c 0,10,11
 728 1133 728 1133 686 1176 c 0,12,13
 647 1215 647 1215 647 1272 c 0,14,15
 647 1398 647 1398 769 1497 c 0,16,17
 847 1560 847 1560 920 1560 c 0,0,1
906 1465 m 0,18,19
 857 1465 857 1465 800 1401 c 0,20,21
 747 1341 747 1341 747 1283 c 0,22,23
 747 1258 747 1258 763 1240 c 0,24,25
 781 1220 781 1220 806 1220 c 0,26,27
 848 1220 848 1220 887 1255 c 0,28,29
 923 1288 923 1288 948 1336 c 0,30,31
 967 1374 967 1374 967 1405 c 0,32,33
 967 1465 967 1465 906 1465 c 0,18,19
EndSplineSet
EndChar

StartChar: ogonek
Encoding: 731 731 221
Width: 1024
VWidth: 2457
Flags: W
LayerCount: 2
Fore
SplineSet
544 0 m 1,0,1
 393 -58 393 -58 393 -179 c 0,2,3
 393 -233 393 -233 435 -256 c 0,4,5
 458 -268 458 -268 490 -268 c 0,6,7
 513 -268 513 -268 557 -262 c 1,8,9
 548 -284 548 -284 536 -357 c 1,10,11
 489 -362 489 -362 459 -362 c 0,12,13
 263 -362 263 -362 263 -223 c 0,14,15
 263 -139 263 -139 332 -69 c 0,16,17
 374 -27 374 -27 425 0 c 1,18,-1
 544 0 l 1,0,1
EndSplineSet
EndChar

StartChar: tilde
Encoding: 732 732 222
Width: 1024
VWidth: 2457
Flags: W
LayerCount: 2
Fore
SplineSet
1118 1329 m 1,0,1
 1085 1292 1085 1292 1059 1275 c 0,2,3
 1008 1242 1008 1242 939 1242 c 0,4,5
 885 1242 885 1242 824 1269 c 0,6,7
 739 1306 739 1306 698 1306 c 0,8,9
 659 1306 659 1306 617 1277 c 0,10,11
 604 1268 604 1268 576 1244 c 1,12,13
 560 1299 560 1299 522 1349 c 1,14,15
 564 1383 564 1383 590 1397 c 0,16,17
 642 1427 642 1427 703 1427 c 0,18,19
 751 1427 751 1427 801 1409 c 0,20,21
 814 1405 814 1405 881 1374 c 0,22,23
 908 1362 908 1362 940 1362 c 0,24,25
 1010 1362 1010 1362 1063 1427 c 1,26,27
 1082 1361 1082 1361 1118 1329 c 1,0,1
EndSplineSet
EndChar

StartChar: hungarumlaut
Encoding: 733 733 223
Width: 1024
VWidth: 2457
Flags: W
LayerCount: 2
Fore
SplineSet
986 1437 m 1,0,1
 940 1403 940 1403 846 1334 c 1,2,3
 685 1209 685 1209 631 1157 c 1,4,5
 604 1191 604 1191 596 1199 c 0,6,7
 585 1210 585 1210 545 1241 c 1,8,9
 705 1385 705 1385 894 1525 c 1,10,11
 901 1518 901 1518 907 1510 c 0,12,13
 932 1482 932 1482 986 1437 c 1,0,1
1314 1437 m 1,14,15
 1282 1413 1282 1413 1173 1334 c 1,16,17
 1012 1209 1012 1209 958 1157 c 1,18,19
 932 1191 932 1191 923 1199 c 1,20,21
 913 1210 913 1210 873 1241 c 1,22,23
 1033 1385 1033 1385 1222 1525 c 1,24,25
 1228 1518 1228 1518 1235 1510 c 0,26,27
 1260 1482 1260 1482 1314 1437 c 1,14,15
EndSplineSet
EndChar

StartChar: pi
Encoding: 960 960 224
Width: 1180
VWidth: 2457
Flags: W
LayerCount: 2
Fore
SplineSet
10 0 m 1,0,-1
 380 852 l 1,1,-1
 228 852 l 1,2,-1
 285 981 l 1,3,-1
 1352 981 l 1,4,-1
 1296 852 l 1,5,-1
 1146 852 l 1,6,-1
 776 0 l 1,7,-1
 633 0 l 1,8,-1
 1003 852 l 1,9,-1
 524 852 l 1,10,-1
 153 0 l 1,11,-1
 10 0 l 1,0,-1
EndSplineSet
EndChar

StartChar: endash
Encoding: 8211 8211 225
Width: 917
VWidth: 2457
Flags: W
LayerCount: 2
Fore
SplineSet
753 408 m 1,0,-1
 685 408 l 1,1,-1
 430 405 l 2,2,3
 397 405 397 405 109 408 c 1,4,5
 144 454 144 454 184 551 c 1,6,7
 338 541 338 541 559 541 c 0,8,9
 694 541 694 541 814 551 c 1,10,11
 810 543 810 543 803 527 c 0,12,13
 776 470 776 470 753 408 c 1,0,-1
EndSplineSet
EndChar

StartChar: emdash
Encoding: 8212 8212 226
Width: 1092
VWidth: 2457
Flags: W
LayerCount: 2
Fore
SplineSet
1065 408 m 1,0,-1
 950 408 l 1,1,-1
 519 405 l 1,2,-1
 75 408 l 1,3,-1
 -27 408 l 1,4,5
 19 455 19 455 57 551 c 1,6,7
 322 541 322 541 698 541 c 0,8,9
 925 541 925 541 1125 551 c 1,10,11
 1116 531 1116 531 1114 527 c 0,12,13
 1086 470 1086 470 1065 408 c 1,0,-1
EndSplineSet
EndChar

StartChar: quoteleft
Encoding: 8216 8216 227
Width: 448
VWidth: 2457
Flags: W
LayerCount: 2
Fore
SplineSet
595 1388 m 1,0,1
 607 1376 607 1376 638 1350 c 0,2,3
 669 1323 669 1323 683 1313 c 1,4,5
 544 1132 544 1132 513 1064 c 1,6,7
 536 1043 536 1043 569 1000 c 1,8,9
 499 920 499 920 448 827 c 1,10,11
 373 890 373 890 317 917 c 1,12,13
 334 991 334 991 421 1153 c 1,14,15
 489 1276 489 1276 595 1388 c 1,0,1
EndSplineSet
EndChar

StartChar: quoteright
Encoding: 8217 8217 228
Width: 448
VWidth: 2457
Flags: W
LayerCount: 2
Fore
SplineSet
379 827 m 1,0,1
 368 839 368 839 336 865 c 1,2,3
 305 892 305 892 291 902 c 1,4,5
 431 1083 431 1083 461 1151 c 1,6,7
 438 1171 438 1171 405 1214 c 1,8,9
 472 1292 472 1292 527 1388 c 1,10,11
 602 1325 602 1325 657 1298 c 1,12,13
 641 1223 641 1223 553 1062 c 0,14,15
 485 938 485 938 379 827 c 1,0,1
EndSplineSet
EndChar

StartChar: quotesinglbase
Encoding: 8218 8218 229
Width: 448
VWidth: 2457
Flags: W
LayerCount: 2
Fore
SplineSet
-52 -320 m 1,0,1
 -84 -291 -84 -291 -140 -245 c 1,2,3
 0 -65 0 -65 30 4 c 1,4,5
 7 24 7 24 -26 67 c 1,6,7
 41 145 41 145 96 241 c 1,8,9
 166 184 166 184 226 150 c 1,10,11
 210 76 210 76 122 -85 c 0,12,13
 54 -210 54 -210 -52 -320 c 1,0,1
EndSplineSet
EndChar

StartChar: quotedblleft
Encoding: 8220 8220 230
Width: 721
VWidth: 2457
Flags: W
LayerCount: 2
Fore
SplineSet
597 1393 m 1,0,1
 629 1363 629 1363 685 1318 c 1,2,3
 545 1136 545 1136 515 1068 c 1,4,5
 538 1049 538 1049 571 1005 c 1,6,7
 501 924 501 924 450 831 c 1,8,9
 380 888 380 888 319 922 c 1,10,11
 336 996 336 996 423 1158 c 1,12,13
 490 1279 490 1279 597 1393 c 1,0,1
870 1393 m 1,14,15
 902 1363 902 1363 959 1318 c 1,16,17
 818 1136 818 1136 788 1068 c 1,18,19
 811 1049 811 1049 844 1005 c 1,20,21
 774 924 774 924 723 831 c 1,22,23
 653 888 653 888 592 922 c 1,24,25
 609 996 609 996 696 1158 c 1,26,27
 763 1279 763 1279 870 1393 c 1,14,15
EndSplineSet
EndChar

StartChar: quotedblright
Encoding: 8221 8221 231
Width: 721
VWidth: 2457
Flags: W
LayerCount: 2
Fore
SplineSet
654 831 m 1,0,1
 643 843 643 843 612 869 c 0,2,3
 580 896 580 896 566 907 c 1,4,5
 705 1080 705 1080 736 1156 c 1,6,7
 713 1176 713 1176 680 1219 c 1,8,9
 747 1297 747 1297 802 1393 c 1,10,11
 860 1343 860 1343 933 1302 c 1,12,13
 916 1228 916 1228 828 1067 c 0,14,15
 760 942 760 942 654 831 c 1,0,1
381 831 m 1,16,17
 370 843 370 843 338 870 c 0,18,19
 307 897 307 897 293 907 c 1,20,21
 433 1087 433 1087 463 1156 c 1,22,23
 440 1176 440 1176 407 1219 c 1,24,25
 474 1297 474 1297 529 1393 c 1,26,27
 610 1328 610 1328 659 1302 c 1,28,29
 643 1228 643 1228 555 1067 c 0,30,31
 487 942 487 942 381 831 c 1,16,17
EndSplineSet
EndChar

StartChar: quotedblbase
Encoding: 8222 8222 232
Width: 721
VWidth: 2457
Flags: W
LayerCount: 2
Fore
SplineSet
221 -320 m 1,0,1
 189 -291 189 -291 133 -245 c 1,2,3
 273 -65 273 -65 303 4 c 1,4,5
 280 24 280 24 247 67 c 1,6,7
 314 145 314 145 369 241 c 1,8,9
 439 184 439 184 500 150 c 1,10,11
 483 76 483 76 395 -85 c 0,12,13
 327 -210 327 -210 221 -320 c 1,0,1
-52 -320 m 1,14,15
 -84 -291 -84 -291 -140 -245 c 1,16,17
 0 -65 0 -65 30 4 c 1,18,19
 7 24 7 24 -26 67 c 1,20,21
 41 145 41 145 96 241 c 1,22,23
 166 184 166 184 226 150 c 1,24,25
 210 76 210 76 122 -85 c 0,26,27
 54 -210 54 -210 -52 -320 c 1,14,15
EndSplineSet
EndChar

StartChar: dagger
Encoding: 8224 8224 233
Width: 1229
VWidth: 2457
Flags: W
LayerCount: 2
Fore
SplineSet
908 970 m 1,0,-1
 959 970 l 1,1,-1
 1009 970 l 2,2,3
 1125 970 1125 970 1279 979 c 1,4,5
 1273 967 1273 967 1268 957 c 0,6,7
 1243 904 1243 904 1224 849 c 1,8,9
 1004 856 1004 856 858 857 c 1,10,11
 557 177 557 177 408 -283 c 1,12,13
 368 -259 368 -259 281 -213 c 1,14,15
 306 -152 306 -152 408 117 c 0,16,17
 566 532 566 532 716 858 c 1,18,19
 573 858 573 858 330 849 c 1,20,21
 378 910 378 910 405 979 c 1,22,23
 555 973 555 973 737 971 c 1,24,-1
 767 970 l 1,25,26
 865 1193 865 1193 968 1401 c 1,27,28
 987 1386 987 1386 1018 1365 c 0,29,30
 1051 1342 1051 1342 1078 1321 c 1,31,32
 990 1155 990 1155 908 970 c 1,0,-1
EndSplineSet
EndChar

